<?xml version="1.0" standalone="no"?>
<!DOCTYPE svg PUBLIC "-//W3C//DTD SVG 1.1//EN" "http://www.w3.org/Graphics/SVG/1.1/DTD/svg11.dtd" >
<svg xmlns="http://www.w3.org/2000/svg" xmlns:xlink="http://www.w3.org/1999/xlink" version="1.1">
<metadata></metadata>
<defs>
<font id="corbertitalic" horiz-adv-x="1497" >
<font-face units-per-em="2048" ascent="1638" descent="-410" />
<missing-glyph horiz-adv-x="604" />
<glyph unicode="&#xfb01;" horiz-adv-x="1294" d="M148 -512l307 1445h-187l19 92h188q58 271 240 397q167 117 405 109l-10 -89q-195 0 -331 -106q-142 -105 -187 -312h741l-218 -1024h-117l198 933h-623l-307 -1445h-118z" />
<glyph unicode="&#xfb02;" horiz-adv-x="1499" d="M148 -512l307 1445h-187l19 92h188q59 274 239 398q165 115 401 110h320l-235 -1108q-16 -77 -16 -131q0 -81 31 -134q63 -80 220 -80l-10 -92q-210 -3 -292 111q-64 71 -64 201q0 62 15 135l214 1007h-188q-192 0 -330 -107q-144 -107 -188 -311h339l-19 -91h-339 l-307 -1445h-118z" />
<glyph horiz-adv-x="0" />
<glyph horiz-adv-x="682" />
<glyph unicode=" "  horiz-adv-x="604" />
<glyph unicode="&#x09;" horiz-adv-x="604" />
<glyph unicode="&#xa0;" horiz-adv-x="604" />
<glyph unicode="!" horiz-adv-x="327" d="M105 52q0 29 22.5 50.5t53.5 21.5q28 0 47 -18t19 -44q0 -29 -23 -50.5t-54 -21.5q-28 0 -46.5 18t-18.5 44zM172 313l235 1120h122l-241 -1120h-116z" />
<glyph unicode="&#x22;" horiz-adv-x="602" d="M288 921l112 525h101l-112 -525h-101zM605 921l111 525h101l-111 -525h-101z" />
<glyph unicode="#" horiz-adv-x="1302" d="M174 389l39 92h178l201 472h-178l39 92h178l165 389h110l-166 -389h389l165 389h109l-165 -389h195l-39 -92h-195l-200 -472h194l-39 -92h-195l-165 -389h-109l165 389h-388l-166 -389h-109l165 389h-178zM501 481h388l200 472h-388z" />
<glyph unicode="$" horiz-adv-x="1368" d="M131 176l85 75q62 -81 195 -126.5t289 -45.5q91 0 176 18t159 53.5t126 95t68 136.5q7 32 7 62q0 26 -6.5 49t-16 40.5t-28.5 33t-36 26.5t-46.5 22t-51 18t-59 15.5t-62 13t-68.5 13t-70 13.5q-76 14 -129 27.5t-112.5 38t-95.5 54.5t-60 77t-24 106q0 37 9 80 q18 84 70 153t127.5 115t165.5 74.5t191 38.5l46 196h113l-42 -192l34 -1q119 -3 227.5 -33.5t185.5 -83.5l-84 -82q-145 103 -387 103q-123 0 -232.5 -32t-191 -102.5t-102.5 -168.5q-6 -27 -6 -51q0 -31 10.5 -57t25.5 -45t43 -36t52.5 -28t64 -22t67 -17.5t72.5 -15.5 q214 -41 285 -63q179 -56 227 -163q22 -47 22 -107q0 -42 -10 -89q-20 -91 -79.5 -163.5t-144.5 -118t-183.5 -70.5t-204.5 -30l-45 -195h-113l46 195q-158 8 -294.5 60t-204.5 136z" />
<glyph unicode="%" horiz-adv-x="1779" d="M299 905q0 68 19 157q18 87 45 151t71.5 119.5t115.5 84.5t167 29q144 0 206.5 -64.5t62.5 -181.5q0 -65 -20 -158q-19 -87 -46.5 -152.5t-72.5 -120.5t-115.5 -84t-164.5 -29q-268 0 -268 249zM345 -35l1266 1503h124l-1266 -1503h-124zM392 902q0 -83 41 -125.5 t136 -42.5q132 0 201.5 82t104.5 246q18 85 18 140q0 82 -41 124t-137 42q-133 0 -201.5 -81t-103.5 -245q-18 -85 -18 -140zM1100 237q0 67 19 156q18 87 45 151t72 119.5t116 84.5t166 29q144 0 206 -64.5t62 -181.5q0 -69 -19 -158q-19 -87 -46.5 -152t-73 -120.5 t-116 -84t-164.5 -28.5q-143 0 -205 65.5t-62 183.5zM1193 234q0 -83 41 -126t136 -43q132 0 201 82t104 246q18 85 18 140q0 82 -41 124.5t-137 42.5q-69 0 -120.5 -22t-87 -66.5t-58 -101.5t-39.5 -137t-17 -139z" />
<glyph unicode="&#x26;" horiz-adv-x="1423" d="M161 274q0 48 12 106q52 242 272 342l182 71l-110 150q-37 54 -37 126q0 40 10 86q19 89 62.5 150t108.5 93t137.5 45.5t165.5 13.5q83 0 146 -11t114 -37.5t78 -75t27 -118.5q0 -35 -8 -81q-18 -96 -67.5 -155t-134.5 -97l-321 -127l390 -520q62 65 85 175q9 43 9 79 q0 77 -42 125l68 40q64 -75 64 -188q0 -49 -12 -106q-28 -137 -110 -223l77 -103l4 -34h-126l-53 70q-157 -115 -461 -115q-93 0 -169 9t-145 31.5t-115.5 58t-73.5 91.5t-27 129zM277 280q0 -66 29 -112t85 -71t126 -36t164 -11q283 0 408 105l-407 554l-184 -73 q-169 -79 -211 -275q-10 -50 -10 -81zM600 1071q0 -51 22 -80l120 -158l321 127q113 51 141 188q7 31 7 60q0 44 -17.5 74.5t-52 46.5t-78.5 23t-105 7q-150 0 -235.5 -47.5t-113.5 -170.5q-9 -39 -9 -70z" />
<glyph unicode="'" horiz-adv-x="284" d="M288 921l112 525h101l-112 -525h-101z" />
<glyph unicode="(" horiz-adv-x="667" d="M156 121q0 181 57 448q33 155 69.5 274.5t92 234.5t124 193t165 131t215.5 67l-9 -97q-111 -18 -199.5 -84.5t-153.5 -179t-111 -247.5t-84 -312q-55 -256 -55 -419q0 -167 58.5 -264.5t190.5 -119.5l-15 -96q-184 22 -264.5 143t-80.5 328z" />
<glyph unicode=")" horiz-adv-x="667" d="M26 -350l8 96q89 14 164.5 62t132.5 119.5t105 173t82.5 214.5t64.5 254q54 249 54 418q0 168 -58.5 266t-190.5 120l16 96q184 -22 264.5 -143t80.5 -329q0 -181 -57 -448q-27 -128 -57 -230.5t-70.5 -204t-92 -178t-116 -138.5t-148 -99t-182.5 -49z" />
<glyph unicode="*" horiz-adv-x="663" d="M360 1264l43 81l162 -59l37 183h85l-42 -183l185 59l10 -81l-187 -54l79 -147l-76 -49l-73 149l-138 -149l-62 49l141 147z" />
<glyph unicode="+" horiz-adv-x="1009" d="M209 550l21 98h364l77 364h98l-77 -364h363l-21 -98h-363l-77 -364h-99l78 364h-364z" />
<glyph unicode="," horiz-adv-x="331" d="M88 -141l20 53h7q25 1 38 18t21 54l1 4h-9q-30 0 -46.5 16t-16.5 40q0 27 19.5 47t52.5 20q37 0 53 -28q13 -22 13 -54q0 -25 -6 -49q-13 -60 -39 -90.5t-83 -30.5h-25z" />
<glyph unicode="-" horiz-adv-x="944" d="M233 660l21 99h758l-21 -99h-758z" />
<glyph unicode="." horiz-adv-x="319" d="M104 48q0 27 19.5 47t52.5 20q30 0 46 -16.5t16 -40.5q0 -26 -19.5 -47t-52.5 -21q-29 0 -45.5 16.5t-16.5 41.5z" />
<glyph unicode="/" horiz-adv-x="952" d="M78 -35l978 1503h122l-977 -1503h-123z" />
<glyph unicode="0" horiz-adv-x="1417" d="M237 412q0 124 35 289q27 127 62 226.5t93 192t134.5 153.5t187.5 97t250 36q132 0 225.5 -30.5t147.5 -89.5t78 -135.5t24 -177.5q0 -122 -36 -292q-27 -128 -63.5 -228.5t-95 -193.5t-135 -153.5t-186.5 -96.5t-247 -36q-130 0 -223.5 31t-147.5 90.5t-78.5 137.5 t-24.5 180zM355 409q0 -167 84 -252t276 -85q110 0 198.5 29t152.5 80.5t113.5 132t82.5 173.5t59 214q35 164 35 275q0 164 -83.5 248t-277.5 84q-112 0 -201 -29t-152.5 -80.5t-113 -132t-81 -172.5t-57.5 -213q-35 -162 -35 -272z" />
<glyph unicode="1" horiz-adv-x="669" d="M331 1220l22 102l328 71h90l-296 -1393h-122l273 1283z" />
<glyph unicode="2" horiz-adv-x="1273" d="M108 0l68 318q19 91 60 161t97.5 116.5t134 78t163.5 47.5t193 22q83 5 143.5 15t115.5 31t92 54t64 83t42 118q8 36 8 73q0 57 -24.5 96t-74 60t-112 29.5t-149.5 8.5q-142 0 -237 -23.5t-161.5 -86.5t-89.5 -170l-112 10q23 108 75.5 182t134 113.5t175 55.5t219.5 16 q111 0 192.5 -12.5t147 -43t99 -86t33.5 -135.5q0 -48 -12 -105q-19 -88 -53.5 -151.5t-80 -104.5t-114 -67t-141 -38t-173.5 -18q-242 -13 -372.5 -88.5t-167.5 -249.5l-44 -207h942l-21 -102h-1060z" />
<glyph unicode="3" horiz-adv-x="1290" d="M158 270q0 47 10 97l113 -10q-8 -43 -8 -74q0 -63 25.5 -105t76.5 -65t115 -32.5t154 -9.5q84 0 150 8.5t127 29.5t105 55.5t76 89t48 127.5q9 45 9 82q0 118 -93.5 162.5t-280.5 44.5h-220l20 95h211q95 0 166.5 12.5t133 43t101 87t57.5 138.5q8 36 8 74 q0 107 -84.5 147.5t-252.5 40.5q-198 0 -311 -59.5t-149 -209.5l-115 11q25 104 78 176t131.5 110t167 54t202.5 16q103 0 181 -12.5t142 -42.5t98 -84.5t34 -133.5q0 -42 -11 -97q-29 -139 -113 -214.5t-222 -107.5q238 -50 238 -260q0 -47 -12 -104q-19 -90 -61 -157 t-97.5 -108.5t-132 -67t-155.5 -35t-177 -9.5q-111 0 -195 14.5t-151 47t-102 92t-35 143.5z" />
<glyph unicode="4" horiz-adv-x="1314" d="M155 320l21 105l1044 970h122l-207 -977h176l-21 -98h-176l-68 -320h-120l67 320h-838zM310 418h704l176 819z" />
<glyph unicode="5" horiz-adv-x="1265" d="M174 290q0 46 11 109l124 -9q-9 -48 -9 -88q0 -68 24 -114t71.5 -71t107.5 -35.5t144 -10.5q102 0 178.5 16t143 54.5t111 110.5t66.5 177q13 59 13 111q0 67 -24 112.5t-72.5 70t-109 34t-145.5 9.5h-487l134 627h932l-21 -98h-811l-91 -430h352q105 0 184.5 -15 t145 -50t99.5 -99t34 -156q0 -62 -16 -136q-22 -104 -65.5 -181.5t-99 -126t-131 -77.5t-153.5 -40t-174 -11q-107 0 -188 15.5t-145.5 50.5t-98.5 98t-34 153z" />
<glyph unicode="6" horiz-adv-x="1335" d="M232 381q0 135 40 319q20 92 40 164t51 148t68 132t89.5 107.5t116 83.5t148 51t184.5 19q422 0 469 -332l-118 -19q-18 129 -99.5 191.5t-255.5 62.5q-78 0 -143 -14t-115.5 -38.5t-92 -64t-72.5 -84.5t-57 -106.5t-44 -123.5t-36 -141l-13 -66q61 98 161 144t239 56 q40 3 85 3q102 0 180.5 -16t143 -52t98.5 -101.5t34 -157.5q0 -62 -16 -135q-22 -105 -66 -183.5t-101 -126.5t-134.5 -77.5t-156.5 -40.5t-178 -11q-126 0 -215 29t-139 84.5t-72.5 127.5t-22.5 168zM347 378q0 -152 77.5 -229.5t262.5 -77.5q84 0 150.5 9.5t128.5 34.5 t107 65.5t79 104.5t53 151q13 61 13 111q0 70 -25 116.5t-75 72t-112.5 35.5t-150.5 10q-197 0 -321 -64.5t-179 -225.5q-8 -64 -8 -113z" />
<glyph unicode="7" horiz-adv-x="1216" d="M225 0l1028 1296h-885l21 99h1031l-13 -70l-1044 -1325h-138z" />
<glyph unicode="8" horiz-adv-x="1402" d="M191 273q0 45 12 101q32 153 129.5 236.5t259.5 116.5q-216 49 -216 238q0 40 11 92q22 102 76 172.5t137.5 108t177.5 53t215 15.5q86 0 154.5 -7.5t130.5 -26.5t103.5 -50t65.5 -79.5t24 -112.5q0 -41 -11 -94q-30 -138 -114 -213t-225 -106q245 -51 245 -261 q0 -46 -12 -102q-19 -91 -62.5 -159t-101.5 -110t-138 -67.5t-162 -35t-185 -9.5q-117 0 -206 14.5t-161 47.5t-109.5 93t-37.5 145zM320 282q0 -62 26.5 -103.5t80 -64.5t121 -32.5t161.5 -9.5q109 0 191 14t152 47.5t114.5 95t63.5 151.5q9 43 9 78q0 50 -18 86.5t-50 60 t-82 37.5t-106.5 19.5t-130.5 5.5q-110 0 -193 -14.5t-152.5 -48.5t-114 -95t-63.5 -150q-9 -42 -9 -77zM501 956q0 -45 16.5 -78.5t45.5 -54.5t74.5 -34.5t98 -18.5t120.5 -5q100 0 175.5 13t139 43.5t104 87t58.5 138.5q8 35 8 71q0 56 -24 94t-73 58.5t-109.5 29 t-146.5 8.5q-101 0 -177 -13.5t-139.5 -44.5t-104.5 -87t-58 -137q-8 -42 -8 -70z" />
<glyph unicode="9" horiz-adv-x="1335" d="M190 306l118 20q18 -129 99.5 -191.5t255.5 -62.5q90 0 163 17.5t128 54t97 83.5t74 114.5t54 137.5t43 162l14 67q-110 -179 -401 -199q-28 -2 -86 -2q-81 0 -147 9t-124.5 32t-98 59.5t-62 93t-22.5 130.5q0 63 16 137q22 105 66 183.5t101 126.5t134.5 77.5 t156.5 40.5t178 11q126 0 215 -29t139.5 -84.5t73 -127.5t22.5 -168q0 -123 -41 -319q-20 -92 -40 -164t-51 -148t-68 -132t-89.5 -107.5t-116 -83.5t-148 -51t-184.5 -19q-422 0 -469 332zM410 832q0 -69 25 -116t75.5 -72.5t113 -35.5t150.5 -10q197 0 321 64.5t179 225.5 q7 56 7 114q0 152 -77 229.5t-262 77.5q-84 0 -150.5 -9.5t-128.5 -34.5t-107 -66t-79.5 -105t-53.5 -151q-13 -61 -13 -111z" />
<glyph unicode=":" horiz-adv-x="319" d="M105 48q0 27 19 47t52 20q30 0 46.5 -16.5t16.5 -40.5q0 -26 -19.5 -47t-52.5 -21q-29 0 -45.5 16.5t-16.5 41.5zM290 922q0 27 19 46.5t52 19.5q30 0 46.5 -16.5t16.5 -40.5q0 -26 -19.5 -46t-52.5 -20q-30 0 -46 16.5t-16 40.5z" />
<glyph unicode=";" horiz-adv-x="331" d="M89 -141l19 53h8q24 1 37 18t21 54l1 4h-9q-30 0 -46 16t-16 40q0 27 19 47t52 20q38 0 54 -28q12 -20 12 -54q0 -25 -6 -49q-13 -60 -39 -90.5t-83 -30.5h-24zM290 922q0 27 19 46.5t52 19.5q30 0 46.5 -16.5t16.5 -40.5q0 -26 -19.5 -46t-52.5 -20q-30 0 -46 16.5 t-16 40.5z" />
<glyph unicode="&#x3c;" horiz-adv-x="966" d="M95 9l23 116l755 417l-576 418l23 115l681 -470l-25 -126z" />
<glyph unicode="=" horiz-adv-x="1009" d="M165 341l21 98h825l-21 -98h-825zM249 738l21 98h825l-21 -98h-825z" />
<glyph unicode="&#x3e;" horiz-adv-x="966" d="M195 479l25 126l881 470l-22 -115l-756 -418l576 -417l-23 -116z" />
<glyph unicode="?" horiz-adv-x="1255" d="M326 1097q18 86 58 149.5t93 103.5t126.5 64.5t150.5 34t173 9.5q108 0 190 -13t149 -43.5t102.5 -87t35.5 -137.5q0 -44 -12 -98q-14 -65 -37 -118.5t-47 -90.5t-60 -67t-63.5 -47t-71.5 -32.5t-70 -22.5t-71 -17q-50 -10 -78.5 -17.5t-68 -24t-63 -37.5t-45 -56.5 t-31.5 -82.5l-33 -153h-122l44 204q13 59 39.5 103t51 69t75 46t77 28t90.5 21q11 3 17 4q39 8 64 14t61 18.5t59.5 26.5t52.5 37.5t48.5 53t37 71.5t28.5 93q8 40 8 70q0 56 -24.5 93.5t-74 58t-111 28.5t-148.5 8q-208 0 -328.5 -61t-152.5 -212zM467 52q0 29 22.5 50.5 t53.5 21.5q28 0 46.5 -18t18.5 -44q0 -29 -22.5 -50.5t-53.5 -21.5q-28 0 -46.5 18t-18.5 44z" />
<glyph unicode="@" horiz-adv-x="2023" d="M172 255q0 119 29 255q44 206 142 379.5t239.5 300t329 197.5t400.5 71q180 0 323 -51t237.5 -143.5t144.5 -221.5t50 -286q0 -112 -28 -244q-45 -207 -193 -330t-343 -123h-254l24 118q-88 -82 -165 -110t-158 -28q-151 0 -234 81.5t-83 228.5q0 61 15 131 q39 183 184 298.5t334 115.5q139 0 232 -69l16 58h98l-153 -714h166q147 2 259.5 99.5t147.5 263.5q25 112 25 218q0 276 -170 437.5t-481 161.5q-254 0 -463.5 -110.5t-345.5 -304t-190 -445.5q-25 -119 -25 -229q0 -284 168 -448t477 -164q126 0 261 30l14 -107 q-132 -34 -281 -34q-179 0 -321 52t-235.5 146.5t-143 226.5t-49.5 293zM729 352q0 -112 62 -172.5t183 -60.5q78 0 149 31.5t159 121.5l105 476q-66 66 -200 66q-166 0 -289.5 -99.5t-156.5 -254.5q-12 -58 -12 -108z" />
<glyph unicode="A" d="M86 0l901 1434h130l292 -1434h-126l-78 396h-742l-247 -396h-130zM523 498h665l-160 805z" />
<glyph unicode="B" horiz-adv-x="1413" d="M200 0l305 1434h638q151 0 233.5 -75.5t82.5 -203.5q0 -41 -11 -93q-24 -114 -92.5 -196.5t-175.5 -122.5q93 -25 143 -94.5t50 -171.5q0 -45 -11 -100q-37 -172 -163 -274.5t-315 -102.5h-684zM343 100h542q138 0 231 79t123 217q9 44 9 81q0 99 -61 155t-175 56h-544z M490 789h530q120 6 201 79t107 196q9 40 9 75q0 92 -56.5 144t-162.5 52h-512z" />
<glyph unicode="C" horiz-adv-x="1402" d="M277 532q0 101 21 196q33 157 109.5 290.5t186.5 231.5t257 153t314 55q241 0 396 -122l-88 -76q-113 95 -313 95q-283 0 -482.5 -178t-261.5 -469q-20 -95 -20 -176q0 -210 123 -330.5t353 -120.5q201 0 365 103l65 -91q-193 -116 -435 -116q-285 0 -437.5 151 t-152.5 404z" />
<glyph unicode="D" horiz-adv-x="1521" d="M200 0l305 1434h452q284 0 438.5 -144t154.5 -392q0 -90 -21 -190q-69 -324 -298.5 -516t-569.5 -192h-461zM344 103h330q286 0 480.5 166.5t256.5 458.5q19 88 19 169q0 206 -125 320t-361 114h-339z" />
<glyph unicode="E" horiz-adv-x="1210" d="M200 0l305 1434h895l-22 -103h-773l-115 -541h709l-22 -102h-709l-124 -586h773l-22 -102h-895z" />
<glyph unicode="F" horiz-adv-x="1175" d="M200 0l305 1434h860l-22 -103h-738l-120 -564h674l-22 -102h-674l-141 -665h-122z" />
<glyph unicode="G" horiz-adv-x="1617" d="M277 533q0 93 21 195q33 157 109.5 290.5t186.5 231.5t257 153t314 55q342 0 498 -221l-83 -63q-138 181 -419 181q-279 0 -481 -177.5t-264 -469.5q-20 -95 -20 -175q0 -211 124 -333t351 -122q295 0 499 191l88 401h-452l21 98h571l-112 -542q-245 -251 -619 -251 q-282 0 -436 151.5t-154 406.5z" />
<glyph unicode="H" horiz-adv-x="1533" d="M200 0l305 1434h122l-142 -666h891l141 666h122l-305 -1434h-121l141 666h-891l-141 -666h-122z" />
<glyph unicode="I" horiz-adv-x="522" d="M200 0l305 1434h122l-305 -1434h-122z" />
<glyph unicode="J" horiz-adv-x="1028" d="M95 22l34 84q72 -19 184 -19q117 0 204 31t147 94t98 147t63 201l186 874h122l-188 -884q-28 -131 -73.5 -229t-119 -175.5t-184.5 -117.5t-258 -40q-124 0 -215 34z" />
<glyph unicode="K" horiz-adv-x="1320" d="M200 0l305 1434h120l-185 -863l893 863h154l-668 -641l413 -793h-148l-358 699l-321 -305l-85 -394h-120z" />
<glyph unicode="L" horiz-adv-x="1155" d="M200 0l305 1434h122l-284 -1336h746l-21 -98h-868z" />
<glyph unicode="M" horiz-adv-x="1808" d="M182 0l305 1434h149l286 -1295l838 1295h152l-304 -1434h-122l256 1198l-787 -1198h-118l-277 1198l-256 -1198h-122z" />
<glyph unicode="N" horiz-adv-x="1490" d="M182 0l305 1434h143l595 -1249l267 1249h122l-305 -1434h-144l-594 1249l-267 -1249h-122z" />
<glyph unicode="O" horiz-adv-x="1728" d="M277 533q0 93 21 195q33 157 109.5 290.5t186.5 231.5t257 153t314 55q285 0 438.5 -151.5t153.5 -404.5q0 -92 -21 -194q-34 -159 -110 -293.5t-186 -232t-257.5 -152.5t-315.5 -55q-282 0 -436 151.5t-154 406.5zM396 533q0 -211 124 -332.5t352 -121.5 q286 0 484.5 177t261.5 472q20 94 20 174q0 210 -123.5 331.5t-354.5 121.5q-283 0 -482.5 -178t-261.5 -469q-20 -95 -20 -175z" />
<glyph unicode="P" horiz-adv-x="1409" d="M200 0l305 1434h586q189 0 292 -96.5t103 -261.5q0 -56 -14 -124q-45 -212 -196 -337.5t-377 -125.5h-473l-104 -489h-122zM447 590h462q174 0 292 100t155 274q11 49 11 102q0 126 -77 196.5t-221 70.5h-464z" />
<glyph unicode="Q" horiz-adv-x="1736" d="M277 533q0 93 21 195q33 157 109.5 290.5t186.5 231.5t257 153t314 55q285 0 438.5 -151.5t153.5 -404.5q0 -92 -21 -194q-62 -296 -259 -487l139 -173l-92 -79l-140 176q-220 -170 -517 -170q-282 0 -436 151.5t-154 406.5zM396 533q0 -211 124 -332.5t352 -121.5 q286 0 484.5 177t261.5 472q20 94 20 174q0 210 -123.5 331.5t-354.5 121.5q-283 0 -482.5 -178t-261.5 -469q-20 -95 -20 -175z" />
<glyph unicode="R" horiz-adv-x="1429" d="M200 0l305 1434h585q179 0 277 -91.5t98 -248.5q0 -59 -13 -118q-37 -175 -153.5 -288.5t-291.5 -138.5l287 -549h-141l-274 538h-443l-114 -538h-122zM457 638h460q162 0 272 94t145 256q11 53 11 95q0 117 -72 183.5t-207 66.5h-461z" />
<glyph unicode="S" horiz-adv-x="1400" d="M139 176l85 75q62 -81 195 -126.5t289 -45.5q91 0 176 18t159 53.5t126 95t68 136.5q7 32 7 62q0 26 -6.5 49t-16.5 40.5t-29 33t-35.5 26.5t-46 22t-51.5 18t-59.5 15.5t-62 13t-68.5 13t-70 13.5q-76 14 -129 27.5t-112 38t-95 54.5t-60 77t-24 106q0 37 9 80 q21 97 85.5 173t157 122t199.5 69.5t221 23.5q131 0 250 -31.5t204 -89.5l-83 -82q-145 103 -387 103q-123 0 -232.5 -32t-191.5 -102.5t-103 -168.5q-5 -22 -5 -51q0 -31 10.5 -57t25.5 -45t43 -36t52.5 -28t64 -22t67 -17.5t72.5 -15.5q214 -41 285 -63q178 -56 226 -163 q22 -48 22 -107q0 -42 -10 -89q-21 -97 -86 -173.5t-157.5 -122t-198.5 -68.5t-218 -23q-177 0 -332.5 54t-229.5 147z" />
<glyph unicode="T" horiz-adv-x="1363" d="M370 1331l22 103h1189l-22 -103h-533l-283 -1331h-122l283 1331h-534z" />
<glyph unicode="U" horiz-adv-x="1525" d="M308 398q0 112 31 258l166 778h122l-166 -779q-31 -144 -31 -247q0 -163 83 -243.5t269 -80.5q129 0 227 38.5t166.5 116t113.5 181t75 245.5l163 769h122l-167 -788q-27 -125 -64 -224t-95 -185t-133.5 -143t-180.5 -89t-234 -32q-246 0 -356.5 110t-110.5 315z" />
<glyph unicode="V" horiz-adv-x="1466" d="M393 1434h125l243 -1295l795 1295h130l-890 -1434h-122z" />
<glyph unicode="W" horiz-adv-x="2234" d="M393 1434h132l154 -1252l675 1252h133l141 -1252l688 1252h136l-801 -1434h-125l-144 1237l-672 -1237h-125z" />
<glyph unicode="X" horiz-adv-x="1390" d="M86 0l686 737l-345 697h138l302 -617l565 617h144l-645 -702l370 -732h-137l-329 653l-606 -653h-143z" />
<glyph unicode="Y" horiz-adv-x="1413" d="M394 1434h137l318 -750l639 750h144l-741 -863l-123 -571h-122l123 572z" />
<glyph unicode="Z" horiz-adv-x="1310" d="M100 0l14 71l1199 1260h-858l22 103h1023l-13 -71l-1199 -1261h945l-22 -102h-1111z" />
<glyph unicode="[" horiz-adv-x="587" d="M21 -334l383 1802h403l-19 -91h-290l-345 -1621h290l-19 -90h-403z" />
<glyph unicode="\" horiz-adv-x="952" d="M401 1468h116l339 -1503h-117z" />
<glyph unicode="]" horiz-adv-x="587" d="M21 -334l20 90h290l344 1621h-290l19 91h403l-383 -1802h-403z" />
<glyph unicode="^" horiz-adv-x="1155" d="M258 789l560 638h122l288 -638h-132l-234 536l-464 -536h-140z" />
<glyph unicode="_" horiz-adv-x="1128" d="M26 -313l21 98h943l-21 -98h-943z" />
<glyph unicode="`" horiz-adv-x="571" d="M393 1418l75 73l271 -273l-74 -74z" />
<glyph unicode="a" horiz-adv-x="1251" d="M214 363q0 75 18 161q53 250 198 388.5t369 138.5q103 0 181 -39.5t182 -148.5l41 161h106l-217 -1024h-106l30 149q-173 -174 -408 -174q-190 0 -292 103t-102 285zM330 370q0 -141 78 -220.5t233 -79.5q223 0 387 191l113 513q-97 111 -163.5 146.5t-155.5 35.5 q-195 0 -313 -118.5t-164 -334.5q-15 -71 -15 -133z" />
<glyph unicode="b" horiz-adv-x="1265" d="M174 0l322 1511h117l-138 -633q144 103 235.5 138t186.5 35q187 0 281.5 -96t94.5 -273q0 -87 -20 -178q-51 -244 -208 -386.5t-381 -142.5q-106 0 -197.5 42.5t-145.5 138.5l-40 -156h-107zM344 252q79 -182 294 -182q196 0 326.5 124t174.5 330q19 90 19 156 q0 276 -290 276q-92 0 -178 -38.5t-233 -152.5z" />
<glyph unicode="c" horiz-adv-x="1058" d="M217 386q0 66 15 136q24 111 79.5 207t136.5 168t190.5 113t233.5 41q93 0 166 -22t115 -57l-75 -68q-58 52 -202 52q-199 0 -343.5 -127t-187.5 -327q-13 -58 -13 -115q0 -148 89.5 -233.5t248.5 -85.5q60 0 129 17.5t118 47.5l54 -84q-64 -37 -149 -56.5t-162 -19.5 q-210 0 -326.5 113t-116.5 300z" />
<glyph unicode="d" horiz-adv-x="1265" d="M214 363q0 75 18 161q53 250 198 388.5t369 138.5q99 0 176.5 -37.5t180.5 -142.5l139 640h118l-321 -1511h-106l30 149q-173 -174 -408 -174q-190 0 -292 103t-102 285zM330 370q0 -141 78 -220.5t233 -79.5q223 0 387 191l113 513q-97 111 -163.5 146.5t-155.5 35.5 q-195 0 -313 -118.5t-164 -334.5q-15 -71 -15 -133z" />
<glyph unicode="e" horiz-adv-x="1224" d="M216 382q0 70 16 143q49 232 214.5 380t407.5 148q136 0 232.5 -39t142.5 -111q48 -60 48 -146q0 -51 -16 -106q-77 -258 -561 -258q-138 0 -367 30q-2 -17 -2 -50q0 -146 87.5 -226.5t248.5 -80.5q181 0 351 85l44 -70q-180 -106 -407 -106q-211 0 -325 110.5 t-114 296.5zM344 497q167 -30 332 -30q84 0 156 9.5t140.5 32t116 65.5t64.5 103q13 45 13 84q0 103 -85.5 154t-230.5 51q-188 0 -319 -115.5t-175 -302.5z" />
<glyph unicode="f" horiz-adv-x="798" d="M148 -512l307 1445h-187l19 92h188q59 274 239 398q155 109 375 109q16 0 31 -1l-10 -89q-190 0 -327 -105q-75 -55 -121.5 -130t-69.5 -183h339l-19 -91h-339l-307 -1445h-118z" />
<glyph unicode="g" horiz-adv-x="1265" d="M171 -416l40 70q61 -38 142 -62t162 -24q93 0 181.5 32.5t158.5 102t90 162.5l63 281q-171 -166 -399 -166q-190 0 -292 103t-102 284q0 75 18 160q53 248 197.5 386t368.5 138q103 0 181.5 -39t181.5 -148l41 160h106l-248 -1169q-19 -92 -73 -165t-127.5 -117.5 t-157 -67.5t-168.5 -23q-200 0 -364 102zM330 372q0 -141 78.5 -220.5t233.5 -79.5q222 0 386 190l113 513q-97 111 -163.5 146t-155.5 35q-195 0 -313 -118t-164 -334q-15 -70 -15 -132z" />
<glyph unicode="h" horiz-adv-x="1282" d="M192 0l322 1511h117l-139 -639q131 96 223 138t198 42q96 0 177 -33t133.5 -103.5t52.5 -166.5q0 -39 -9 -82l-142 -667h-118l140 656q8 38 8 69q0 111 -80 171t-196 60q-97 0 -182.5 -42t-221.5 -149l-165 -765h-118z" />
<glyph unicode="i" horiz-adv-x="493" d="M198 0l218 1024h118l-218 -1024h-118zM469 1327q0 29 23 50.5t54 21.5q28 0 46.5 -18t18.5 -44q0 -29 -22.5 -50.5t-53.5 -21.5q-28 0 -47 18t-19 44z" />
<glyph unicode="j" horiz-adv-x="503" d="M-256 -524l10 90q177 19 289 131q119 94 156 270l225 1057h118l-227 -1069q-48 -225 -215 -352q-154 -112 -356 -127zM478 1327q0 29 22.5 50.5t53.5 21.5q28 0 46.5 -18t18.5 -44q0 -29 -22.5 -50.5t-53.5 -21.5q-28 0 -46.5 18t-18.5 44z" />
<glyph unicode="k" horiz-adv-x="1116" d="M192 0l321 1510h118l-219 -1023l653 537h140l-487 -406l322 -618h-136l-273 535l-248 -200l-73 -335h-118z" />
<glyph unicode="l" horiz-adv-x="700" d="M270 301q0 62 15 134l229 1076h117l-231 -1086q-15 -71 -15 -129q0 -82 32 -133q57 -83 219 -83l-11 -92h-11q-198 0 -281 108q-63 75 -63 205z" />
<glyph unicode="m" horiz-adv-x="1937" d="M174 0l218 1024h106l-31 -151q122 96 207 137.5t182 41.5q107 0 192.5 -49t116.5 -136q136 106 229.5 145.5t200.5 39.5q90 0 165 -32.5t124 -102t49 -164.5q0 -34 -10 -86l-142 -667h-117l139 656q9 40 9 75q0 109 -71.5 167t-174.5 58q-94 0 -174.5 -36.5 t-209.5 -143.5q3 -19 3 -44q0 -39 -8 -76l-140 -656h-117l139 656q9 40 9 75q0 109 -71.5 167t-174.5 58q-87 0 -163.5 -40.5t-199.5 -142.5l-167 -773h-118z" />
<glyph unicode="n" horiz-adv-x="1271" d="M174 0l218 1024h106l-32 -154q133 97 226.5 139.5t202.5 42.5q98 0 180.5 -33t136.5 -103.5t54 -167.5q0 -39 -9 -81l-142 -667h-118l140 656q7 34 7 68q0 112 -81 172t-199 60q-97 0 -182.5 -41t-222.5 -145l-167 -770h-118z" />
<glyph unicode="o" horiz-adv-x="1312" d="M216 382q0 62 16 140q50 233 221 381t418 148q213 0 328.5 -109.5t115.5 -296.5q0 -70 -16 -143q-50 -237 -219.5 -383t-420.5 -146q-214 0 -328.5 111.5t-114.5 297.5zM331 382q0 -146 86.5 -230t245.5 -84q201 0 340 123t183 331q14 68 14 124q0 147 -86.5 228.5 t-245.5 81.5q-198 0 -339 -125t-184 -329q-14 -65 -14 -120z" />
<glyph unicode="p" horiz-adv-x="1284" d="M89 -487l321 1511h105l-29 -149q173 174 408 174q192 0 293 -102t101 -283q0 -76 -18 -164q-53 -250 -198.5 -388.5t-369.5 -138.5q-99 0 -176 37t-180 143l-140 -640h-117zM361 250q97 -111 163.5 -146.5t155.5 -35.5q195 0 313 118.5t164 334.5q15 71 15 133 q0 141 -78.5 220.5t-233.5 79.5q-222 0 -386 -191z" />
<glyph unicode="q" horiz-adv-x="1265" d="M211 342q0 87 20 178q53 245 207 387t381 142q106 0 198 -42.5t146 -138.5l40 156h106l-321 -1511h-117l137 633q-144 -103 -235 -138t-186 -35q-187 0 -281.5 96t-94.5 273zM326 344q0 -276 290 -276q92 0 178 38.5t233 152.5l113 513q-79 182 -294 182 q-196 0 -327 -124t-175 -330q-18 -86 -18 -156z" />
<glyph unicode="r" horiz-adv-x="735" d="M174 0l218 1024h105l-35 -177q195 202 427 204h19l-21 -97h-25q-102 0 -210 -53.5t-201 -161.5l-159 -739h-118z" />
<glyph unicode="s" horiz-adv-x="1028" d="M108 125l50 69q45 -55 144.5 -89t212.5 -34q85 0 159 21t130.5 68t72.5 115q7 27 7 51q0 32 -14 56t-34 39t-56.5 27.5t-65.5 19t-78 15.5q-8 1 -12.5 2t-11.5 2.5t-13 2.5q-61 11 -101.5 20.5t-85 26.5t-71 38.5t-43.5 55.5t-17 77q0 30 7 62q15 69 61.5 123.5t112.5 87 t143 49.5t158 17q204 0 334 -92l-46 -73q-111 75 -288 75q-93 0 -173.5 -25t-136 -81t-55.5 -133q0 -34 15.5 -59t47 -41t63.5 -25t81 -19q8 -1 23 -4q43 -7 64.5 -11t59.5 -12t58.5 -14.5t51 -18t47 -23t36.5 -28.5t30 -36t17 -43.5t7 -53.5q0 -23 -9 -70q-15 -70 -62 -125 t-113.5 -87.5t-142.5 -49t-156 -16.5q-128 0 -240.5 38.5t-167.5 104.5z" />
<glyph unicode="t" horiz-adv-x="813" d="M247 933l19 91h207l64 299h117l-63 -299h310l-19 -91h-310l-110 -514q-11 -50 -11 -99q0 -83 37 -138q62 -88 214 -104l-11 -90q-202 12 -291 124q-66 80 -66 202q0 55 13 116l107 503h-207z" />
<glyph unicode="u" horiz-adv-x="1253" d="M223 276q0 39 9 81l142 667h118l-140 -656q-7 -34 -7 -68q0 -112 81 -172t199 -60q97 0 183 41t223 145l166 770h118l-218 -1024h-105l31 154q-134 -98 -227.5 -140.5t-201.5 -42.5q-57 0 -111 12t-101.5 37.5t-82.5 61t-55.5 85.5t-20.5 109z" />
<glyph unicode="v" horiz-adv-x="1056" d="M270 1024h118l163 -905l550 905h123l-631 -1024h-127z" />
<glyph unicode="w" horiz-adv-x="1669" d="M270 1024h118l127 -885l480 885h111l103 -885l505 885h122l-591 -1024h-126l-102 851l-465 -851h-126z" />
<glyph unicode="x" horiz-adv-x="1017" d="M50 0l499 515l-263 509h124l226 -431l403 431h131l-476 -512l270 -512h-124l-232 439l-427 -439h-131z" />
<glyph unicode="y" horiz-adv-x="1118" d="M-20 -508l8 90q146 0 260 68q118 60 201 196l95 154h-20l-203 1024h118l171 -907l553 907h123l-756 -1229q-92 -150 -238 -235q-139 -68 -312 -68z" />
<glyph unicode="z" horiz-adv-x="968" d="M85 0l10 54l816 879h-596l19 91h752l-9 -52l-819 -881h642l-19 -91h-796z" />
<glyph unicode="{" horiz-adv-x="774" d="M204 504l12 96q78 8 131 55.5t68 117.5l55 260q29 134 104.5 228.5t178.5 142.5t232 59l-7 -89q-152 -18 -258.5 -110t-138.5 -240l-55 -260q-16 -77 -65.5 -132.5t-123.5 -83.5q47 -21 74.5 -64t27.5 -101q0 -25 -6 -52l-55 -259q-10 -46 -10 -90q0 -109 65.5 -173.5 t185.5 -78.5l-13 -90q-161 15 -256 99t-95 232q0 47 13 110l55 259q5 27 5 44q0 107 -124 120z" />
<glyph unicode="|" horiz-adv-x="307" d="M29 -295l390 1831h122l-390 -1831h-122z" />
<glyph unicode="}" horiz-adv-x="774" d="M23 -360l8 90q152 19 258.5 111.5t138.5 239.5l55 259q16 77 65.5 132.5t123.5 83.5q-47 21 -75 64.5t-28 101.5q0 24 6 51l55 260q10 46 10 89q0 109 -66 173.5t-186 78.5l14 90q161 -14 256 -98t95 -232q0 -47 -13 -110l-55 -260q-5 -27 -5 -44q0 -106 124 -119 l-11 -96q-78 -8 -131 -55.5t-68 -118.5l-56 -259q-42 -200 -179 -307t-336 -125z" />
<glyph unicode="~" horiz-adv-x="1087" d="M206 545q127 177 275 177q97 0 232 -90q95 -60 178 -60q58 0 106 28t76 80l60 -42q-45 -74 -106.5 -111t-128.5 -37q-97 0 -201 69q-128 81 -210 81q-125 0 -222 -140z" />
<glyph unicode="&#xa1;" horiz-adv-x="327" d="M24 -369l241 1120h116l-235 -1120h-122zM307 1002q0 29 22.5 50.5t53.5 21.5q28 0 47 -18t19 -44q0 -29 -23 -50t-54 -21q-28 0 -46.5 17.5t-18.5 43.5z" />
<glyph unicode="&#xa2;" horiz-adv-x="1013" d="M186 387q0 65 15 135q44 205 189.5 348.5t356.5 171.5l40 167h111l-35 -161l19 -1q155 -9 240 -75l-75 -68q-59 52 -202 52q-199 0 -343.5 -127t-187.5 -327q-13 -58 -13 -115q0 -148 89.5 -233.5t248.5 -85.5q60 0 129 17.5t118 47.5l54 -83q-112 -63 -277 -75h-27 l-35 -159h-111l41 170q-164 22 -254.5 129.5t-90.5 271.5z" />
<glyph unicode="&#xa3;" horiz-adv-x="1286" d="M93 0l18 104q226 211 276 365q28 79 25 171h-183l22 103h160q-7 73 -7 136q0 86 19 178q26 111 78 190.5t126.5 125t161.5 66.5t195 21q99 0 173.5 -14t132 -45.5t87.5 -87t30 -134.5q0 -41 -9 -90h-117q7 36 7 72q0 110 -76.5 152t-228.5 42q-366 0 -441 -328 q-16 -76 -16 -152q0 -49 8 -133h555l-23 -103h-527q2 -107 -18 -179q-42 -160 -247 -358h941l-21 -102h-1101z" />
<glyph unicode="&#xa4;" horiz-adv-x="1495" />
<glyph unicode="&#xa5;" horiz-adv-x="1413" d="M394 1434h137l318 -750l639 750h144l-573 -668h192l-20 -91h-248l-97 -120l-27 -125h320l-19 -91h-320l-72 -339h-122l72 339h-321l20 91h320l27 125l-46 120h-249l19 91h195z" />
<glyph unicode="&#xa6;" horiz-adv-x="307" d="M30 -295l159 749h122l-159 -749h-122zM260 787l159 749h122l-160 -749h-121z" />
<glyph unicode="&#xa7;" horiz-adv-x="1150" d="M65 -135l70 80q52 -64 165.5 -104.5t240.5 -40.5q99 0 184 25.5t148 82.5t80 138q6 27 6 49q0 31 -9.5 55t-30 41.5t-43.5 30t-59 23t-66.5 17t-75.5 15.5q-27 5 -41 8q-69 13 -114 23.5t-96 30.5t-80 45t-48.5 64t-19.5 89q0 33 9 74q38 179 263 265q-159 58 -159 197 q0 29 8 67q17 81 70 144.5t128.5 101.5t163 58t179.5 20q218 0 363 -96l-70 -82q-123 79 -309 79q-97 0 -182.5 -25.5t-149 -80.5t-79.5 -132q-5 -27 -5 -43q0 -33 14.5 -58.5t34 -41t58 -29.5t65.5 -20.5t78 -17.5q186 -34 251 -57q142 -51 172 -155q8 -31 8 -66 q0 -38 -9 -83q-35 -167 -236 -257q132 -60 132 -195q0 -35 -9 -77q-17 -83 -71 -147t-130 -102t-162 -57.5t-177 -19.5q-145 0 -271.5 44t-188.5 120zM391 557q0 -32 14 -57t33 -41t55.5 -29.5t65.5 -21t78 -17.5q138 -23 191 -38q110 31 179.5 99.5t69.5 171.5 q0 21 -5.5 39t-12.5 31.5t-22.5 26t-27.5 21.5t-36 17.5t-39.5 13.5t-46 12t-47.5 10t-52.5 10t-52.5 10l-61 11q-107 -22 -183 -81t-95 -146q-5 -25 -5 -42z" />
<glyph unicode="&#xa8;" horiz-adv-x="729" d="M376 1295q0 27 19.5 47t52.5 20q30 0 46 -16t16 -41q0 -27 -19.5 -47.5t-52.5 -20.5q-29 0 -45.5 16.5t-16.5 41.5zM772 1295q0 27 19 47t52 20q30 0 46.5 -16.5t16.5 -40.5q0 -27 -19.5 -47.5t-52.5 -20.5q-29 0 -45.5 16.5t-16.5 41.5z" />
<glyph unicode="&#xa9;" horiz-adv-x="1658" d="M230 571q0 74 17 156q42 198 175 365.5t321.5 264.5t386.5 97q176 0 314 -77.5t213.5 -212t75.5 -301.5q0 -74 -17 -156q-42 -198 -175 -365.5t-321.5 -264.5t-386.5 -97q-176 0 -314 77t-213.5 211.5t-75.5 302.5zM314 574q0 -220 146 -364.5t375 -144.5q179 0 349.5 89 t292 242t159.5 332q14 64 14 134q0 220 -146 364.5t-375 144.5q-179 0 -349.5 -89t-292 -242t-159.5 -332q-14 -64 -14 -134zM592 622q0 56 11 105q36 172 162.5 282t305.5 110q139 0 226 -73l-61 -53q-56 55 -163 55q-148 0 -251.5 -93.5t-136.5 -247.5q-11 -52 -11 -92 q0 -107 62.5 -168t179.5 -61q109 0 199 64l45 -69q-106 -67 -243 -67q-156 0 -240.5 84.5t-84.5 223.5z" />
<glyph unicode="&#xaa;" horiz-adv-x="1114" d="M419 903q0 29 5 51q23 110 119 166t219 56q136 0 236 -61l17 79q3 18 3 35q0 72 -58.5 112t-141.5 40q-111 0 -222 -59l-30 55q136 69 274 69q112 0 191 -56.5t79 -155.5q0 -24 -6 -53l-96 -451h-84l20 90q-112 -97 -256 -107q-10 -1 -30 -1q-102 0 -170.5 50.5 t-68.5 140.5zM505 905q0 -62 52.5 -94.5t131.5 -27.5q159 7 263 116l35 158q-78 56 -204 56q-65 0 -120.5 -17.5t-98.5 -58.5t-55 -100q-4 -24 -4 -32z" />
<glyph unicode="&#xab;" horiz-adv-x="1134" d="M220 600l542 480l67 -61l-472 -419l294 -418l-87 -61zM650 600l543 480l66 -61l-472 -419l294 -418l-86 -61z" />
<glyph unicode="&#xac;" horiz-adv-x="1495" />
<glyph unicode="&#xad;" horiz-adv-x="944" d="M233 660l21 99h758l-21 -99h-758z" />
<glyph unicode="&#xae;" horiz-adv-x="1658" d="M230 571q0 74 17 156q42 198 175 365.5t321.5 264.5t386.5 97q176 0 314 -77.5t213.5 -212t75.5 -301.5q0 -74 -17 -156q-42 -198 -175 -365.5t-321.5 -264.5t-386.5 -97q-176 0 -314 77t-213.5 211.5t-75.5 302.5zM314 574q0 -220 145.5 -364.5t374.5 -144.5 q179 0 349.5 89t292 242t159.5 332q15 69 15 134q0 220 -146 364.5t-375 144.5q-178 0 -349 -89t-292.5 -242t-159.5 -333q-14 -64 -14 -133zM625 340l161 759h310q96 0 149.5 -51t53.5 -136q0 -31 -7 -62q-18 -88 -77 -147t-148 -75l150 -288h-90l-137 278h-227l-59 -278 h-79zM777 685h231q82 0 136.5 47t71.5 130q6 25 6 49q0 59 -35.5 91.5t-102.5 32.5h-233z" />
<glyph unicode="&#xaf;" horiz-adv-x="798" d="M387 1385l16 77h615l-17 -77h-614z" />
<glyph unicode="&#xb0;" horiz-adv-x="808" d="M372 1284q0 32 7 63q26 121 132 207t233 86q115 0 188 -71.5t73 -178.5q0 -32 -7 -63q-26 -121 -132.5 -207t-233.5 -86q-115 0 -187.5 71.5t-72.5 178.5zM451 1281q0 -76 51.5 -125t128.5 -49q96 0 182 70t107 170q5 27 5 46q0 76 -51 125t-128 49q-96 0 -182.5 -70 t-107.5 -170q-5 -27 -5 -46z" />
<glyph unicode="&#xb1;" horiz-adv-x="1009" d="M85 -33l21 99h825l-20 -99h-826zM251 747l21 98h363l76 355h98l-75 -355h363l-21 -98h-363l-76 -356h-98l75 356h-363z" />
<glyph unicode="&#xb2;" horiz-adv-x="753" d="M250 718l37 173q24 114 110 164.5t227 58.5q101 6 149.5 33.5t64.5 103.5q4 17 4 34q0 51 -42 69.5t-128 18.5q-98 0 -152.5 -29.5t-69.5 -103.5l-86 10q12 58 40 97t71 60.5t91.5 30t112.5 8.5q119 0 185.5 -35t66.5 -119q0 -24 -6 -54q-23 -107 -92.5 -148t-200.5 -49 q-115 -6 -175 -39t-78 -109l-23 -100h471l-16 -75h-561z" />
<glyph unicode="&#xb3;" horiz-adv-x="765" d="M282 868q0 24 6 52l86 -10q-4 -17 -4 -34q0 -56 46 -77.5t133 -21.5q99 0 153.5 30.5t73.5 111.5q5 25 5 41q0 54 -42.5 74.5t-128.5 20.5h-108l14 68h101q94 0 144.5 26.5t66.5 99.5q4 19 4 38q0 49 -38.5 67t-119.5 18q-91 0 -141.5 -28t-66.5 -97l-88 11 q24 105 102.5 146.5t200.5 41.5q244 0 244 -152q0 -23 -6 -50q-25 -117 -144 -159q96 -30 96 -131q0 -24 -6 -54q-12 -58 -42.5 -97.5t-75.5 -60t-94 -29t-112 -8.5q-259 0 -259 163z" />
<glyph unicode="&#xb4;" horiz-adv-x="571" d="M351 1218l381 273l49 -73l-381 -274z" />
<glyph unicode="&#xb6;" horiz-adv-x="1523" d="M285 845q0 64 14 127q44 209 197.5 335.5t376.5 126.5h863l-21 -99h-203l-386 -1814h-122l386 1814h-324l-386 -1814h-122l207 970h-109q-179 6 -275 100.5t-96 253.5z" />
<glyph unicode="&#xb7;" horiz-adv-x="319" d="M225 616q0 27 19 46.5t52 19.5q30 0 46.5 -16.5t16.5 -40.5q0 -26 -19.5 -46t-52.5 -20q-29 0 -45.5 16.5t-16.5 40.5z" />
<glyph unicode="&#xb8;" horiz-adv-x="608" d="M8 -406l54 39q27 -53 120 -53q71 0 122 36t64 99q3 15 3 27q0 42 -32.5 65t-90.5 23q-36 0 -68 -10l-35 22l137 172h87l-120 -139q29 4 45 2q72 -3 117 -40t45 -103q0 -104 -77.5 -165t-188.5 -61q-66 0 -114 23t-68 63z" />
<glyph unicode="&#xb9;" horiz-adv-x="417" d="M373 1319l16 76l178 38h63l-154 -721h-91l135 638z" />
<glyph unicode="&#xba;" horiz-adv-x="1230" d="M470 994q0 48 10 95q33 157 149.5 257t284.5 100q146 0 226 -76.5t80 -204.5q0 -43 -11 -96q-34 -159 -149 -258t-285 -99q-147 0 -226 77t-79 205zM559 989q0 -95 56 -149t159 -54q134 0 225.5 81.5t121.5 221.5q9 43 9 82q0 95 -55.5 147.5t-159.5 52.5 q-131 0 -224.5 -82.5t-122.5 -219.5q-9 -42 -9 -80z" />
<glyph unicode="&#xbb;" horiz-adv-x="1134" d="M131 182l472 418l-294 419l86 61l345 -480l-543 -479zM561 182l472 418l-294 419l87 61l344 -480l-542 -479z" />
<glyph unicode="&#xbc;" horiz-adv-x="1347" d="M101 -35l1241 1503h124l-1241 -1503h-124zM387 1319l16 76l179 38h62l-153 -721h-92l136 638zM692 160l13 68l531 494h85l-104 -489h89l-16 -73h-88l-34 -160h-83l34 160h-427zM812 233h322l82 379z" />
<glyph unicode="&#xbd;" horiz-adv-x="1521" d="M101 -35l1241 1503h124l-1241 -1503h-124zM387 1319l16 76l179 38h62l-153 -721h-92l136 638zM865 0l37 174q24 114 109.5 164t226.5 58q101 6 150 33.5t65 103.5q4 17 4 34q0 51 -42.5 69.5t-128.5 18.5q-98 0 -152.5 -29.5t-69.5 -103.5l-86 11q15 76 61.5 120.5 t107 59.5t146.5 15q119 0 186 -35t67 -119q0 -19 -7 -54q-23 -107 -92.5 -148t-200.5 -49q-115 -6 -174.5 -38.5t-77.5 -108.5l-23 -101h471l-17 -75h-560z" />
<glyph unicode="&#xbe;" horiz-adv-x="1574" d="M282 868q0 24 6 52l86 -10q-4 -17 -4 -34q0 -56 46 -77.5t133 -21.5q99 0 154 30.5t73 110.5q5 25 5 42q0 54 -42.5 74.5t-128.5 20.5h-108l14 68h101q94 0 144.5 26.5t66.5 99.5q4 19 4 38q0 49 -38.5 67t-119.5 18q-91 0 -141.5 -28t-66.5 -97l-88 11 q24 105 102.5 146.5t200.5 41.5q244 0 244 -152q0 -23 -6 -50q-25 -117 -144 -159q96 -30 96 -131q0 -24 -6 -54q-12 -58 -42.5 -97.5t-75.5 -60t-94 -29t-112 -8.5q-259 0 -259 163zM328 -35l1241 1503h124l-1241 -1503h-124zM919 160l13 68l531 494h85l-104 -489h89 l-16 -73h-88l-34 -160h-83l34 160h-427zM1039 233h322l82 379z" />
<glyph unicode="&#xbf;" horiz-adv-x="1255" d="M87 -70q0 49 11 97q11 51 27.5 95t33.5 77.5t42 62t46 48t52 36.5t53 27t56.5 20.5t54.5 15.5t55 13q50 10 78.5 17.5t68.5 24t63.5 37.5t45 56.5t31.5 83.5l32 152h122l-43 -202q-9 -42 -25 -77t-33 -59t-45 -44t-48.5 -31.5t-58.5 -23.5t-59 -17.5t-64 -14.5 q-12 -3 -18 -4q-55 -11 -89.5 -20.5t-81.5 -32.5t-77 -53.5t-58.5 -84t-43.5 -124.5q-8 -42 -8 -70q0 -56 24.5 -94t74 -58t110.5 -28t148 -8q208 0 329 61t153 212l119 -12q-18 -86 -58 -150t-93 -103.5t-126.5 -64t-150.5 -33.5t-173 -9q-108 0 -190 13t-149 44 t-102.5 87.5t-35.5 137.5zM882 1044q0 29 23 50.5t54 21.5q28 0 46.5 -18t18.5 -44q0 -29 -23 -50.5t-54 -21.5q-28 0 -46.5 18t-18.5 44z" />
<glyph unicode="&#xc0;" d="M86 0l901 1434h130l292 -1434h-126l-78 396h-742l-247 -396h-130zM523 498h665l-160 805zM941 1828l75 73l271 -274l-75 -73z" />
<glyph unicode="&#xc1;" d="M86 0l901 1434h130l292 -1434h-126l-78 396h-742l-247 -396h-130zM523 498h665l-160 805zM904 1627l381 274l49 -73l-381 -274z" />
<glyph unicode="&#xc2;" d="M86 0l901 1434h130l292 -1434h-126l-78 396h-742l-247 -396h-130zM523 498h665l-160 805zM776 1607l375 314l248 -314l-74 -63l-194 253l-302 -253z" />
<glyph unicode="&#xc3;" d="M86 0l901 1434h130l292 -1434h-126l-79 396h-741l-247 -396h-130zM523 498h665l-160 805zM831 1713q83 125 173 125q50 0 129 -50q72 -42 112 -42q55 0 102 73l63 -48q-69 -108 -153 -108q-54 0 -135 50q-67 42 -106 42q-59 0 -121 -91z" />
<glyph unicode="&#xc4;" d="M86 0l901 1434h130l292 -1434h-126l-78 396h-742l-247 -396h-130zM523 498h665l-160 805zM844 1704q0 27 19.5 47t52.5 20q30 0 46 -16.5t16 -40.5q0 -27 -19.5 -47t-52.5 -20q-30 0 -46 16.5t-16 40.5zM1240 1704q0 27 19.5 47t52.5 20q30 0 46 -16.5t16 -40.5 q0 -27 -19.5 -47t-52.5 -20q-30 0 -46 16.5t-16 40.5z" />
<glyph unicode="&#xc5;" d="M86 0l901 1434h130l292 -1434h-126l-78 396h-742l-247 -396h-130zM523 498h665l-160 805zM889 1715q0 99 81.5 176.5t185.5 77.5q84 0 138 -52.5t54 -130.5q0 -99 -81.5 -176.5t-185.5 -77.5q-84 0 -138 52.5t-54 130.5zM961 1711q0 -50 33.5 -81.5t83.5 -31.5 q63 0 121.5 47.5t73.5 115.5q3 15 3 29q0 50 -33.5 81.5t-83.5 31.5q-63 0 -121.5 -47.5t-73.5 -115.5q-3 -15 -3 -29z" />
<glyph unicode="&#xc6;" horiz-adv-x="1759" d="M86 0l901 1434h962l-22 -103h-773l-115 -541h709l-22 -102h-709l-125 -586h774l-22 -102h-895l84 396h-370l-247 -396h-130zM523 498h332l172 805z" />
<glyph unicode="&#xc7;" horiz-adv-x="1402" d="M277 532q0 101 21 196q33 157 109.5 290.5t186.5 231.5t257 153t314 55q241 0 396 -122l-88 -76q-113 95 -313 95q-283 0 -482.5 -178t-261.5 -469q-20 -95 -20 -176q0 -210 123 -330.5t353 -120.5q201 0 365 103l65 -91q-196 -116 -442 -116q-45 0 -108 9l-105 -111 q31 4 47 2q72 -3 116 -40.5t44 -102.5q0 -104 -77.5 -165t-188.5 -61q-66 0 -114 23t-68 63l54 39q27 -53 120 -53q71 0 122 36t64 99q3 15 3 27q0 42 -32.5 65t-90.5 23q-36 0 -68 -10l-35 22l132 158q-193 45 -295.5 185.5t-102.5 346.5z" />
<glyph unicode="&#xc8;" horiz-adv-x="1210" d="M200 0l305 1434h895l-22 -103h-773l-115 -541h709l-22 -102h-709l-124 -586h773l-22 -102h-895zM809 1828l74 73l271 -274l-74 -73z" />
<glyph unicode="&#xc9;" horiz-adv-x="1210" d="M200 0l305 1434h895l-22 -103h-773l-115 -541h709l-22 -102h-709l-124 -586h773l-22 -102h-895zM771 1627l381 274l49 -73l-381 -274z" />
<glyph unicode="&#xca;" horiz-adv-x="1210" d="M200 0l305 1434h895l-22 -103h-773l-115 -541h709l-22 -102h-709l-124 -586h773l-22 -102h-895zM643 1607l375 314l248 -314l-74 -63l-194 253l-302 -253z" />
<glyph unicode="&#xcb;" horiz-adv-x="1210" d="M200 0l305 1434h895l-22 -103h-773l-115 -541h709l-22 -102h-709l-124 -586h773l-22 -102h-895zM712 1704q0 27 19 47t52 20q29 0 45.5 -16.5t16.5 -40.5q0 -27 -19 -47t-52 -20q-30 0 -46 16.5t-16 40.5zM1107 1704q0 27 19.5 47t52.5 20q29 0 45.5 -16.5t16.5 -40.5 q0 -27 -19.5 -47t-52.5 -20q-29 0 -45.5 16.5t-16.5 40.5z" />
<glyph unicode="&#xcc;" horiz-adv-x="522" d="M200 0l305 1434h122l-305 -1434h-122zM455 1828l75 73l271 -274l-75 -73z" />
<glyph unicode="&#xcd;" horiz-adv-x="522" d="M200 0l305 1434h122l-305 -1434h-122zM418 1627l381 274l48 -73l-381 -274z" />
<glyph unicode="&#xce;" horiz-adv-x="522" d="M200 0l305 1434h122l-305 -1434h-122zM290 1607l375 314l247 -314l-73 -63l-194 253l-303 -253z" />
<glyph unicode="&#xcf;" horiz-adv-x="522" d="M200 0l305 1434h122l-305 -1434h-122zM358 1704q0 27 19.5 47t52.5 20q30 0 46 -16.5t16 -40.5q0 -27 -19.5 -47t-52.5 -20q-30 0 -46 16.5t-16 40.5zM754 1704q0 27 19 47t52 20q30 0 46.5 -16.5t16.5 -40.5q0 -27 -19.5 -47t-52.5 -20q-30 0 -46 16.5t-16 40.5z" />
<glyph unicode="&#xd0;" horiz-adv-x="1538" d="M145 654l21 99h209l145 681h452q284 0 438.5 -144t154.5 -392q0 -90 -21 -190q-69 -324 -298.5 -516t-569.5 -192h-461l139 654h-209zM359 103h330q286 0 480.5 166.5t256.5 458.5q20 92 20 169q0 206 -125 320t-362 114h-339l-123 -578h392l-21 -98h-392z" />
<glyph unicode="&#xd1;" horiz-adv-x="1490" d="M182 0l305 1434h143l595 -1249l267 1249h122l-305 -1434h-144l-594 1249l-267 -1249h-122zM832 1713q83 125 173 125q52 0 131 -51q71 -41 110 -41q54 0 101 73l64 -48q-69 -108 -153 -108q-52 0 -129 47q-74 45 -112 45q-60 0 -122 -91z" />
<glyph unicode="&#xd2;" horiz-adv-x="1728" d="M277 533q0 93 21 195q33 157 109.5 290.5t186.5 231.5t257 153t314 55q285 0 438.5 -151.5t153.5 -404.5q0 -92 -21 -194q-34 -159 -110 -293.5t-186 -232t-257.5 -152.5t-315.5 -55q-282 0 -436 151.5t-154 406.5zM396 533q0 -211 124 -332.5t352 -121.5 q286 0 484.5 177t261.5 472q20 94 20 174q0 210 -123.5 331.5t-354.5 121.5q-283 0 -482.5 -178t-261.5 -469q-20 -95 -20 -175zM1061 1828l74 73l272 -274l-75 -73z" />
<glyph unicode="&#xd3;" horiz-adv-x="1728" d="M277 533q0 93 21 195q33 157 109.5 290.5t186.5 231.5t257 153t314 55q285 0 438.5 -151.5t153.5 -404.5q0 -92 -21 -194q-34 -159 -110 -293.5t-186 -232t-257.5 -152.5t-315.5 -55q-282 0 -436 151.5t-154 406.5zM396 533q0 -211 124 -332.5t352 -121.5 q286 0 484.5 177t261.5 472q20 94 20 174q0 210 -123.5 331.5t-354.5 121.5q-283 0 -482.5 -178t-261.5 -469q-20 -95 -20 -175zM1023 1627l381 274l49 -73l-381 -274z" />
<glyph unicode="&#xd4;" horiz-adv-x="1728" d="M277 533q0 93 21 195q33 157 109.5 290.5t186.5 231.5t257 153t314 55q285 0 438.5 -151.5t153.5 -404.5q0 -92 -21 -194q-34 -159 -110 -293.5t-186 -232t-257.5 -152.5t-315.5 -55q-282 0 -436 151.5t-154 406.5zM396 533q0 -211 124 -332.5t352 -121.5 q286 0 484.5 177t261.5 472q20 94 20 174q0 210 -123.5 331.5t-354.5 121.5q-283 0 -482.5 -178t-261.5 -469q-20 -95 -20 -175zM895 1607l375 314l248 -314l-73 -63l-195 253l-302 -253z" />
<glyph unicode="&#xd5;" horiz-adv-x="1728" d="M277 533q0 93 21 195q33 157 109.5 290.5t186.5 231.5t257 153t314 55q285 0 438.5 -151.5t153.5 -404.5q0 -92 -21 -194q-34 -159 -110 -293.5t-186 -232t-257.5 -152.5t-315.5 -55q-282 0 -436 151.5t-154 406.5zM396 533q0 -211 124 -332.5t352 -121.5 q286 0 484.5 177t261.5 472q20 94 20 174q0 210 -123.5 331.5t-354.5 121.5q-283 0 -482.5 -178t-261.5 -469q-20 -95 -20 -175zM951 1713q83 125 173 125q52 0 127 -49q75 -43 114 -43q54 0 101 73l64 -48q-69 -108 -154 -108q-53 0 -137 51q-67 41 -103 41q-60 0 -122 -91 z" />
<glyph unicode="&#xd6;" horiz-adv-x="1728" d="M277 533q0 93 21 195q33 157 109.5 290.5t186.5 231.5t257 153t314 55q285 0 438.5 -151.5t153.5 -404.5q0 -92 -21 -194q-34 -159 -110 -293.5t-186 -232t-257.5 -152.5t-315.5 -55q-282 0 -436 151.5t-154 406.5zM396 533q0 -211 124 -332.5t352 -121.5 q286 0 484.5 177t261.5 472q20 94 20 174q0 210 -123.5 331.5t-354.5 121.5q-283 0 -482.5 -178t-261.5 -469q-20 -95 -20 -175zM964 1704q0 27 19 47t52 20q30 0 46.5 -16.5t16.5 -40.5q0 -27 -19.5 -47t-52.5 -20q-30 0 -46 16.5t-16 40.5zM1360 1704q0 27 19 47t52 20 q30 0 46.5 -16.5t16.5 -40.5q0 -27 -19.5 -47t-52.5 -20q-30 0 -46 16.5t-16 40.5z" />
<glyph unicode="&#xd7;" horiz-adv-x="837" d="M165 342l312 257l-203 257l81 69l203 -257l311 257l58 -69l-311 -257l202 -257l-81 -69l-203 257l-311 -257z" />
<glyph unicode="&#xd8;" horiz-adv-x="1728" d="M277 533q0 93 21 195q33 157 109.5 290.5t186.5 231.5t257 153t314 55q139 0 248 -38l75 116h123l-103 -158q122 -70 185.5 -192.5t63.5 -283.5q0 -92 -21 -194q-34 -159 -110 -293.5t-186 -232t-257.5 -152.5t-315.5 -55q-138 0 -246 38l-76 -115h-122l103 158 q-122 70 -185.5 193t-63.5 284zM396 533q0 -131 48.5 -229t142.5 -155l766 1178q-87 28 -193 28q-283 0 -482.5 -178t-261.5 -469q-20 -95 -20 -175zM681 106q84 -27 191 -27q286 0 484.5 177t261.5 472q20 94 20 174q0 268 -191 383z" />
<glyph unicode="&#xd9;" horiz-adv-x="1525" d="M308 398q0 112 31 258l166 778h122l-166 -779q-31 -144 -31 -247q0 -163 83 -243.5t269 -80.5q129 0 227 38.5t166.5 116t113.5 181t75 245.5l163 769h122l-167 -788q-27 -125 -64 -224t-95 -185t-133.5 -143t-180.5 -89t-234 -32q-246 0 -356.5 110t-110.5 315z M958 1828l75 73l271 -274l-75 -73z" />
<glyph unicode="&#xda;" horiz-adv-x="1525" d="M308 398q0 112 31 258l166 778h122l-166 -779q-31 -144 -31 -247q0 -163 83 -243.5t269 -80.5q129 0 227 38.5t166.5 116t113.5 181t75 245.5l163 769h122l-167 -788q-27 -125 -64 -224t-95 -185t-133.5 -143t-180.5 -89t-234 -32q-246 0 -356.5 110t-110.5 315z M921 1627l381 274l48 -73l-381 -274z" />
<glyph unicode="&#xdb;" horiz-adv-x="1525" d="M308 398q0 112 31 258l166 778h122l-166 -779q-31 -144 -31 -247q0 -163 83 -243.5t269 -80.5q129 0 227 38.5t166.5 116t113.5 181t75 245.5l163 769h122l-167 -788q-27 -125 -64 -224t-95 -185t-133.5 -143t-180.5 -89t-234 -32q-246 0 -356.5 110t-110.5 315z M793 1607l375 314l247 -314l-73 -63l-194 253l-302 -253z" />
<glyph unicode="&#xdc;" horiz-adv-x="1525" d="M308 398q0 112 31 258l166 778h122l-166 -779q-31 -144 -31 -247q0 -163 83 -243.5t269 -80.5q129 0 227 38.5t166.5 116t113.5 181t75 245.5l163 769h122l-167 -788q-27 -125 -64 -224t-95 -185t-133.5 -143t-180.5 -89t-234 -32q-246 0 -356.5 110t-110.5 315z M861 1704q0 27 19.5 47t52.5 20q29 0 45.5 -16.5t16.5 -40.5q0 -27 -19.5 -47t-52.5 -20q-29 0 -45.5 16.5t-16.5 40.5zM1257 1704q0 27 19 47t52 20q30 0 46.5 -16.5t16.5 -40.5q0 -27 -19.5 -47t-52.5 -20q-29 0 -45.5 16.5t-16.5 40.5z" />
<glyph unicode="&#xdd;" horiz-adv-x="1413" d="M394 1434h137l318 -750l639 750h144l-741 -863l-123 -571h-122l123 572zM864 1627l381 274l49 -73l-381 -274z" />
<glyph unicode="&#xde;" horiz-adv-x="1417" d="M200 0l305 1434h122l-51 -238h465q189 0 292 -96.5t103 -261.5q0 -56 -14 -124q-45 -212 -196 -337.5t-377 -125.5h-474l-53 -251h-122zM397 352h453q175 0 295.5 103t158.5 279q11 55 11 99q0 123 -77 192.5t-222 69.5h-461z" />
<glyph unicode="&#xdf;" horiz-adv-x="1374" d="M181 1l232 1095q20 85 58 149.5t86.5 104.5t114 65t133 34.5t150.5 9.5q93 0 164 -13t128.5 -43t88 -85t30.5 -134q0 -57 -12 -112q-28 -134 -97.5 -210t-181.5 -111q273 -43 273 -275q0 -53 -13 -112q-17 -79 -48.5 -140t-77 -102t-98 -68t-120.5 -42t-134.5 -20.5 t-149.5 -5.5h-242l23 104h236q83 0 146 7t123.5 27t103 53.5t74.5 87.5t48 129q10 46 10 87q0 61 -24 102.5t-73.5 64.5t-110.5 32t-148 10h-41l21 102h16q72 3 128 18.5t104.5 47.5t82 88.5t50.5 136.5q10 46 10 86q0 55 -20 92t-61 57t-91.5 28t-121.5 8q-174 0 -278 -61 t-140 -214l-230 -1078h-121z" />
<glyph unicode="&#xe0;" horiz-adv-x="1251" d="M214 363q0 75 18 161q53 250 198 388.5t369 138.5q103 0 181 -39.5t182 -148.5l41 161h106l-217 -1024h-106l30 149q-173 -174 -408 -174q-190 0 -292 103t-102 285zM330 370q0 -141 78 -220.5t233 -79.5q223 0 387 191l113 513q-97 111 -163.5 146.5t-155.5 35.5 q-195 0 -313 -118.5t-164 -334.5q-15 -71 -15 -133zM707 1418l75 73l271 -273l-74 -74z" />
<glyph unicode="&#xe1;" horiz-adv-x="1251" d="M214 363q0 75 18 161q53 250 198 388.5t369 138.5q103 0 181 -39.5t182 -148.5l41 161h106l-217 -1024h-106l30 149q-173 -174 -408 -174q-190 0 -292 103t-102 285zM330 370q0 -141 78 -220.5t233 -79.5q223 0 387 191l113 513q-97 111 -163.5 146.5t-155.5 35.5 q-195 0 -313 -118.5t-164 -334.5q-15 -71 -15 -133zM670 1218l381 273l49 -73l-381 -274z" />
<glyph unicode="&#xe2;" horiz-adv-x="1251" d="M214 363q0 75 18 161q53 250 198 388.5t369 138.5q103 0 181 -39.5t182 -148.5l41 161h106l-217 -1024h-106l30 149q-173 -174 -408 -174q-190 0 -292 103t-102 285zM330 370q0 -141 78 -220.5t233 -79.5q223 0 387 191l113 513q-97 111 -163.5 146.5t-155.5 35.5 q-195 0 -313 -118.5t-164 -334.5q-15 -71 -15 -133zM542 1198l375 314l248 -314l-74 -63l-194 253l-302 -253z" />
<glyph unicode="&#xe3;" horiz-adv-x="1251" d="M214 363q0 75 18 161q53 250 198 388.5t369 138.5q103 0 181 -39.5t182 -148.5l41 161h106l-217 -1024h-106l30 149q-173 -174 -408 -174q-190 0 -292 103t-102 285zM330 370q0 -141 78 -220.5t233 -79.5q223 0 387 191l113 513q-97 111 -163.5 146.5t-155.5 35.5 q-195 0 -313 -118.5t-164 -334.5q-15 -71 -15 -133zM598 1304q83 124 172 124q52 0 129 -49q73 -43 112 -43q55 0 102 73l64 -47q-69 -108 -154 -108q-55 0 -134 49q-69 42 -107 42q-60 0 -121 -90z" />
<glyph unicode="&#xe4;" horiz-adv-x="1251" d="M214 363q0 75 18 161q53 250 198 388.5t369 138.5q103 0 181 -39.5t182 -148.5l41 161h106l-217 -1024h-106l30 149q-173 -174 -408 -174q-190 0 -292 103t-102 285zM330 370q0 -141 78 -220.5t233 -79.5q223 0 387 191l113 513q-97 111 -163.5 146.5t-155.5 35.5 q-195 0 -313 -118.5t-164 -334.5q-15 -71 -15 -133zM611 1295q0 27 19 47t52 20q30 0 46 -16t16 -41q0 -27 -19 -47.5t-52 -20.5q-29 0 -45.5 16.5t-16.5 41.5zM1006 1295q0 27 19.5 47t52.5 20q30 0 46 -16t16 -41q0 -27 -19.5 -47.5t-52.5 -20.5q-29 0 -45.5 16.5 t-16.5 41.5z" />
<glyph unicode="&#xe5;" horiz-adv-x="1251" d="M214 363q0 75 18 161q53 250 198 388.5t369 138.5q103 0 181 -39.5t182 -148.5l41 161h106l-217 -1024h-106l30 149q-173 -174 -408 -174q-190 0 -292 103t-102 285zM330 370q0 -141 78 -220.5t233 -79.5q223 0 387 191l113 513q-97 111 -163.5 146.5t-155.5 35.5 q-195 0 -313 -118.5t-164 -334.5q-15 -71 -15 -133zM655 1306q0 99 82 176t186 77q84 0 137.5 -52.5t53.5 -130.5q0 -99 -81.5 -176t-185.5 -77q-84 0 -138 52.5t-54 130.5zM727 1301q0 -49 33.5 -80.5t83.5 -31.5q63 0 121.5 47t73.5 115q3 15 3 30q0 50 -33 81t-83 31 q-63 0 -122 -47t-74 -115q-3 -15 -3 -30z" />
<glyph unicode="&#xe6;" horiz-adv-x="2117" d="M214 363q0 75 18 161q53 250 198 388.5t369 138.5q103 0 181 -39.5t182 -148.5l41 161h107l-56 -247q79 129 205 202.5t286 73.5q256 0 361 -122q62 -70 62 -171q0 -52 -16 -109q-76 -256 -554 -256q-124 0 -373 28q-3 -26 -3 -50q0 -145 88 -226t249 -81q180 0 350 85 l44 -70q-180 -106 -407 -106q-168 0 -269.5 76.5t-126.5 209.5l-58 -261h-106l30 149q-173 -174 -408 -174q-190 0 -292 103t-102 285zM330 370q0 -141 78 -220.5t233 -79.5q223 0 387 191l113 513q-97 111 -163.5 146.5t-155.5 35.5q-195 0 -313 -118.5t-164 -334.5 q-15 -71 -15 -133zM1234 496q177 -29 330 -29q419 0 480 210q14 48 14 85q0 102 -86.5 153t-230.5 51q-190 0 -321 -116.5t-173 -306.5q-1 -4 -5 -20.5t-8 -26.5z" />
<glyph unicode="&#xe7;" horiz-adv-x="1058" d="M217 385q0 67 15 137q24 111 79.5 207t136.5 168t190.5 113t233.5 41q93 0 166 -22t115 -57l-75 -68q-57 51 -202 51q-199 0 -343.5 -127t-187.5 -327q-13 -58 -13 -114q0 -148 89.5 -233.5t248.5 -85.5q60 0 129.5 17t117.5 47l54 -83q-60 -34 -139 -53.5t-146 -22.5 q-58 0 -106 9l-100 -107q18 2 26 2q9 0 27 -2q70 -4 112 -40.5t42 -100.5q0 -104 -77.5 -165t-188.5 -61q-66 0 -114.5 23t-68.5 63l54 39q27 -53 120 -53q71 0 122 36t64 99q3 15 3 27q0 42 -32 65t-90 23q-36 0 -68 -10l-35 22l127 151q-137 36 -211.5 139.5t-74.5 252.5z " />
<glyph unicode="&#xe8;" horiz-adv-x="1224" d="M216 382q0 70 16 143q49 232 214.5 380t407.5 148q136 0 232.5 -39t142.5 -111q48 -60 48 -146q0 -51 -16 -106q-77 -258 -561 -258q-138 0 -367 30q-2 -17 -2 -50q0 -146 87.5 -226.5t248.5 -80.5q181 0 351 85l44 -70q-180 -106 -407 -106q-211 0 -325 110.5 t-114 296.5zM344 497q167 -30 332 -30q84 0 156 9.5t140.5 32t116 65.5t64.5 103q13 45 13 84q0 103 -85.5 154t-230.5 51q-188 0 -319 -115.5t-175 -302.5zM721 1418l75 73l271 -273l-75 -74z" />
<glyph unicode="&#xe9;" horiz-adv-x="1224" d="M216 382q0 70 16 143q49 232 214.5 380t407.5 148q136 0 232.5 -39t142.5 -111q48 -60 48 -146q0 -51 -16 -106q-77 -258 -561 -258q-138 0 -367 30q-2 -17 -2 -50q0 -146 87.5 -226.5t248.5 -80.5q181 0 351 85l44 -70q-180 -106 -407 -106q-211 0 -325 110.5 t-114 296.5zM344 497q167 -30 332 -30q84 0 156 9.5t140.5 32t116 65.5t64.5 103q13 45 13 84q0 103 -85.5 154t-230.5 51q-188 0 -319 -115.5t-175 -302.5zM684 1218l381 273l49 -73l-381 -274z" />
<glyph unicode="&#xea;" horiz-adv-x="1224" d="M216 382q0 70 16 143q49 232 214.5 380t407.5 148q136 0 232.5 -39t142.5 -111q48 -60 48 -146q0 -51 -16 -106q-77 -258 -561 -258q-138 0 -367 30q-2 -17 -2 -50q0 -146 87.5 -226.5t248.5 -80.5q181 0 351 85l44 -70q-180 -106 -407 -106q-211 0 -325 110.5 t-114 296.5zM344 497q167 -30 332 -30q84 0 156 9.5t140.5 32t116 65.5t64.5 103q13 45 13 84q0 103 -85.5 154t-230.5 51q-188 0 -319 -115.5t-175 -302.5zM556 1198l375 314l247 -314l-73 -63l-194 253l-302 -253z" />
<glyph unicode="&#xeb;" horiz-adv-x="1224" d="M216 382q0 70 16 143q49 232 214.5 380t407.5 148q136 0 232.5 -39t142.5 -111q48 -60 48 -146q0 -51 -16 -106q-77 -258 -561 -258q-138 0 -367 30q-2 -17 -2 -50q0 -146 87.5 -226.5t248.5 -80.5q181 0 351 85l44 -70q-180 -106 -407 -106q-211 0 -325 110.5 t-114 296.5zM344 497q167 -30 332 -30q84 0 156 9.5t140.5 32t116 65.5t64.5 103q13 45 13 84q0 103 -85.5 154t-230.5 51q-188 0 -319 -115.5t-175 -302.5zM624 1295q0 27 19.5 47t52.5 20q30 0 46 -16t16 -41q0 -27 -19.5 -47.5t-52.5 -20.5q-29 0 -45.5 16.5t-16.5 41.5z M1020 1295q0 27 19.5 47t52.5 20q30 0 46 -16t16 -41q0 -27 -19.5 -47.5t-52.5 -20.5q-29 0 -45.5 16.5t-16.5 41.5z" />
<glyph unicode="&#xec;" horiz-adv-x="468" d="M185 0l217 1024h118l-218 -1024h-117zM352 1418l75 73l271 -273l-75 -74z" />
<glyph unicode="&#xed;" horiz-adv-x="468" d="M185 0l217 1024h118l-218 -1024h-117zM315 1218l381 273l48 -73l-381 -274z" />
<glyph unicode="&#xee;" horiz-adv-x="468" d="M185 0l217 1024h118l-218 -1024h-117zM186 1198l376 314l247 -314l-73 -63l-194 253l-303 -253z" />
<glyph unicode="&#xef;" horiz-adv-x="468" d="M185 0l217 1024h118l-218 -1024h-117zM255 1295q0 26 20 46.5t52 20.5q29 0 45.5 -16t16.5 -41q0 -27 -19.5 -47.5t-52.5 -20.5q-29 0 -45.5 17t-16.5 41zM651 1295q0 27 19 47t52 20q30 0 46.5 -16.5t16.5 -40.5q0 -27 -19.5 -47.5t-52.5 -20.5q-29 0 -45.5 16.5 t-16.5 41.5z" />
<glyph unicode="&#xf0;" horiz-adv-x="1228" d="M175 329q0 77 18 159q24 114 68.5 198.5t100.5 137t131.5 85t153 44.5t173.5 12q88 0 149.5 -9t116.5 -32.5t90.5 -69.5t53.5 -117q13 36 27 102q38 178 38 289q0 81 -20 137l-254 -137l-34 77l255 132q-68 123 -282 123q-105 0 -190.5 -23.5t-171.5 -78.5l-40 85 q99 62 194 88.5t211 26.5q294 0 388 -166l169 90l34 -76l-169 -92q23 -73 23 -173q0 -142 -52 -389q-21 -100 -43.5 -180t-55 -161.5t-71.5 -143t-92.5 -116.5t-117.5 -90t-147.5 -55t-182.5 -20q-108 0 -189 16t-147 53.5t-100.5 106t-34.5 167.5zM288 334q0 -74 25 -124.5 t75 -77t112 -37.5t150 -11q118 0 209 34.5t155 102.5t108 154.5t78 206.5q-5 75 -24 126.5t-47 83t-75.5 48.5t-97 22.5t-122.5 5.5q-85 0 -152 -10.5t-130.5 -38t-109.5 -72.5t-82.5 -115.5t-56.5 -166.5q-15 -68 -15 -131z" />
<glyph unicode="&#xf1;" horiz-adv-x="1271" d="M174 0l218 1024h106l-32 -154q133 97 226.5 139.5t202.5 42.5q98 0 180.5 -33t136.5 -103.5t54 -167.5q0 -39 -9 -81l-142 -667h-118l140 656q7 34 7 68q0 112 -81 172t-199 60q-97 0 -182.5 -41t-222.5 -145l-167 -770h-118zM645 1304q83 124 172 124q52 0 127 -49 q75 -43 114 -43q55 0 102 73l64 -47q-69 -108 -154 -108q-53 0 -136 50q-68 41 -105 41q-60 0 -121 -90z" />
<glyph unicode="&#xf2;" horiz-adv-x="1312" d="M216 382q0 62 16 140q50 233 221 381t418 148q213 0 328.5 -109.5t115.5 -296.5q0 -70 -16 -143q-50 -237 -219.5 -383t-420.5 -146q-214 0 -328.5 111.5t-114.5 297.5zM331 382q0 -146 86.5 -230t245.5 -84q201 0 340 123t183 331q14 68 14 124q0 147 -86.5 228.5 t-245.5 81.5q-198 0 -339 -125t-184 -329q-14 -65 -14 -120zM765 1418l75 73l271 -273l-75 -74z" />
<glyph unicode="&#xf3;" horiz-adv-x="1312" d="M216 382q0 62 16 140q50 233 221 381t418 148q213 0 328.5 -109.5t115.5 -296.5q0 -70 -16 -143q-50 -237 -219.5 -383t-420.5 -146q-214 0 -328.5 111.5t-114.5 297.5zM331 382q0 -146 86.5 -230t245.5 -84q201 0 340 123t183 331q14 68 14 124q0 147 -86.5 228.5 t-245.5 81.5q-198 0 -339 -125t-184 -329q-14 -65 -14 -120zM728 1218l381 273l48 -73l-381 -274z" />
<glyph unicode="&#xf4;" horiz-adv-x="1312" d="M216 382q0 62 16 140q50 233 221 381t418 148q213 0 328.5 -109.5t115.5 -296.5q0 -70 -16 -143q-50 -237 -219.5 -383t-420.5 -146q-214 0 -328.5 111.5t-114.5 297.5zM331 382q0 -146 86.5 -230t245.5 -84q201 0 340 123t183 331q14 68 14 124q0 147 -86.5 228.5 t-245.5 81.5q-198 0 -339 -125t-184 -329q-14 -65 -14 -120zM600 1198l375 314l247 -314l-73 -63l-194 253l-302 -253z" />
<glyph unicode="&#xf5;" horiz-adv-x="1312" d="M216 382q0 62 16 140q50 233 221 381t418 148q213 0 328.5 -109.5t115.5 -296.5q0 -70 -16 -143q-50 -237 -219.5 -383t-420.5 -146q-214 0 -328.5 111.5t-114.5 297.5zM331 382q0 -146 86.5 -230t245.5 -84q201 0 340 123t183 331q14 68 14 124q0 147 -86.5 228.5 t-245.5 81.5q-198 0 -339 -125t-184 -329q-14 -65 -14 -120zM655 1304q84 124 173 124q53 0 125 -47q80 -45 116 -45q54 0 102 74l63 -48q-69 -108 -153 -108q-53 0 -136 50q-68 41 -105 41q-60 0 -121 -90z" />
<glyph unicode="&#xf6;" horiz-adv-x="1312" d="M216 382q0 62 16 140q50 233 221 381t418 148q213 0 328.5 -109.5t115.5 -296.5q0 -70 -16 -143q-50 -237 -219.5 -383t-420.5 -146q-214 0 -328.5 111.5t-114.5 297.5zM331 382q0 -146 86.5 -230t245.5 -84q201 0 340 123t183 331q14 68 14 124q0 147 -86.5 228.5 t-245.5 81.5q-198 0 -339 -125t-184 -329q-14 -65 -14 -120zM668 1295q0 27 19.5 47t52.5 20q30 0 46 -16t16 -41q0 -27 -19.5 -47.5t-52.5 -20.5q-29 0 -45.5 16.5t-16.5 41.5zM1064 1295q0 27 19 47t52 20q30 0 46.5 -16.5t16.5 -40.5q0 -27 -19.5 -47.5t-52.5 -20.5 q-29 0 -45.5 16.5t-16.5 41.5z" />
<glyph unicode="&#xf7;" horiz-adv-x="1009" d="M229 645l21 98h825l-21 -98h-825zM515 357q0 27 19 47t52 20q30 0 46.5 -16.5t16.5 -40.5q0 -27 -19.5 -47t-52.5 -20q-29 0 -45.5 16t-16.5 41zM656 1022q0 26 19.5 46t52.5 20q30 0 46 -16t16 -41q0 -26 -19.5 -46t-52.5 -20q-30 0 -46 16.5t-16 40.5z" />
<glyph unicode="&#xf8;" horiz-adv-x="1312" d="M216 382q0 62 16 140q50 233 221 381t418 148q99 0 176 -24l65 99h107l-88 -134q90 -51 137 -140t47 -207q0 -70 -16 -143q-50 -237 -219.5 -383t-420.5 -146q-95 0 -175 25l-65 -100h-107l89 135q-91 51 -138 141.5t-47 207.5zM331 382q0 -181 126 -261l534 819 q-58 16 -123 16q-198 0 -339 -125t-184 -329q-14 -65 -14 -120zM541 84q58 -16 122 -16q201 0 340 123t183 331q14 68 14 124q0 178 -126 258z" />
<glyph unicode="&#xf9;" horiz-adv-x="1253" d="M223 276q0 39 9 81l142 667h118l-140 -656q-7 -34 -7 -68q0 -112 81 -172t199 -60q97 0 183 41t223 145l166 770h118l-218 -1024h-105l31 154q-134 -98 -227.5 -140.5t-201.5 -42.5q-57 0 -111 12t-101.5 37.5t-82.5 61t-55.5 85.5t-20.5 109zM739 1418l75 73l271 -273 l-75 -74z" />
<glyph unicode="&#xfa;" horiz-adv-x="1253" d="M223 276q0 39 9 81l142 667h118l-140 -656q-7 -34 -7 -68q0 -112 81 -172t199 -60q97 0 183 41t223 145l166 770h118l-218 -1024h-105l31 154q-134 -98 -227.5 -140.5t-201.5 -42.5q-57 0 -111 12t-101.5 37.5t-82.5 61t-55.5 85.5t-20.5 109zM702 1218l381 273l49 -73 l-381 -274z" />
<glyph unicode="&#xfb;" horiz-adv-x="1253" d="M223 276q0 39 9 81l142 667h118l-140 -656q-7 -34 -7 -68q0 -112 81 -172t199 -60q97 0 183 41t223 145l166 770h118l-218 -1024h-105l31 154q-134 -98 -227.5 -140.5t-201.5 -42.5q-57 0 -111 12t-101.5 37.5t-82.5 61t-55.5 85.5t-20.5 109zM574 1198l375 314l248 -314 l-74 -63l-194 253l-302 -253z" />
<glyph unicode="&#xfc;" horiz-adv-x="1253" d="M223 276q0 39 9 81l142 667h118l-140 -656q-7 -34 -7 -68q0 -112 81 -172t199 -60q97 0 183 41t223 145l166 770h118l-218 -1024h-105l31 154q-134 -98 -227.5 -140.5t-201.5 -42.5q-57 0 -111 12t-101.5 37.5t-82.5 61t-55.5 85.5t-20.5 109zM642 1295q0 27 19.5 47 t52.5 20q30 0 46 -16t16 -41q0 -27 -19.5 -47.5t-52.5 -20.5q-29 0 -45.5 16.5t-16.5 41.5zM1038 1295q0 27 19.5 47t52.5 20q30 0 46 -16t16 -41q0 -27 -19.5 -47.5t-52.5 -20.5q-29 0 -45.5 16.5t-16.5 41.5z" />
<glyph unicode="&#xfd;" horiz-adv-x="1118" d="M-20 -508l8 90q154 0 267 74q109 54 189 186l100 158h-20l-203 1024h118l171 -907l553 907h123l-756 -1229q-92 -150 -238 -235q-139 -68 -312 -68zM628 1218l381 273l48 -73l-381 -274z" />
<glyph unicode="&#xfe;" horiz-adv-x="1284" d="M89 -487l408 1921h117l-120 -552q171 167 400 167q192 0 293 -102t101 -283q0 -76 -18 -164q-53 -250 -198.5 -388.5t-369.5 -138.5q-99 0 -176 37t-180 143l-140 -640h-117zM361 250q97 -111 163.5 -146.5t155.5 -35.5q195 0 313 118.5t164 334.5q15 71 15 133 q0 141 -78.5 220.5t-233.5 79.5q-222 0 -386 -191z" />
<glyph unicode="&#xff;" horiz-adv-x="1118" d="M-20 -508l8 90q154 0 267 74q109 54 189 186l100 158h-20l-203 1024h118l171 -907l553 907h123l-756 -1229q-92 -150 -238 -235q-139 -68 -312 -68zM568 1295q0 27 19.5 47t52.5 20q30 0 46 -16t16 -41q0 -27 -19.5 -47.5t-52.5 -20.5q-29 0 -45.5 16.5t-16.5 41.5z M964 1295q0 27 19 47t52 20q30 0 46.5 -16.5t16.5 -40.5q0 -27 -19.5 -47.5t-52.5 -20.5q-29 0 -45.5 16.5t-16.5 41.5z" />
<glyph unicode="&#x152;" horiz-adv-x="2473" d="M277 533q0 93 21 195q33 157 109.5 290.5t186.5 231.5t257 153t314 55q227 0 361 -108.5t159 -293.5l83 378h896l-22 -103h-774l-115 -541h709l-21 -102h-709l-125 -586h774l-22 -102h-896l83 371q-104 -185 -280 -290.5t-399 -105.5q-282 0 -436 151.5t-154 406.5z M396 533q0 -211 124 -332.5t352 -121.5q286 0 484.5 177t261.5 472q20 94 20 174q0 210 -123.5 331.5t-354.5 121.5q-283 0 -482.5 -178t-261.5 -469q-20 -95 -20 -175z" />
<glyph unicode="&#x153;" horiz-adv-x="2185" d="M216 382q0 62 16 140q50 233 221 381t418 148q185 0 291 -88t118 -240q79 154 215.5 242t313.5 88q200 0 306 -88t106 -255q0 -64 -16 -137q-12 -62 -39 -129h-880q-3 -22 -3 -63q0 -150 88 -232.5t251 -82.5q184 0 351 85l43 -70q-180 -106 -407 -106q-183 0 -288 89 t-117 241q-81 -157 -221.5 -244.5t-323.5 -87.5q-214 0 -328.5 111.5t-114.5 297.5zM331 382q0 -146 86.5 -230t245.5 -84q201 0 340 123t183 331q14 68 14 124q0 147 -86.5 228.5t-245.5 81.5q-198 0 -339 -125t-184 -329q-14 -65 -14 -120zM1305 523h778q19 55 27 96 q11 60 11 102q0 125 -79 183t-233 58q-192 0 -324 -116t-174 -299z" />
<glyph unicode="&#x178;" horiz-adv-x="1413" d="M394 1434h137l318 -750l639 750h144l-741 -863l-123 -571h-122l123 572zM804 1704q0 27 19.5 47t52.5 20q30 0 46 -16.5t16 -40.5q0 -27 -19 -47t-52 -20q-30 0 -46.5 16.5t-16.5 40.5zM1200 1704q0 27 19.5 47t52.5 20q30 0 46 -16.5t16 -40.5q0 -27 -19.5 -47 t-52.5 -20q-30 0 -46 16.5t-16 40.5z" />
<glyph unicode="&#x2c6;" horiz-adv-x="806" d="M347 1198l375 314l247 -314l-73 -63l-194 253l-302 -253z" />
<glyph unicode="&#x2dc;" horiz-adv-x="747" d="M368 1304q83 124 172 124q54 0 131 -51q71 -41 110 -41q55 0 102 73l64 -47q-69 -108 -154 -108q-51 0 -128 47q-73 44 -113 44q-60 0 -121 -90z" />
<glyph unicode="&#x2000;" horiz-adv-x="984" />
<glyph unicode="&#x2001;" horiz-adv-x="1969" />
<glyph unicode="&#x2002;" horiz-adv-x="984" />
<glyph unicode="&#x2003;" horiz-adv-x="1969" />
<glyph unicode="&#x2004;" horiz-adv-x="656" />
<glyph unicode="&#x2005;" horiz-adv-x="492" />
<glyph unicode="&#x2006;" horiz-adv-x="328" />
<glyph unicode="&#x2007;" horiz-adv-x="328" />
<glyph unicode="&#x2008;" horiz-adv-x="246" />
<glyph unicode="&#x2009;" horiz-adv-x="393" />
<glyph unicode="&#x200a;" horiz-adv-x="109" />
<glyph unicode="&#x2010;" horiz-adv-x="944" d="M233 660l21 99h758l-21 -99h-758z" />
<glyph unicode="&#x2011;" horiz-adv-x="944" d="M233 660l21 99h758l-21 -99h-758z" />
<glyph unicode="&#x2012;" horiz-adv-x="944" d="M233 660l21 99h758l-21 -99h-758z" />
<glyph unicode="&#x2013;" horiz-adv-x="1083" d="M233 660l21 99h898l-21 -99h-898z" />
<glyph unicode="&#x2014;" horiz-adv-x="1347" d="M233 660l21 99h1163l-21 -99h-1163z" />
<glyph unicode="&#x2018;" horiz-adv-x="331" d="M396 1405q0 25 6 50q13 59 39.5 89t82.5 30h24l-19 -53h-7q-24 -1 -37.5 -18t-21.5 -53l-1 -6q4 2 9 2q30 0 46.5 -16.5t16.5 -40.5q0 -27 -19.5 -47t-52.5 -20q-37 0 -53 28q-13 22 -13 55z" />
<glyph unicode="&#x2019;" horiz-adv-x="331" d="M399 1322l20 53h7q24 1 37 17.5t21 53.5l1 5q-4 -2 -9 -2q-29 0 -45.5 16.5t-16.5 41.5q0 27 19.5 47t52.5 20q37 0 53 -28q12 -20 12 -55q0 -29 -5 -50q-13 -59 -39.5 -89t-82.5 -30h-25z" />
<glyph unicode="&#x201a;" horiz-adv-x="331" d="M89 -141l19 53h7q25 1 38 18t21 54l1 4h-9q-30 0 -46.5 16t-16.5 40q0 27 19.5 47t52.5 20q37 0 53 -28q13 -22 13 -54q0 -25 -6 -49q-13 -60 -39 -90.5t-83 -30.5h-24z" />
<glyph unicode="&#x201c;" horiz-adv-x="608" d="M396 1405q0 25 6 50q13 59 39.5 89t82.5 30h24l-19 -53h-7q-24 -1 -37.5 -18t-21.5 -53l-1 -6q4 2 9 2q30 0 46.5 -16.5t16.5 -40.5q0 -27 -19.5 -47t-52.5 -20q-37 0 -53 28q-13 22 -13 55zM673 1404q0 29 5 50q13 59 39.5 89t82.5 30h25l-20 -53h-7q-24 -1 -37 -17.5 t-21 -53.5l-1 -5q4 2 9 2q29 0 45.5 -16.5t16.5 -41.5q0 -27 -19.5 -47t-52.5 -20q-37 0 -53 28q-12 20 -12 55z" />
<glyph unicode="&#x201d;" horiz-adv-x="608" d="M399 1322l20 53h7q24 1 37 17.5t21 53.5l1 5q-4 -2 -9 -2q-29 0 -45.5 16.5t-16.5 41.5q0 27 19.5 47t52.5 20q37 0 53 -28q12 -20 12 -55q0 -29 -5 -50q-13 -59 -39.5 -89t-82.5 -30h-25zM676 1323l19 52h7q24 1 37.5 18t21.5 53l1 6q-4 -2 -9 -2q-30 0 -46.5 16.5 t-16.5 40.5q0 27 19.5 47t52.5 20q37 0 53 -28q13 -22 13 -55q0 -23 -6 -49q-13 -59 -39.5 -89t-82.5 -30h-24z" />
<glyph unicode="&#x201e;" horiz-adv-x="608" d="M89 -141l19 53h7q25 1 38 18t21 54l1 4h-9q-30 0 -46.5 16t-16.5 40q0 27 19.5 47t52.5 20q37 0 53 -28q13 -22 13 -54q0 -25 -6 -49q-13 -60 -39 -90.5t-83 -30.5h-24zM365 -141l19 53h8q24 1 37 18t21 54l1 4h-9q-30 0 -46 16t-16 40q0 27 19 47t52 20q38 0 54 -28 q12 -20 12 -54q0 -25 -6 -49q-13 -60 -39 -90.5t-83 -30.5h-24z" />
<glyph unicode="&#x2022;" horiz-adv-x="589" d="M219 575q0 91 71.5 160.5t167.5 69.5q78 0 125 -47t47 -118q0 -91 -71.5 -160.5t-167.5 -69.5q-78 0 -125 47t-47 118z" />
<glyph unicode="&#x2026;" horiz-adv-x="1087" d="M104 48q0 27 19.5 47t52.5 20q30 0 46 -16.5t16 -40.5q0 -26 -19.5 -47t-52.5 -21q-29 0 -45.5 16.5t-16.5 41.5zM488 48q0 27 19.5 47t52.5 20q30 0 46 -16.5t16 -40.5q0 -26 -19.5 -47t-51.5 -21q-29 0 -46 17t-17 41zM873 48q0 27 19 47t52 20q30 0 46.5 -16.5 t16.5 -40.5q0 -26 -19.5 -47t-52.5 -21q-29 0 -45.5 16.5t-16.5 41.5z" />
<glyph unicode="&#x202f;" horiz-adv-x="393" />
<glyph unicode="&#x2039;" horiz-adv-x="704" d="M220 600l542 480l67 -61l-472 -419l294 -418l-87 -61z" />
<glyph unicode="&#x203a;" horiz-adv-x="704" d="M131 182l472 418l-294 419l86 61l345 -480l-543 -479z" />
<glyph unicode="&#x205f;" horiz-adv-x="492" />
<glyph unicode="&#x20ac;" horiz-adv-x="1331" d="M201 511l19 92h123q13 81 21 120l13 57h-119l19 92h128q32 108 72.5 193.5t100.5 161t135.5 125.5t178 78.5t227.5 28.5q275 0 398 -138l-79 -68q-97 105 -317 105q-126 0 -223.5 -34t-166 -100.5t-114 -152t-78.5 -200.5h687l-20 -91h-703l-15 -68q-19 -94 -21 -110h622 l-20 -92h-610q-5 -50 -5 -86q0 -170 85.5 -258.5t285.5 -88.5q223 0 378 110l61 -80q-171 -132 -443 -132q-109 0 -192.5 21.5t-139 59.5t-91 94.5t-50.5 123t-15 148.5q0 48 4 89h-136z" />
<glyph unicode="&#x2122;" horiz-adv-x="1798" d="M381 1356l16 78h676l-17 -78h-292l-154 -728h-92l154 728h-291zM1033 628l171 806h104l151 -687l446 687h105l-171 -806h-92l131 607l-399 -606h-83l-140 606l-131 -607h-92z" />
<glyph unicode="&#x25fc;" horiz-adv-x="1024" d="M0 0v1024h1024v-1024h-1024z" />
<glyph unicode="&#xfb03;" horiz-adv-x="2093" d="M148 -512l307 1445h-187l19 92h188q57 264 227 392q167 123 418 114l-10 -89q-194 0 -332 -108q-143 -107 -186 -309h682q58 272 239 398q166 116 407 108l-10 -89q-192 0 -330 -106q-143 -106 -188 -312h740l-217 -1024h-118l199 933h-624l-307 -1445h-117l307 1445 h-682l-307 -1445h-118zM2068 1327q0 29 23 50.5t54 21.5q28 0 46.5 -18t18.5 -44q0 -29 -23 -50.5t-53 -21.5q-28 0 -47 18t-19 44z" />
<glyph unicode="&#xfb04;" horiz-adv-x="2299" d="M148 -512l307 1445h-187l19 92h188q57 265 231 392q169 122 414 114l-10 -89q-197 0 -333 -107q-142 -108 -185 -310h682q58 270 236 395q165 118 404 113h321l-236 -1108q-15 -72 -15 -131q0 -83 30 -134q63 -80 221 -80l-11 -92q-210 -3 -292 111q-64 71 -64 201 q0 57 16 135l214 1007h-188q-195 0 -333 -107q-140 -104 -185 -311h339l-20 -91h-339l-307 -1445h-117l307 1445h-682l-307 -1445h-118z" />
</font>
</defs>
</svg>
