<?xml version="1.0" standalone="no"?>
<!DOCTYPE svg PUBLIC "-//W3C//DTD SVG 1.1//EN" "http://www.w3.org/Graphics/SVG/1.1/DTD/svg11.dtd" >
<svg xmlns="http://www.w3.org/2000/svg" xmlns:xlink="http://www.w3.org/1999/xlink" version="1.1">
<metadata></metadata>
<defs>
<font id="typical_writerregular" horiz-adv-x="1226" >
<font-face units-per-em="2048" ascent="1638" descent="-410" />
<missing-glyph horiz-adv-x="1024" />
<glyph horiz-adv-x="0" />
<glyph horiz-adv-x="682" />
<glyph unicode=" "  horiz-adv-x="1024" />
<glyph unicode="&#x09;" horiz-adv-x="1024" />
<glyph unicode="&#xa0;" horiz-adv-x="1024" />
<glyph unicode="!" d="M449 92q0 68 122 209l164 -49l58 -107l-41 -157q-98 -16 -111 -17q-66 0 -123 29q-70 35 -69 92zM471 956q0 57 29.5 128t72.5 108h97l125 -143q-84 -147 -84 -258q0 -20 22 -52q0 -55 -10 -167.5t-10 -168.5q-74 -25 -123 -30q-53 55 -70 170q-6 47 -6 188l18 17 q-4 12 -34 110q-27 86 -27 98z" />
<glyph unicode="&#x22;" horiz-adv-x="1220" d="M274 1292l84 54h127l90 -111l-18 -14l39 -113h-16l-17 -18l-37 36l-43 -45l-26 -139l26 -39v-72l-28 -18l28 -27v-34l-34 -29h-72q-35 178 -35 242q0 4 20 108q-51 41 -65 211zM664 1276q14 18 52 45t52 25l113 -21q18 -68 18 -76q0 -378 -45 -458l25 -21 q-29 -47 -54 -70h-71l-19 64q-14 55 -14 63q0 2 20 101l-51 106h47q-12 47 -73 242z" />
<glyph unicode="#" horiz-adv-x="1232" d="M113 444l16 29q66 -2 143 4l21 -10l47 8l27 123l34 31l11 86h-74l-6 -8q-90 0 -178 4l-37 37l12 26q61 -10 297 -10l25 74l-37 -25q41 76 123 227h49l-19 -98l-24 -12l-17 -27l33 -53q-39 -35 -88 -113q66 23 150 21l12 -19l-10 -20l-78 2q-76 -104 -115 -262l51 28 l21 -16l243 18q10 51 19 76q16 47 39 66l6 41l-37 57l-70 -14q51 31 95 30l12 -2q41 139 100 232l-10 20l12 11l-8 55q96 98 94 268l58 4q-31 -182 -123 -432l33 -55l-19 8l-14 -96q98 4 223 2l-18 -31q-98 4 -138 -2q-57 -6 -127 -41l-24 -162h4l-10 -35h86l6 7 q90 2 178 -7l37 -34l-12 -29q-66 12 -332 12q-41 -199 -123 -518l-55 -22q-12 4 -19 -4l-18 6l-2 16q0 96 44 244.5t99 228.5v49l53 37q-59 -4 -185 -12t-177 -31l-10 -94l-6 -2l-35 -78q8 -18 8 -43q0 -41 -64 -186l7 -15h-7q-12 -43 -28 -69q-66 -10 -113 -11l47 183 l-8 26l80 176l-4 17l37 51l6 57q-100 -10 -219 0zM584 1274l12 4v49h2l41 57q12 -12 23 -26l-25 -109l-51 -2z" />
<glyph unicode="$" horiz-adv-x="1220" d="M188 37q0 31 19.5 87t19.5 87q0 88 -22 176l18 16q63 -2 115 -81l78 -132q41 -57 102 -96q25 53 25 62q0 -12 -13 75l-6 2l21 91l-21 24l11 6q-2 8 -15 150q-6 88 -33 149h-10l-37 -43v-10h-26v37q-92 33 -150.5 106.5t-58.5 163.5q0 18 37 101l55 39l2 28l23 12v7l16 2 q70 20 199 82q-6 47 6 84l24 20l25 -63l-8 -43l8 -7l-8 -22l209 -70q29 -37 69 -69l23 20h43l39 -221l-11 -4q-49 61 -153 178q-102 98 -217 109q4 -84 32 -129l-22 -58l8 -8l-12 -35q4 -10 8 -14l4 -4q10 -8 10 -45q0 -23 -14 -64h6l-2 -55q125 -29 156 -39q72 -27 131 -82 q16 -14 96 -94q37 -180 37 -232q0 -233 -381 -282q2 -16 6 -45q4 -59 -28 -101q-18 2 -46 -8l-22 25l-14 108l28 43h-82l-73 47h-62l-55 -45l-92 11q-14 47 -15 53zM289 903l41 -147l73 -58h46v41l61 15v2l33 39v30l-37 19h45l-41 49q16 31 12 90q-4 35 -12 109l-47 -72h-53 l-72 65l-6 -4v-26l-23 -13l33 -53q-4 -29 -53 -86zM453 688l20 -20l14 20h-34zM483 688l13 -24l51 8l-27 55v-39h-37zM598 580q2 -55 23 -86q-4 -98 -15 -209l29 -47l-19 -33l13 -8l-4 -17q20 -23 20 -92l121 29q59 78 117 129l41 184l-25 57q-119 72 -301 93z" />
<glyph unicode="%" horiz-adv-x="1232" d="M92 772q0 94 135 184v25l31 37l145 14l23 17l94 -21q25 37 96 62q39 12 107 49h53l170 188v29l82 55l51 -18q0 -115 -51 -191l-129 39q-45 -47 -92 -92q-55 -53 -102.5 -77.5t-92.5 -49.5q-55 -29 -84 -59q20 -125 54 -197l-88 -90v-49l-95 -72h-53l-74 -59 q-82 39 -131 113.5t-49 162.5zM164 -197q57 57 166 281q100 207 172 260q16 82 16 131l92 88q10 133 115 197q6 115 195 395h55q-10 -88 -111.5 -270.5t-99.5 -274.5v-8q-57 -33 -90 -74v-55l39 41l16 -47q72 115 283 160q51 -35 112 -35h17l92 -158h16v-102l2 2v-129 l-57 55q-164 -176 -285 -176q-4 0 -71 22l-78 29l-53 88l14 162l22 16l-16 41l-63 -82v89l-43 -43v-35q-109 -78 -152 -248h-14l-37 -82l16 -21q-37 -82 -127 -172l-16 -110l-55 -51h-52q-23 43 -20 98v18zM193 690l40 -59h66l184 117q-10 49 25 149q-82 26 -158 100 q-70 -80 -100.5 -141t-56.5 -166zM836 367l28 -181l58 66h55q113 80 113 172q-1 8 -19 96h-100l-37 -76h-19zM1190 256h49v51z" />
<glyph unicode="&#x26;" d="M92 221q0 14 8 72q10 74 17 162q193 104 260 190v82q-74 63 -74 176q0 47 59.5 132t100.5 85q8 0 221 -20l59 -68q12 -98 13 -164q-29 -31 -97 -131q-57 -84 -106 -123v-61l96 -100l68 24q8 84 79.5 162t151.5 78q78 0 139 -92l-16 -125l-51 -33l-49 18l-58 76h-63 l-55 -80v-123l-39 -39l39 -153l116 -96l168 145q53 -10 84 -49l-14 -109l-164 -118q-125 39 -174 38h-10l-74 68h-45q-76 -117 -285 -131l-24 27l-51 -25l-37 37h-56l-92 88q-6 23 -20 74q-25 80 -25 106zM182 219l78 -110l133 -60l127 39l82 92q-16 94 -88 205 q-82 123 -164 137q-33 -31 -96 -110q-72 -92 -72 -115v-78zM401 885l80 -195l197 174q-8 41 18 92l-43 45h-39l-55 56h-41l-92 -80z" />
<glyph unicode="'" d="M418 1182q33 90 82 194l41 17q35 12 41 14q8 0 155 -16l80 -111q0 -182 -59 -254q35 -127 35 -145q0 -16 -35 -217q-29 -16 -140 -89l-59 15l-55 69l16 193v-2l-4 47h10q0 47 -37.5 144.5t-70.5 140.5z" />
<glyph unicode="(" horiz-adv-x="1236" d="M475 535q0 225 115 473q125 264 305 374h51v-82l-123 -108v-37l-141 -127l-41 -272l-39 -33l-20 -299l43 -55v-31l-29 -16l45 -37q12 -100 100 -234q74 -106 148 -213q39 -68 39 -112l-60 -29l-172 158q-49 45 -135 315t-86 365z" />
<glyph unicode=")" horiz-adv-x="1232" d="M379 -193l2 37q123 117 227 316q82 178 166 356l-24 90l20 19l-20 67l20 23q-27 129 -104 260q-76 115 -154 229q-53 86 -86 160l18 14l74 -16q23 -66 156 -250q104 -145 139 -338q25 -131 25 -368q0 -284 -299 -644q-55 -18 -58 -18h-82q-10 23 -20 63z" />
<glyph unicode="*" d="M150 944q0 10 12 62q139 37 231 36l23 -2l-56 72h-22l-31 31l31 31l-72 10l15 12l-15 74h-6v33l21 20l-29 20l22 17l2 37q29 -4 64 2v-13q35 -31 88 -36l10 8l45 -70l9 10l61 -77h33l55 36v33l29 45v15l45 41v28l33 19l67 -33l76 12l18 -18q0 -57 39 -96v-13h-16l-51 -73 l-52 -15l-43 -86l45 -45h60v-20l47 -23l8 12l68 -65h51l-61 -60v-8l16 -24l-8 -31l14 -31l-55 -10l-33 -29q-47 14 -72 41h-18v29q-37 6 -55 -6l-35 37l-19 -66l25 -61q0 -76 -59 -123v-29l-56 -16v-23l-63 10q-23 55 -49 105l16 29l-109 120l-26 -24q-106 6 -131 2l-15 -12 q-123 96 -122 149zM963 967l49 -13v13h-49z" />
<glyph unicode="+" d="M98 391v64l72 51h297l41 43l-16 264q0 16 29.5 51t53.5 51l72 -67l15 -148l-19 -22l21 -141q49 -41 133 -41q236 0 262 -4l14 -23v-68l-90 -65l-164 14q-39 4 -129 -14l-47 -64q20 -174 21 -182q0 -4 -17 -110l-86 -68l-57 70l-4 51q-2 45 4 139q6 90 0 139l-39 39 l-334 21l-20 20h-13z" />
<glyph unicode="," horiz-adv-x="1220" d="M362 -236l23 66h16q59 82 127 135v60l-102 61l-64 166q20 47 79 105.5t100 58.5t136 -39t122 -68q-25 -237 -23 -317v-23l-98 -112v-37l-160 -131h-57l-23 -15z" />
<glyph unicode="-" d="M98 569l47 105q162 43 183 43q74 0 237 -17q154 -16 238 -14h26l19 -16q100 18 108 18q4 0 113 -12l55 -68v-141l-73 -82q-68 -18 -76 -18q-27 0 -79 21.5t-79 21.5q4 0 -129 -23l-22 25q-160 -25 -168 -25q2 0 -154 23l-16 -25l-185 43l-30 39v88z" />
<glyph unicode="." horiz-adv-x="1220" d="M342 145q10 43 39 119q25 45 98.5 82t122.5 37q6 0 33 -2l158 -156l-11 -200l-143 -93l-84 19l-18 -19l-134 56z" />
<glyph unicode="/" d="M61 -293q0 127 101 219v49q70 92 221 394q129 252 254 370v54q57 53 121 163q78 141 106 177v47l68 55l14 63l119 119l63 -16v-148q-43 -39 -92 -106q-74 -107 -80 -115v-67q-117 -199 -231 -398q-137 -236 -244 -387q-59 -84 -127 -239q-82 -193 -112 -248 q-106 -47 -166 -66q-14 72 -15 80z" />
<glyph unicode="0" d="M152 391q39 174 38 234l-6 41l-20 18q63 219 137 332q98 152 270 225q119 -14 140 -16q80 -14 133 -37q125 -57 170 -215l53 -37q76 -293 76 -399q0 -55 -40 -182.5t-71 -166.5v-30q-51 -70 -145 -172q-47 -37 -219 -58l-37 29l-221 37v31q-68 80 -131 110v39l-64 64v-48 q-18 70 -63 201zM360 838q16 -297 17 -306q23 -195 88 -278h31l75 -90q47 2 115 -6l33 22h20l99 76v41l-15 22l33 33l18 180l58 60v131l-39 37q0 51 -19 127l19 -31v49l-76 113h-57l-55 74h-74q-100 0 -174 -70t-70 -170v-14h-27z" />
<glyph unicode="1" horiz-adv-x="1220" d="M180 16q8 68 66 86q16 6 116 17l17 18l61 -18l80 76l-22 55q20 106 61 137l-61 53v29h20l57 154l-16 86l35 36q-23 96 -21 140l2 30l-18 13l18 22l-18 74l21 14l-48 43q-137 25 -131 25q-23 0 -65.5 -10.5t-65.5 -10.5q-37 0 -67 31v68l32 16l238 -14l18 -25l80 37 l84 -33q27 -145 27 -174q0 -39 -13.5 -114.5t-13.5 -112.5q0 -25 12.5 -71t12.5 -70q0 -66 -12.5 -196t-12.5 -196q0 -33 43 -98q12 -16 19 -31h59l23 13l34 -33h185l33 -49l-72 -66l-109 -14l-20 18q-41 -23 -70 -22q-35 0 -57 41l-29 -19q-98 10 -145 9q-45 -4 -150 -27 l-53 31q-55 -18 -133 -17z" />
<glyph unicode="2" horiz-adv-x="1220" d="M160 78q0 260 426 479q70 33 198 96l109 203l-21 135l-92 96h-114l-95 54q-104 -45 -233 -117l-37 -166l-39 -35v-12h-45l-20 47q45 135 108 178q27 -4 45 11q39 90 90 116q45 25 148 25q43 0 118.5 -24.5t102.5 -51.5h74l32 -33q8 -94 99 -205l-21 -108l23 -16 q-86 -121 -158 -172q-26 -21 -186 -107q-55 -31 -105 -78l-18 17q-82 -55 -133 -119v-53l-62 -62l82 -43l148 23q4 0 26.5 -10.5t28.5 -10.5q31 0 89 11.5t89 11.5q29 0 74 -11q61 -12 72 -12l51 -49l-19 -102l-129 -35q-84 20 -92 20q4 0 -129 -20l-18 24q-39 -20 -72 -28 l-20 30l-27 -26l-74 20l-16 -20l-94 22l-23 -22l-121 35q-20 88 -20 94z" />
<glyph unicode="3" d="M190 1024q0 145 285 145q29 0 500 -16q14 -47 14 -55q0 -4 -16 -70q-166 -68 -326 -274q43 -37 117 -58q63 -14 127 -30q137 -45 137 -209q0 -297 -223 -500q-211 -192 -520 -215q-27 14 -72 49v49l47 49q8 -2 16 -2q37 0 119 47v48h15v-13l16 -24h41l135 108h57l78 76 h39q51 41 84 112.5t27 135.5v29l20 14q-18 78 -98 169t-154 101l-190 -133h-86l-14 14l53 125q61 29 129 90q57 55 112 111q43 41 82 70v47l-385 18l-77 -92h-68q-20 78 -21 84z" />
<glyph unicode="4" d="M184 326q25 90 132.5 243.5t129.5 247.5l56 39q-2 96 112 203v51l56 35v94l55 33h49l49 -51l-12 -457q-2 -29 16.5 -83t18.5 -81t-10.5 -77t-10.5 -77v-12l41 -41q86 23 101 23q4 0 104 -21l19 -49l-19 -51q-121 -20 -174 -19l-33 3l-41 -95l23 -145l-19 -16 q14 -29 19 -72l-107 -68l-63 64q0 20 -3 57t-3 53q0 35 41 181l-82 57q-63 -14 -99 -10q-61 12 -90 12q-4 0 -98 -39q-88 33 -158 68zM391 432q117 -16 141 -16q6 0 156 16l23 57l-17 23q35 252 35 299q0 43 -14 111q-10 37 -29 116q-37 -41 -70 -118q-37 -102 -75 -205 q-55 -135 -107 -166l17 -57z" />
<glyph unicode="5" horiz-adv-x="1220" d="M207 1235q49 74 147 74q23 0 65 -11.5t64 -11.5q29 0 84.5 11.5t83.5 11.5q12 0 49 -12.5t50 -10.5l172 21l51 -54v-34l-74 -62h-127l-37 37q-162 -41 -291 -61l-82 -76l21 -70h-18l-33 -37l16 -63l80 -53l135 51l152 -37l20 22h31l59 -59h35q135 -113 135 -268 q0 -209 -118 -338q-83 -88 -304 -205q-100 -51 -139 -53l-31 6l-36 -39h-127l-11 18v68l35 27h76l33 36q131 8 276 91q170 92 185 206l73 52l-39 209l-135 151q-76 -14 -225 -37l-23 15q-182 -109 -225 -109q-4 0 -8 2l-8 2z" />
<glyph unicode="6" d="M178 236l25 106l-25 39l25 113l-23 18q8 72 8 78q8 43 29 69l-14 15q57 131 53 223v47q84 162 260 250q162 80 358 80q41 0 91 -55v-48q-113 -82 -293 -92q-172 -10 -277 -174q-53 -80 -139 -323l205 120h98l12 17q25 -4 66 0q49 8 63 8q63 0 164 -104.5t101 -169.5 l14 -17l-18 -18q20 -164 20 -168q0 -47 -88 -152q-80 -96 -133 -131q-12 -8 -89 -22.5t-98 -14.5q-6 0 -81 25l-89 29zM281 367l24 -27l17 -125l96 -113q166 -39 174 -36l133 18l117 111q20 127 20 135q0 186 -80 241l-133 56l-94 -19l-18 19l-84 -21l-70 -71l-23 16z" />
<glyph unicode="7" horiz-adv-x="1232" d="M137 1055q0 10 21 127l-21 20l15 98q41 39 196 39q43 0 123 -4q76 -2 115 0q125 0 233 23l21 -21l22 23q41 -8 119 -33q66 -29 63 -86l-2 -39q-76 -63 -200 -303q-102 -193 -135 -352q-18 -82 -29 -279q-12 -188 -47 -342l-74 -12l-61 33q-23 121 -23 125q0 217 107 546 q104 324 231 510l-88 95l-31 -35q-147 20 -151 20q14 0 -248 -22l-35 -166l-51 -49l-53 33q-16 45 -17 51z" />
<glyph unicode="8" d="M147 326q0 84 76 213q61 102 144 188q-127 154 -127 272q0 84 86 206t163 122q190 0 238 -12q92 -25 168 -131q84 -121 84 -185q0 -16 -51 -153q-55 -152 -62 -176l129 -125q14 -74 39 -221l17 -17l-19 -18q8 -31 8 -58q0 -145 -174 -237q-145 -80 -313 -80 q-135 0 -277 104l-18 60q-31 18 -71 112.5t-40 135.5zM264 250l53 -55v-13l246 -153q57 -6 131 26q61 33 123 64l115 225q-26 148 -94 246q-133 53 -326 53l-168 -94l-80 -150l37 -90zM354 948l41 -96l211 -98q121 23 129 24q63 23 94 86q12 29 48 119l-39 127l-97 80h-96 l-6 -2l-14 -2l-45 -6l-125 -15l-78 -67q10 -61 -23 -150z" />
<glyph unicode="9" d="M133 805q0 215 94 356q111 164 316 164q31 0 94 -20.5t100 -18.5h8q102 -76 174 -234.5t72 -289.5q0 -10 -20 -129l18 -15q-2 -39 -22 -100q-27 -73 -31 -96q-14 -78 -29 -154q-20 -94 -47 -143q-20 -37 -114.5 -111.5t-127.5 -81.5h-55l-41 -36l-258 -15l-51 33v68 l51 47q41 -4 78 -4q336 0 528 409l-22 58l22 16v106q-66 -80 -186 -129q-113 -43 -215 -43q-41 0 -109 50q-37 29 -53 36q-31 20 -59 23q-72 113 -76 121q-39 72 -39 133zM254 930l78 -262q242 -78 250 -78q41 0 135 57.5t98 95.5l16 115l-14 14l14 111q-29 43 -153 170 q-82 -18 -86 -18q-20 0 -61.5 9t-61.5 9q-16 0 -135 -53q-16 -129 -80 -170z" />
<glyph unicode=":" d="M406 297l22 86q37 33 197 152h61l113 -78l41 -86l-17 -131l-24 -17v-39l-154 -51l-121 33zM428 872l84 148l135 51l90 -35l101 -129l-15 -121q-98 -96 -168 -96q-8 0 -145 35l-61 96v39z" />
<glyph unicode=";" d="M395 137q0 37 15 107q6 27 92 78t116 51q8 0 168 -74l41 -70l-16 -217l-66 -69v-58l-161 -180l-39 -8q-33 -8 -37 -8h-78l-18 30l24 107l82 74v39l14 20q-137 115 -137 178zM412 637l22 164l96 86h160l119 -123q-4 -54 -29 -113q-31 -72 -108 -90l-144 -12 q-53 27 -116 88z" />
<glyph unicode="=" d="M125 287v51l86 74l88 -23l115 41l53 -41l170 23l16 -21l119 23l14 16l35 -8q33 -8 39 -8q4 0 152 14l88 -74v-102q-80 -62 -219 -62q-57 0 -318 41l-20 -18l-348 14l-60 60h-10zM162 676l65 72q92 16 97 16q55 0 166.5 -19.5t166.5 -19.5q49 0 143.5 28.5t143.5 28.5 q8 0 141 -34l15 -19v-74q-55 -73 -209 -73q-18 0 -84 36l-111 -38l-114 41q-49 -18 -56 -19l-127 12l-22 31l-53 -43q-57 43 -105 39h-22z" />
<glyph unicode="?" d="M158 748q12 147 61 210.5t191 126.5q98 45 131 45q111 0 250 -69q158 -76 167 -168l11 -129q-121 -131 -146 -154q-82 -77 -174 -118l-18 -43l14 -103l-12 -22v-37q-45 -14 -84 -13h-21l-34 35l-19 111l-18 16l35 47h36l54 95h36q39 47 140 92l37 78l-60 167l-94 74 q-195 23 -211 23q-20 0 -68.5 -30t-70.5 -52v-37q49 -23 115 -72v-57l-35 -35l-88 -12l-19 14l-76 -14zM399 25l146 108l164 -35l36 -90l-18 -47q-154 -37 -164 -37q-4 0 -76 17l-88 20v64z" />
<glyph unicode="A" horiz-adv-x="1232" d="M43 -10l23 -8l8 30q133 41 182 72q98 59 98 158q0 8 -4 20l-2 12h17q25 74 61 226l-8 6l20 215l56 53q6 193 98 311l-12 2v105h92l53 -55l-6 -144l-55 8l67 -36l21 32q0 -59 14 -170.5t14 -169.5l33 -24l10 -84l17 -19q14 -131 26 -184q25 -106 74 -168v-82l76 -71 l137 -19l18 -14v-27l-18 -16h-70l-20 -12l-322 32l-14 13l51 43h45l64 86q-47 113 -105 188l-409 -37l-11 -20l31 -168l88 -41l35 -60l-24 -24h-23l-10 -10q-30 2 -68.5 2t-85.5 -2q-127 -6 -153 -7q2 0 -78 35l-8 -39zM424 420l70 -74l194 21l51 -29l82 121l-10 86l-41 41 v67l-22 17l16 41q-57 94 -80 286l-80 13q-65 -150 -65 -327v-5l-60 -45v-47l-39 -39l-6 -45l6 -8z" />
<glyph unicode="B" horiz-adv-x="1232" d="M104 1051v67q41 51 144 51q6 0 110 -39l97 35q33 -12 73 -12q29 0 83.5 8t80.5 8q29 0 127 -36q92 -33 131 -54l111 -184v-107l-49 -77q-31 -39 -64 -66q25 -117 113 -170l18 -184l19 -25q-59 -195 -168 -258q-92 -55 -309 -55q-18 0 -56.5 18.5t-58.5 16.5l-227 -2 l18 -17l-8 -10q-33 20 -72 21q-8 0 -30.5 -2.5t-34.5 -2.5q-18 2 -31 9l35 65h53l53 -53l100 55l41 92q-18 53 -18 117q0 39 8 118t8 118q0 78 -45 538h-57l-37 -41zM424 440l63 -379l420 25v76l74 53l18 133q-112 191 -325 191q-4 0 -127 -19l-60 33zM463 618h137l57 35 l15 -14h133l117 106v80q-10 20 -37 72l-39 80q-49 4 -82 53l-236 -18l-41 -56z" />
<glyph unicode="C" d="M182 457q0 8 9.5 27.5t9.5 29.5q0 29 -9.5 84t-9.5 82q0 205 148 381v33q150 131 295 131q100 0 227 -97l143 62l9 -29q8 -23 8 -28q0 -39 -15 -99q-12 -47 -22 -96l-19 -16l74 -191l-16 -80q-55 2 -119 84v35l-16 23l16 14q-43 56 -43 114v5l4 32q-33 23 -115 76 q-93 56 -114 56h-2l-99 -23l-55 -68h-37l-117 -176v-14l-26 -27q-4 -27 -12 -49l20 -106l-23 -19q51 -109 101 -352l172 -154l131 21q66 45 178 153v35l60 51v91l63 18l51 -35q18 -63 19 -69q-1 -92 -95 -205q-70 -86 -71 -90q-39 -53 -56 -101q-154 -37 -184 -37 q-86 0 -194 64q-102 57 -158 131v55q-49 41 -80 123t-31 150z" />
<glyph unicode="D" d="M66 -10v47l45 49h221l26 20l19 187l18 18q-33 127 -33 140q0 8 25 143l-8 8q0 53 17.5 161.5t17.5 162.5q0 16 -21 63q-25 59 -26 70l-242 -19l-23 31v70q150 41 162 41q31 0 103 -23q52 -17 88 -17q7 0 14 1l20 -13l70 35l170 -57l55 22q98 -29 197 -100 q43 -135 43 -217l-2 -12h53q39 -129 39 -164q0 -10 -20 -82l22 -25q-25 -260 -139 -411q-133 -180 -377 -180q-39 0 -96 16l-12 -4l-17 12q-25 -4 -94 -24q-59 -16 -96 -17q-33 0 -86 10q-63 10 -88 11zM465 776l18 -381q0 -18 -8 -54t-8 -54v-84q6 -76 33 -76h10l33 -6 l-25 -25q211 -14 213 -14q57 0 139 115q78 109 84 172l54 51v24l-19 27l74 104q-59 78 -59 199q0 29 4 60l-162 192l-139 37q-53 -23 -68 -23q-10 0 -111 19l-47 -45l-14 -117l16 -16v-86z" />
<glyph unicode="E" horiz-adv-x="1228" d="M84 6l20 70l201 37l76 75l18 76q-16 35 -16 41q0 23 8 69q6 37 6 60v10l-16 580l-41 41q-82 -20 -92 -21q-2 0 -131 19l-13 14l35 78l328 -10l18 -29l74 41q61 -14 62 -14q33 0 95 8t95 8h20q-57 -61 -346 -80l-41 -43l19 -213l-14 -24l-3 -11q-2 -133 154 -163 q43 33 84 96q63 102 68 106l67 -12q12 -139 12 -143t-32 -88q-6 -16 -4 -23l20 -149l-53 -50h-10l-37 68l26 55q-41 66 -82 101h-174l-36 -41l-27 -266l43 -52v-92l39 -39l170 -24l37 22l129 -20q80 47 125 159q66 168 79 191h33l33 -33l-37 -145l21 -37l-35 -215l-19 -17 q-47 23 -101 23h-9l-37 -2l-39 -37q-53 16 -145 16q-51 0 -154.5 -7t-155.5 -7q-27 0 -118 14l-17 -14q-31 14 -53 14q-29 0 -74 -16zM852 1112l84 43l102 -35l58 -243l-23 -17l23 -96l-15 -10q-43 59 -49 69q-23 41 -28 82q-2 12 -11 80l-106 123q-14 0 -25 2z" />
<glyph unicode="F" horiz-adv-x="1220" d="M147 1090l35 36l109 15l16 -17q213 41 287 41q12 0 240 -61l36 37l160 -35l51 -102q-14 -49 -14 -74l4 -39l35 -39v-68l-23 -18l37 -76l-14 -57h37l-45 -60l-4 50h-15l-35 77q12 35 13 64q0 45 -49 127l14 8q-27 82 -152 145q-115 -8 -125 -10q-72 -6 -118 -24l-62 16 l-41 -45q16 -33 23 -70l-41 -39q22 -69 23 -78q0 -14 -23 -143l57 -61l109 -19q57 86 108 131l19 80l39 -41q-16 -33 -35 -168h18q-16 -92 -16 -108q0 -18 12 -54t12 -55l-2 -37l-22 -14q-8 31 -17 121q-8 76 -24 119l14 18l-22 29q-49 -47 -117 -68q-33 -12 -131 -30 l-37 -238q-2 -8 14 -82q18 -82 21 -98l102 -60q55 29 123 29h23l37 -37v-28l-35 -33q-82 14 -88 14h-154q-12 0 -152 -14l-10 18q-74 -20 -147 -20v78l31 18l129 -25l79 101l-16 18l41 78l-25 137l23 31q-18 33 -27 76l-10 10q9 18 9 84q0 58 -7 154q-12 115 -26 264l-41 57 h-43l-13 -12l-12 12q-36 -6 -101 -6h-34q-12 35 -15 70z" />
<glyph unicode="G" d="M166 575q18 153 18 210v10v18q39 27 131 207q78 156 152 156q8 0 246 -17l41 -39q90 25 147 37l31 -33l-37 -313l18 -18v-52l-12 -12h-51q-90 96 -92 199l-152 112l-211 -34l-92 -99l-39 -202l-39 -35q43 -176 78 -447l129 -149l117 -21q252 107 252 280v13l-4 49 q-121 25 -207 37l-19 19l37 67l54 29q111 -14 112 -15q18 0 74 11q38 6 61 6h11l186 -31l14 -18v-66l-205 -37q-18 -229 -18 -317q0 -37 14 -55l-47 -68h-33l-57 78l-115 -90l-221 12l-162 160v7q0 40 -20 85q-23 49 -57 74l-15 178l17 24v56z" />
<glyph unicode="H" horiz-adv-x="1232" d="M74 1059v53l32 35q68 14 89 14q37 0 337 -37v25l56 -41l22 14q45 0 70 25q266 15 266 16h-2q2 0 172 -16q21 -38 21 -86v-8v-27q-63 -20 -133 -20l-35 2q24 -87 24 -180v-7q0 -115 -61 -485l14 -21q-14 -133 -14 -201v-16l2 -35l43 -26l108 22l17 -20h14v-45l-31 -29 l-380 10l-15 31l162 72q35 266 35 334q0 10 -19 65q-8 29 -22 74l-35 -37l-37 37h-137l-19 -21q-150 23 -188 23l-53 -4q-39 -72 -39 -137l2 -17l18 -22l-36 -101q-2 -6 14 -147q4 -31 4 -41l-2 -23l55 -38l101 14l12 -10v-52l-10 -10l-23 15q-45 -14 -121 -15 q-111 0 -121 -2l-18 -18l-109 32l-10 17v29l31 14l131 -14l18 260q2 16 -6 46.5t-8 45.5q0 4 16 57l-38 74l41 92q-39 141 -39 150q0 10 18 108l-18 18l20 93l-80 77zM356 987l19 -24l-15 -164q-2 -2 17 -117q131 -53 180 -53l14 2l21 16v19l145 -37l117 92l-23 92l23 21 l-37 114l14 19l-57 61h-41l-20 -20l-90 73h-15l-20 15l-45 -31v-23l-121 -34l-23 20z" />
<glyph unicode="I" horiz-adv-x="1220" d="M203 20l47 56q160 39 219 39h6l21 -2l43 39l36 409l-14 14l12 164q2 6 -6 29t-8 29q0 31 7 92t9 90l-45 27q-100 -20 -112 -21q-6 0 -146 33l-55 57l21 43q119 51 174 51q20 0 57 -4q47 -6 59 -6l25 -26l68 38l61 -14q29 0 87 8.5t87 8.5t178 -15l17 -18v-66l-123 -69 q-57 16 -60 16h-41l-16 -16l-16 16h-84q16 -113 16 -289q0 -242 2 -289q6 -150 39 -297l41 -32h246q14 -31 47 -72l-29 -88l-69 -35l-21 21l-186 -23q-20 -2 -59.5 10.5t-57.5 12.5q-12 0 -37 -11.5t-37 -11.5q-53 0 -151 25q-45 -23 -56 -23q-106 0 -186 57z" />
<glyph unicode="J" d="M156 156q0 27 12 217l76 73h123l57 -71l-18 -103l-125 21l-25 -25l41 -170l55 -53h248l115 145l18 226q1 4 1 9q0 26 -18 67q-20 49 -20 73q0 20 11.5 61.5t11.5 61.5q0 63 -39 299l-193 35l-49 51q2 106 176 107q29 0 87.5 -9.5t86.5 -9.5q12 0 35 9.5t35 9.5 q39 0 221 -39v-99l-35 -32h-92l-34 -35l-41 24q-43 -106 -43 -239q0 -29 16 -70q-47 -221 -55 -502l20 -14q-55 -86 -135 -158q-98 -90 -174 -90q-53 0 -123 25q-80 29 -100 63l-76 17z" />
<glyph unicode="K" horiz-adv-x="1232" d="M53 -4v31q59 53 119 55l29 -6q55 55 55 227l-2 19l-14 18l14 166q2 14 -8 51t-10 53l20 394l-59 40h-129l-15 11v55l31 35h88l21 -25q246 59 253 60q82 0 179 -115l69 80l436 12v-129h-12l-35 -37l-75 68q-393 -334 -394 -481l4 -19q47 -41 123 -170q72 -119 133 -158 v-41q122 -112 217 -112h11h28v-150q-135 4 -268 11q-151 10 -262 41q-68 -35 -74 -35q-35 0 -102.5 9t-101.5 9q-12 0 -38 -9t-38 -9q-4 0 -160 16zM379 670l29 -109l88 86v39q203 168 202 221v117q-137 23 -155 23q-23 0 -76 -29t-74 -47q-14 -264 -14 -301zM432 94h152 l57 -35l131 35v45l-180 170v109h-66l-96 -80q-22 -94 -22 -104q0 -13 24 -140z" />
<glyph unicode="L" d="M88 -20v100l315 16l37 625l23 18q-25 111 -25 152v6l2 43l56 39v41l-58 55l-336 23l-14 -13v68l12 -14q125 39 131 39q23 0 66 -8.5t65 -8.5q23 0 62 6q47 10 61 11l41 -41q181 24 192 24h1q39 0 121 -33v-32q-88 -35 -90 -35q-31 0 -94.5 9t-96.5 9h-14q-23 -76 -23 -75 v1q1 0 21 -174l-23 -12q61 -211 62 -282q0 -33 -18.5 -98.5t-18.5 -98.5q0 -16 12 -113l-12 -16v-59l53 -60l324 19l92 94q-11 41 -11 77q0 39 13 70q-18 49 -19 90q0 20 54 93h67l21 -232q0 -25 -9 -74q-8 -39 -16 -77l25 -39v-62l-74 -90q-49 20 -55 19l-125 -19l-19 19 l-166 -21q-14 0 -49 10.5t-49 10.5q-20 0 -62 -9.5t-63 -9.5q-8 0 -26.5 9.5t-28.5 9.5q-25 0 -86 -13q-44 -8 -74 -8h-12z" />
<glyph unicode="M" horiz-adv-x="1236" d="M27 1100l43 33l90 -19l14 14l166 -34l22 24h31l84 -96q-1 -12 -1 -25q0 -39 13 -84q23 -68 23 -88q0 -82 49 -232.5t49 -230.5l-6 -30l49 -51q29 41 29 67l-4 29h37q23 199 43 399q41 283 127 352l155 -14l17 19h16l31 -31q-82 -88 -105 -164l37 -107h-16q12 -44 12 -86 q0 -15 -2 -30l19 -21q-14 -36 -14 -83q0 -43 12 -95l-17 -24q10 -42 10 -148v-37q0 -115 27 -180l-23 -23l48 -41l110 -18l21 -57l-72 -31l-18 18l-115 -34l-70 36q-63 -27 -129 -38l-49 49v35l-31 -13l-4 35h-20q-12 -53 -37 -106l-57 14v22l-31 23l-12 -23l-35 11l-37 -33 q-111 -14 -215 -14h-19l-41 36h-108l-19 39l21 23v26h72l59 64q-18 176 -18 188q0 63 38 252q-20 45 -20 56q0 59 37 239l-39 60v71l-39 35l-162 23zM293 623l59 -420l-18 -19v-43l96 -78h76l39 -69l39 29l-56 397l-49 35l37 37l-39 202l15 19q-2 8 -15 92q-10 59 -10 94 l-107 78l-43 -41q-8 -43 -14 -88q-7 -45 -7 -67q0 -9 1 -13l18 -109zM721 197l22 -144l37 -2v-14l152 49l59 754q2 12 -2 47q-4 29 2 51l-49 149l-72 -92v-73l-20 -17l-49 33l-6 -45l26 -39q-27 -135 -55 -270q-27 -143 -27 -249v-26l-10 -10q4 -20 -4 -54t-4 -48z" />
<glyph unicode="N" horiz-adv-x="1232" d="M49 -16l47 82l129 57l23 121l-37 49l37 115l-19 12q53 78 56 188l-58 74v47h54l24 23l-57 147l20 74l-45 41l-160 37l-14 34l107 82l180 -37l20 21l123 -18l49 -52l-39 -110l101 -92l-23 -58q63 -135 78 -174q31 -92 33 -186q-29 41 -127 235q-74 145 -160 217 q-6 -14 -15 -46.5t-9 -41.5q0 -14 18 -143l-20 -18l41 -560q102 -45 145 -45l22 2l33 -47v-28l-37 -29l-125 23l-20 -25l-18 22l-17 -22l-129 27q-53 -29 -59 -29q-68 0 -152 31zM639 1085l14 48l107 32q63 -18 92 -18q41 0 111 8q90 12 112 12l92 -55q-40 -63 -77 -96 l-93 16l-63 -59q25 -139 24 -135q0 -31 -18 -88.5t-18 -87.5q0 -10 8 -28t8 -26q0 -31 -8 -92t-8 -90h-15l-30 113q0 2 16 92q4 20 4 31q0 53 -41 311l-59 59l-23 -16l-108 35zM729 305l14 51q53 -20 95 -20h8v-10h92v-60l27 -41l-33 -20l29 -25l10 -162q-33 -38 -49 -65 q-74 14 -101 49v53l-59 58h-23l-2 65h4l43 43zM793 268l77 -73l45 14l-69 63h61l-6 31q-18 -2 -65 -2z" />
<glyph unicode="O" d="M98 391q39 168 39 226v10l-4 37l-20 20q57 219 133 334q94 143 274 223q100 -10 201 -22q88 -20 164 -113q35 -43 49 -64q29 -43 31 -69l49 -37q25 -98 49 -197q27 -115 27 -200q0 -49 -42 -182.5t-69 -172.5v-30q-41 -29 -86 -95q-55 -80 -78 -102l-203 -29l-34 29 l-222 37v31q-68 80 -131 110v39l-63 64v-60h-29q-23 109 -23 170q0 15 1 27zM307 838q4 -414 103 -584h32l76 -88h13q55 0 155 14l94 76q98 291 99 342v125l-39 37q0 49 -19 125l19 -29v49l-76 113h-57l-56 74h-78q-33 0 -114 -39q-61 -27 -81 -50.5t-28 -84.5 q-2 -25 -12 -80h-31z" />
<glyph unicode="P" d="M49 8v49q78 70 215 70l15 -18h45q53 145 53 172q0 23 -7.5 72.5t-7.5 74.5q0 76 19.5 228.5t19.5 228.5q0 33 -16 86q-12 43 -25 88h-59l-22 -19l-146 33l-31 33l35 68l461 -21l16 21q78 -12 161 -29t145 -53l47 45l65 -66l-14 -16l33 -39v-62q94 -82 94 -120 q0 -111 -127 -239t-238 -128q-23 0 -57 18l-182 -36q-41 -127 -41 -130q0 -139 36.5 -183t174.5 -66l14 24h33l16 -31q-6 -59 -31 -122q-84 22 -92 22q-37 0 -113 -12t-114 -12q-14 0 -160 26l-20 -20l-13 20l-77 -24q-78 33 -105 67zM508 674l31 -31v-20q19 -5 71 -11 q39 -5 63 -4h13q47 8 94 15l19 -19q39 47 96 60l76 114v10q0 94 -74 177q-11 -2 -23 -2q-61 0 -151 59l-51 -23l-74 41l-59 -20q-23 -104 -21 -115l19 -217z" />
<glyph unicode="Q" d="M158 653q0 125 49 254t131 219q141 10 225 103h51l23 -17l16 17l72 -17v-32q172 -27 260 -234q70 -164 70 -368l22 -19q-25 -96 -112 -412q-72 -51 -127 -112q12 -37 14 -74l27 -20h5q35 0 77 25q45 28 67 61h31l55 -66l-16 -86l-113 -106q-40 15 -82 15q-9 0 -18 -1 l-135 92v35l-95 57h-153q-20 33 -55 45.5t-70 22.5q-100 45 -166 278q-53 188 -53 340zM272 563l19 -207l59 -86q109 25 113 25q61 18 100 59h8h5q91 0 231 -131q61 47 154 281l-21 92l23 57l-39 183q-78 25 -181 241q-10 -2 -22 -2q-51 0 -107 39l-16 -16l-16 16 q-92 0 -160 -104q-25 -39 -90 -187q-33 -78 -60 -112l15 -127zM512 82q98 18 145 20l23 62l-43 39z" />
<glyph unicode="R" d="M90 1090l31 34q180 20 198 21q104 0 279 -23l20 21l35 -37q40 10 80 10q31 0 62 -6q43 -12 139 -39l110 -127q2 -61 11 -113q6 -43 6 -53q0 -23 -23 -78q-8 -20 -18 -47l-186 -145q96 -147 96 -277q0 -25 -10 -65q-12 -47 -15 -66l64 -61q82 0 110 18l68 -16l2 -12 q0 -31 -51 -64l-90 15l-21 -15l-43 41l-29 -24q-69 77 -69 204q0 14 20 60l-39 151l-131 113l-247 39l-41 -45q12 -74 18 -162h10v16q-2 2 -2 7q-4 -2 -4 -5l-4 5v-23v-264l43 -39q92 -12 162 -16v-19l16 -12l-31 -27l-92 15l-20 -15q-45 8 -98 8q-82 0 -230 -28l-51 30v48 l207 53l33 301l-31 53q6 41 6 81q0 32 -4 64q-2 20 -25 150l35 70q-20 115 -20 168l2 32h-62l-18 -24l-144 35q-14 41 -14 84zM442 991l25 -348h74l77 -74l21 54q29 2 225 55l56 104v58l-17 12l17 59l-132 95l-90 -15l-22 17q-49 -2 -234 -17z" />
<glyph unicode="S" d="M227 29q0 31 19.5 89t19.5 89q0 29 -11 83t-11 83v18l16 10q63 -2 86 -24q14 -14 21 -60q16 -117 133 -182q104 -59 153 -59q6 0 76 16l74 21q55 72 117 131l41 184l-27 61q-138 89 -310 89h-18h-45l-45 86l-39 -54v-10h-26v33q-86 33 -146.5 109.5t-60.5 160.5 q0 18 35 107l79 57v37q92 0 197 72l276 -95q14 -29 68 -69l39 35v71l18 21h31l17 -19v-49l-41 -37l38 -223l-10 -8q-37 29 -78 82q-35 45 -69 90q-92 117 -187 117h-118l-39 -68h-76q-57 -51 -98 -121l41 -147l73 -60h7q50 0 210 -26q182 -29 197 -43l170 -164 q35 -166 35 -232q0 -43 -53 -133q-47 -78 -92.5 -107.5t-131.5 -35.5q-35 -2 -114 -10l-15 -15l-55 35h-76l-76 47h-59l-57 -45l-90 15q-12 39 -13 47z" />
<glyph unicode="T" d="M143 598l23 145l-23 17l37 164l-14 24q0 80 12 106.5t74 84.5q78 -18 88 -19q25 0 70 11.5t67 11.5l133 -25l17 21q106 -18 112 -19q18 0 56.5 10.5t56.5 10.5q88 0 139 -68q45 -57 45 -151q0 4 -24 -164l24 -15v-55l-28 -14l28 -29v-47l-35 -35h-32l-54 234l19 53 l-62 117q-102 39 -176 57l-53 -59q-4 -84 -25 -279q-20 -178 -20 -276q0 -47 2 -88l-6 -7l12 -12l-8 -20l4 -2v-33l-18 -19q14 -45 37 -139l102 -57q90 22 105 22h1q12 -4 54 -16l59 -19l16 -18v-29l-55 -32q-29 0 -250 12q-152 8 -250 8q6 0 -149 -20l-33 49q8 37 33 65 l129 -22l23 20l112 -18q31 166 68 248l-15 20l9 12l-23 21l-16 330l37 55q-21 166 -21 230v10l2 24l-80 57h-100l-74 -59v-74l-37 -39l-24 -151l24 -37v-70l-57 -49h-33z" />
<glyph unicode="U" d="M80 1176q31 31 78 51q6 0 47 -13q31 -8 47 -8q29 0 84 11.5t84 11.5q-2 0 104 -23l23 -32v-62l-148 -20l-41 -41l21 -90l-37 -72l39 -76l-37 -51v-27l10 -8q-12 -35 -12 -72q0 -14 10 -69q2 -10 2 -21q0 -25 -10 -53l10 -25h-6l12 -110l58 -53v-74l145 -76h158l55 53v58 l76 37l-10 143h-2v35q2 14 20 86q14 53 14 86q0 66 -38 268l38 35l-40 102l-185 47v50l123 65l35 -35l27 21l163 -37l54 37l90 -17l30 -34v-62q-77 -6 -204 -37q22 -219 22 -238q0 -29 -10 -83t-10 -80q0 -29 10 -85.5t10 -84.5q0 -14 -10 -43t-10 -45q0 -12 16 -148 l-108 -192l-191 -96v24q-31 -4 -62 -4q-44 0 -88 8q-74 14 -149 29q-78 121 -90 143q-47 84 -55 156l18 26l-16 54l37 145l-19 35l19 106l-19 35l17 115l-35 55l18 90l-51 136l-29 -39l-35 34h-57z" />
<glyph unicode="V" d="M96 1100v88l49 33l201 -17h3q20 0 128 17l17 -17l22 15l51 -13q16 -39 17 -96v-27q-50 -16 -95 -16h-10l-28 2l-15 -31l15 -51l-15 -51l39 -62v-92l70 -53q-16 -33 -17 -59q0 -35 17 -84l-19 -21q35 -186 101 -229l80 100v162l36 37q25 109 37 151q23 86 56 148l-19 110 q-80 41 -127 70v57l33 31l201 -16q18 -2 55 9t55 9l127 -18l37 -37v-82l-72 -37l-16 17h-59l-97 -70l-184 -651l-18 -13l16 -114q-47 -43 -51 -162l-94 -84h-31l-68 82v90l-20 20l20 13q-35 182 -227 911l-23 14l-145 -14z" />
<glyph unicode="W" d="M125 1081v43l31 15l112 -15l19 17l129 -35l16 -25l-119 -34l39 -209l25 -25v-29l-35 -26q29 -27 56.5 -120t70.5 -134q47 141 47 196v5l76 94v49h1q9 0 42 51h-12l-15 12l35 195q31 18 35 18q66 0 86 -6q51 -14 55 -57l-96 -39l-59 -92q47 -25 73 -62l13 13l14 -13 l-14 -26l102 -215l88 53v43l39 37v198q25 16 55 48l-55 75v23l96 -21q41 37 94 41v-75h-51q-41 -115 -41 -129q0 -20 11.5 -60.5t11.5 -60.5q0 -72 -41 -189q-47 -133 -55 -186l16 -12q-51 -131 -92 -420l-33 -35v-12l-104 14l-56 90l25 215l-49 103h-43v16h63l-33 49 l23 109l-62 116q-79 -195 -79 -426v-6q0 -8 8 -27.5t8 -25.5l-16 -158l-93 -51l-67 17l-53 65q6 23 6 53q0 68 -2 62q2 14 18 69l-41 37l-24 240l-33 35l22 205v-1q0 51 -80 304h-75zM836 606l34 -112l17 36l-39 82z" />
<glyph unicode="X" horiz-adv-x="1228" d="M55 16v70q121 16 168 16l27 -2q82 53 104 154l52 22q104 238 184 285q0 104 -109 277q-100 160 -194 231q-37 -10 -77.5 -10t-84.5 10l-14 51q43 49 84 70q274 -41 355 -41h7h41l14 -14l-30 -66l-129 29q12 -41 30 -115q25 -94 58 -145q37 -63 112 -111l66 64l14 104 l60 57v60l-111 90v31q123 34 142 34h1l308 -14l18 -18v-45q-102 -25 -199 -35q-243 -353 -243 -431q0 -200 180 -313l20 -149q55 -31 92 -76h152l51 -51v-51l-51 -31l-350 22l-19 -22q-70 8 -102 49v68q57 20 111 49l-21 123l-53 53q-10 133 -84 207l-39 -41v-51h-16 l-64 -66q4 -20 4 -39q0 -82 -80 -176q98 -61 156 -61l18 -45l-18 -19v-33q-49 -4 -115 -14q-53 -10 -78 -10q-45 0 -98 28q-137 -25 -133 -24q-59 0 -117 65z" />
<glyph unicode="Y" d="M76 1087v46h14l14 20l23 -23q180 39 244 39q4 0 118 -12l39 -72q-35 -53 -96 -127q16 -86 78 -182q14 -25 119 -166q47 160 190 404l-37 53q-66 23 -96 39v51l125 8l20 -12l54 14l20 -12l56 12l18 -12q47 14 55 14q4 0 70 -12l14 -22v-45l-88 -23l-151 -147 q-18 -82 -19 -113v-14l-74 -31q-39 -195 -131 -356l43 -263q45 -44 124 -44q10 0 20 1l61 2l51 -51v-63q-289 -51 -381 -51q-72 0 -301 51l-10 14v51l70 49l24 -8q23 -8 29 -8q27 0 68 6q51 10 65 12q23 135 62 205l-23 37l39 170q-41 37 -178 275q-127 219 -156 225 q-186 45 -186 71z" />
<glyph unicode="Z" d="M180 -6v45q76 80 90 96q55 61 78 105q78 150 156 299q117 207 188 258l-20 22v27q41 14 96 72v65l-43 39l-166 -16l-41 34h-61q-113 -88 -154 -313h-47q-16 131 -16 150q0 53 34 227q64 53 131 53h9l26 -2l19 -14q14 6 53 20q78 29 109 29q12 0 92 -12q92 -14 219 -21 l69 -51v-86l-75 -78l14 -20q-111 -199 -205 -215l-55 -146q-29 -14 -76 -57v-55l-76 -17q-6 -37 -116.5 -166t-139.5 -262l111 64q76 -8 96 -9q29 0 94 13l17 20l53 -39l158 21l119 114l-19 19q16 131 17 176v23l51 30l49 -47q-57 -190 -55 -256l2 -37l14 -20 q-18 -27 -14 -56v-26q-47 -23 -76 -23l-31 2l-24 25l-58 -37l-74 16l-96 -43q-94 61 -282 62q-6 0 -50.5 -16.5t-60.5 -18.5z" />
<glyph unicode="\" horiz-adv-x="1220" d="M115 1327l20 49l-18 17l4 39l33 8q217 -152 290 -467l27 -8l33 -60l-6 -47q164 -197 180 -311l-8 -8q59 -43 116 -133q43 -78 86 -158l-8 -8l88 -162l47 -23q12 -61 13 -65l-6 -43l63 -86l-27 -41l76 -19v-20q59 -51 62 -121l-23 -10l-49 35l-55 118l-29 11l2 4l-39 20 l-14 29l6 8l-27 43l6 10q-33 59 -81 135h-21q-27 49 -41 146l-57 24l-10 29h-11q-10 82 -90 225q-88 150 -149 172q-12 86 -105 248q-82 145 -151 226v45q-33 35 -111 159z" />
<glyph unicode="^" d="M250 1282q111 172 352 389l68 -20l8 12q76 -2 123 -66q35 -61 71 -122q27 -41 60 -56v-28l104 -82l-10 -119l-59 -27l-43 4q-35 41 -127 133q-109 102 -168 101l-35 57q-29 -8 -57 -14q-37 -12 -50 -29l-53 37q0 -182 -110 -270l-52 18z" />
<glyph unicode="_" horiz-adv-x="1232" d="M-45 -195l8 144l123 57l94 -18l92 47q102 -66 351 -70l18 25h51l19 -23l90 39l112 -16l21 20h14l21 -18l57 41l178 -41l33 -64l-16 -161l-50 -39l-237 -21l-21 23l-53 -23l-131 23q-6 2 -44 -11.5t-48 -13.5q-18 0 -53 12.5t-54 12.5q-57 0 -166.5 -21.5t-166.5 -21.5 q-6 0 -86 22l-93 23z" />
<glyph unicode="`" d="M383 1286l27 78q25 14 28 14q33 0 111 -24q86 -27 92 -47l-14 -23l61 -61v-74l55 -8q53 -61 134 -121l-13 -84l-51 -12l-139 82l6 12l-27 16l9 13q-12 49 -70 86l-10 -23l-105 49q-8 72 -94 127z" />
<glyph unicode="a" d="M154 244q0 -43 24 -181l98 -94q61 -8 107.5 -11t77.5 -3l125 -2q10 0 108 33l117 34q47 -29 80 -49t53 -30l117 12l65 72l-10 143l-127 -14l-65 69l16 29l-14 110l10 3q2 123 5 123q1 0 1 -3l-14 238l-70 86q-51 16 -98 29.5t-94 25.5l-99 6q-47 6 -71 7q-23 0 -31 -2.5 t-6 -5.5t6 -3q-70 0 -221 -96q-20 -88 -20 -131q0 -21 5 -31l52 -108h65l47 37l43 24l27 27q-29 29 -41 48t-12 52q14 16 25 32.5t28 22.5q61 20 82 21q45 0 137 -39q94 -37 127 -66v-61l-18 -10l-25 -21q-35 -10 -61.5 -19t-49.5 -9q-16 -20 -48 -33.5t-72.5 -30 t-73.5 -19.5t-58 -10l-178 -47l-69 -104zM305 262l113 68q35 -2 55 -2t29 -2q53 0 73 4l72 20q63 18 68 19h57l2 -76l6 -55l-71 -103q-133 -41 -138 -41h-211l-49 64l-4 57z" />
<glyph unicode="b" d="M111 1065q47 -84 198 -111q41 -158 41 -204q0 -27 -2 -67t-6 -93t-6 -93t-2 -67q0 -41 18 -121q18 -78 19 -119q0 -4 -5.5 -60t-15.5 -163l35 -35h10l74 60h68l51 -60q53 -8 80.5 -12t29.5 -4q170 0 279 170q86 137 104 332l-16 16l-16 152q-53 57 -91 105t-59 108 l-70 20h-36q-38 5 -60 5q-11 0 -17 -1q-20 -4 -22 -4q-43 0 -100 -37q-55 -35 -84 -75h-47l-12 30l36 178l-22 58l24 92l-38 70l-273 14q-18 0 -40.5 -29.5t-26.5 -54.5zM463 317q0 170 155 351q8 -4 17.5 -2t15.5 0q6 0 16.5 2t20.5 2h17q12 0 28 -2q29 -4 45 0l92 -115 l17 -98l-6 -21q12 -35 17 -59.5t13 -40.5l-24 -137q-49 -55 -70 -93l-12 -6q-51 -31 -70 -53q-61 6 -149 72q-74 53 -121 116q6 18 4 41q-6 39 -6 43z" />
<glyph unicode="c" d="M178 371q0 102 82 268q90 178 176 197q43 4 129 16l21 20q160 0 243 -45q59 -33 177 -159l-11 -181l-53 -32h-145l-37 80l80 81q-104 135 -158 136q-104 0 -197.5 -59.5t-150.5 -151.5q6 -147 22 -211q31 -119 113 -174q33 -29 68.5 -57.5t87.5 -28.5q55 0 159 77 q84 63 140 127h106q18 -47 19 -53q0 -121 -166 -219q-148 -88 -281 -88q-96 0 -242 100q-154 104 -167 191q-14 111 -15 166z" />
<glyph unicode="d" d="M170 369q0 180 90 315q102 154 272 154q37 0 110 -37t112 -37l12 2l35 68q-37 33 -37 127v10l2 55l-35 39q-16 -4 -35 -4q-33 0 -159 26l-11 13l13 69q33 14 36 15l173 -19l16 17l86 -13l33 -51q-16 -72 -17 -74q0 -12 9.5 -36.5t9.5 -36.5q0 -27 -8.5 -82t-8.5 -82 q0 -10 8.5 -30.5t8.5 -31.5q0 -6 -19 -90l19 -16l-21 -76l19 -18l-19 -51q18 -59 33 -166q14 -119 27 -166q88 -78 183 -78h5l16 -16v-52l-34 -32h-56l-41 -33q-55 12 -110 16l-15 -16l-129 72q-14 -6 -104 -43q-66 -29 -109 -31l-14 -12q-156 12 -254 143q-92 123 -92 289z M309 340q0 -63 189 -242l116 41l58 74h39q0 66 57 156l-37 159l19 56l-43 63h-35l-58 53q-109 18 -116 19q-35 0 -112 -76t-77 -111v-77q0 -2 13 -35l-13 -14v-66z" />
<glyph unicode="e" horiz-adv-x="1220" d="M176 434q45 139 84 209q57 104 152 160q55 35 71 35l308 -21q213 -193 213 -330l-3 -20l-14 -12q1 -11 1 -21q0 -27 -7 -55l-43 12q-41 10 -47 10q-16 0 -46 -8t-46 -8q-10 0 -29.5 7t-30.5 7q-27 0 -77 -17t-76 -17q-16 0 -46 7t-46 7q-47 0 -156 -21l-23 -20 q20 -115 107 -199q92 -90 205 -90q94 0 282 166h54l14 -53q-27 -94 -148 -160q-102 -55 -217 -63l-63 36h-109l-131 119v35l-73 76l-37 207zM393 516q0 -43 107 -43q18 0 57 4t57 4l15 -4l8 12l6 -6h37v6q8 0 26.5 5.5t28.5 5.5q49 0 62 6q20 14 20 65q0 35 -100 117l-19 14 q-8 6 -14 15q-98 -18 -182 -19l-8 -8l2 -8q-20 -12 -54 -37q-49 -37 -49 -129z" />
<glyph unicode="f" d="M131 33l45 71l137 35q41 -20 58 -18l67 4l29 27l18 131l-22 16q20 88 41 262l-10 2q16 12 16 25q0 16 -12.5 58t-14.5 54l-77 54l-89 -39l-147 45v16l-37 45q108 43 161 43h5l113 -4l92 -90v137l-19 23q39 121 101.5 180t181.5 82l39 -18l-6 12l37 -17l6 29 q98 -33 146 -63.5t124 -110.5q-32 -74 -67 -131l-117 47l57 117l-51 76l-57 -41l-11 41l-75 18l-189 -119l-49 -137l166 -72q57 14 123 15l57 -60l-84 -49l-57 25l-55 -25q-76 27 -127 43q8 -25 20 -72q12 -39 12 -61q0 -8 -10 -28.5t-10 -30.5q0 -70 18.5 -211.5 t18.5 -214.5l182 -31l20 20h66l72 -69v-66l-52 -45q-193 -18 -389 -18l-18 -17h-33l-35 37q-113 -37 -125 -37q-27 0 -163 41z" />
<glyph unicode="g" horiz-adv-x="1220" d="M98 -90q0 35 28 99.5t28 99.5q0 33 -9.5 99t-9.5 99q86 51 170 84q-41 84 -41 86v174l201 201l221 -16l115 -95l71 95l93 18l106 -133q-10 -57 -65 -92h-37l-54 96l-51 27l-51 -76q43 -55 43 -127q0 -20 -4 -74l-90 -121h-39l-57 -63q-123 -10 -127 -10q-8 0 -154 51 l-72 -19l-75 -73q47 -78 137 -101l125 54l35 -23l170 20l36 -36q49 8 90 8q117 0 170 -68q49 -59 70 -207l21 -14l-93 -166l-170 -53l-30 -37h-33l-23 25l-92 -60l-59 37q-88 -18 -92 -18q-31 0 -160 45q-86 31 -170 61l-59 74q-12 127 -13 129zM274 -33v-65h19l18 -17v-53 l224 -80l151 39l19 -20l116 22l78 78v76q-55 33 -137 73l-92 -16l-39 37h-76q2 0 -29 -16l-41 -19l-34 35zM379 602q39 -90 39 -94q0 -14 -15 -111q150 -16 168 -16q117 0 199 94v74q0 -4 -25 129l-114 80q-76 0 -148 14l-77 -57z" />
<glyph unicode="h" horiz-adv-x="1220" d="M82 1067v63l35 33l205 -16l18 16l47 -33v-100l-16 -24q11 -32 11 -72q0 -43 -13 -96l16 -19q-14 -60 -14 -99q0 -16 2 -28l43 -39q219 205 293 205q86 0 188 -81t102 -163q0 -14 -10 -43.5t-10 -44.5q0 -18 9 -55t9 -55q0 -39 -16 -162l-8 -59l-2 -7q6 -27 28 -84 l185 -36v-101l-35 -35h-14q-40 0 -88 9l-9 -4q-76 14 -149 14q-74 0 -162 -14l-68 77l68 70h111l24 22l-20 56l37 313l-37 76l22 76q-90 94 -178 94q-100 0 -313 -313v-158l14 -14l-16 -17l16 -96l55 -55h129q14 -29 37 -54q-35 -94 -229 -94l-62 31q-61 -12 -95 -12h-9 q-12 0 -113 12l-16 16l18 101h146l24 90q14 57 15 94q0 4 -17 385l17 16q-18 106 -19 195q0 86 17 162l-185 37z" />
<glyph unicode="i" horiz-adv-x="1220" d="M156 37l20 67l236 33l16 -18h82l41 39q-16 63 -16 67q0 33 19 96.5t19 96.5q0 18 -14 78q-12 53 -10 67l24 150l-45 41l-61 -52q-43 18 -92 50q-29 -20 -68 -21q-6 0 -41 2l-14 137l315 -39l19 25h47l59 -72l15 -346l-41 -78q24 -95 24 -162v-14l-2 -24l45 -45 q162 26 253 26h7h21l35 -35l12 -90l-33 -49q-70 -16 -74 -16q-10 0 -131 18l-14 -18l-65 -4h1q-10 0 -31.5 10t-33.5 10q-33 0 -93.5 -19.5t-92.5 -19.5q-2 0 -97 21l-6 6q-74 10 -182 12zM463 1102q27 57 117 94l110 -51l10 -41q8 -37 9 -41q0 -20 -41.5 -56t-61.5 -36 q-16 4 -65 16l-70 19z" />
<glyph unicode="j" d="M199 20v21l137 86l104 -16q37 -100 37 -103q0 -18 -16 -117h-125l72 -69q123 20 161 20l15 -2l78 76q2 27 12 55q2 5 -2 13l6 2l-2 135q0 55 -4 151q-6 125 -8 158q-1 33 -1 64q0 143 23 243l-45 37l-227 -16q-76 39 -135 53v49l94 66q66 -10 133 -21q78 -12 133 -12 q-6 0 149 16l56 -69l18 -269l-18 -16v-41l18 -14q-33 -86 -33 -174q0 -66 7 -187q1 -29 1 -53q0 -47 -3 -76q-8 -109 -103 -280l-149 -72l-215 16l-17 -14l-131 141q-20 184 -20 219zM569 1100v67l111 105h51l135 -127v-45l-78 -72l-110 -20l-72 32z" />
<glyph unicode="k" d="M92 0v68l37 36l123 15q41 80 41 190q0 25 -6 92q-2 57 -2 93q2 49 16 90q18 55 16 71l-20 310l22 22l-24 80q-106 31 -189 49l-14 21v26q156 39 217 39q4 0 25 -8l24 -10l35 -51q-10 -150 -37 -347l39 -73l-39 -54l41 -139l76 -51q98 31 215 176q23 20 33 39q6 8 20 27 v59l-112 -16v65l104 15l62 -54l55 56h115l20 18l47 -47l21 24q23 -14 32 -43l-20 -16h-10l-23 23l-24 -27l-45 51l-80 -84h-90l-78 -76v-59l-76 -88l14 -66l115 -67q20 -40 20 -76v-10l-2 -21q76 -90 175 -172q40 11 78 11q31 0 61 -7l22 -36v-64h-186l-18 -20l-23 10 q-23 10 -29 10q-72 0 -131 -35q-59 16 -96 47v-32l-33 45q-29 -10 -41 -43l-35 -17l-53 33l-22 -20h-13l-24 20l-56 -31q-66 -4 -198 -6l-37 2zM397 156l56 -54h114l43 -63h19v43h57l41 37v80q-90 100 -113 245h-49q-70 -86 -151 -131q-16 -82 -17 -80v-77z" />
<glyph unicode="l" horiz-adv-x="1220" d="M168 18q12 63 70 82q27 10 114 17l17 20l61 -18l80 76l-23 57q78 264 78 373q0 16 -10 45.5t-10 46.5q0 -8 22 196l-20 15l18 22l-18 74l20 14l-47 43q-123 23 -117 23q-47 0 -149 -21l-64 33v68l33 16l238 -14l18 -25l80 39l82 -37q27 -422 27 -553q0 -57 -11.5 -171.5 t-11.5 -172.5q0 -39 60 -164h59l22 13l35 -33h185l32 -49l-71 -62l-109 -16l-20 20q-53 -23 -70 -24l-18 2l-41 37l-27 -17q-89 9 -136 9h-9q-45 -4 -150 -27l-53 33q-51 -20 -131 -21z" />
<glyph unicode="m" horiz-adv-x="1230" d="M31 -16l24 86l166 16l41 37q20 326 21 332q0 35 -17 67q10 96 17 168l-41 43h-78l-68 51v33l70 55q76 -16 106 -28q61 -27 80 -68h74l55 76l84 20q70 -49 133 -114l95 18l55 60h94l14 14l107 -53q39 -147 39 -162q0 -41 -19.5 -122t-19.5 -122q0 -53 39 -303 q43 -20 110 -20v-84l-403 -13l-16 17q-154 -18 -242 -19h-21l-20 37l-64 -43v19q-139 -33 -159 -33q-53 0 -256 35zM342 479q39 -242 39 -352l-2 -18q27 -14 67 -48v70l68 -115q63 45 135 105l-16 117l16 16l-18 135l20 19l-20 151l55 55l-61 80l-127 17q-55 -37 -95 -105 q-12 -20 -61 -127zM711 219l49 -137q61 0 104 -14l99 36l-19 111l41 59l-22 150l36 35v155q-88 111 -159 113q-94 -104 -129 -283l37 -55z" />
<glyph unicode="n" d="M82 2q0 2 4 37q74 61 159 61h5l43 47q24 167 24 210q0 44 -13 131q-11 75 -11 120v13l2 36q-131 59 -182 142v55l45 31l129 -37l78 51l69 -65h17l63 -64l221 115l146 -13l125 -135q0 -8 14 -108q8 -55 8 -94v-15l-27 -432l121 -70l-55 -45q-123 14 -139 15 q-49 0 -195 -15l-33 29v43l209 41l17 27q-20 90 -21 127l2 51l21 20l-41 342l-131 76q-141 -29 -314 -82q0 -53 -5 -160.5t-5 -160.5q0 -20 7 -61.5t7 -61.5l-16 -80l57 -57l131 16q-35 -96 -71 -129l-60 20l-49 -20l-14 20q-75 -21 -75 -22h1q-18 0 -55 10t-55 10 q8 0 -119 -18q-39 29 -39 49z" />
<glyph unicode="o" d="M188 223q16 287 86 432q106 217 355 217h114q109 0 218 -202q94 -178 98 -310q-35 -44 -78 -198q-35 -117 -143 -193h-58l-73 -55q-319 10 -519 309zM328 502l37 -109q-16 -23 -17 -35q0 -92 131 -249l178 -25l52 37l16 -12q61 0 115 141q45 123 45 199q-1 209 -277 303 q-43 -37 -76 -45q-41 -6 -81 -13q-66 -12 -123 -192z" />
<glyph unicode="p" horiz-adv-x="1220" d="M96 -205q33 10 68 15l35 -17l120 37l35 406l-30 32q51 117 51 456v26l-27 20q-39 -8 -108 -16h-6q-53 0 -84 32v72l51 29q137 -18 202 -19l72 -75q139 14 230 98h69q37 -45 193 -82q31 -86 102 -176q20 -231 21 -248q0 -123 -64 -227q-67 -113 -178 -154v-35l-164 21 l-14 -15q-43 23 -111 41l-22 -14l-35 39q-8 -25 -21 -74q-8 -34 -8 -58v-9l4 -64q72 -51 205 -63l14 -15v-69l-51 -35h-143l-21 27q-80 -41 -145 -41q-12 0 -57 18l-25 -16l-125 32l-33 37v84zM494 399l18 -112l18 -21v-20l132 -131l118 -17l156 148v43l-21 18q18 10 31 23 q0 34 -35 102l25 53l-41 174l-61 56q-57 0 -129 16q-66 -35 -134 -108q-78 -86 -77 -144v-80z" />
<glyph unicode="q" horiz-adv-x="1232" d="M209 555q0 59 100.5 188t153.5 129q10 0 223 -20l35 -37h70l73 57h27q45 -76 45 -167q0 -12 -18 -43l40 -814l64 -45l94 21l62 -62v-24l-62 -66l-69 25q-119 -43 -134 -43h-208q-57 0 -109 47v61q68 45 129 45q6 0 43 -20l51 49l21 141l-66 91l-158 -76l-196 16l-184 232 q-27 307 -27 315zM383 424q0 -125 23 -176q31 -70 135 -111q31 -12 51 -12q33 0 92 18.5t94 18.5q-1 53 -28 512q-57 8 -91 8q-276 0 -276 -258z" />
<glyph unicode="r" d="M141 70q61 49 195 55l22 -23h45q63 113 78 238l-20 14l24 70l-20 25l16 12l-20 117q25 27 24 73l-4 43l-65 60l-180 -23l-56 68l33 69l168 -16l25 16l81 -12l74 -74l-18 -114l43 -58q80 88 135 183h55l35 36q106 27 111 27q61 14 110 14l88 -112l-20 -140l-51 -34h-13 l-55 51l-16 92l-39 41h-66l-151 -115q-2 -70 -109 -147l-41 -195l41 -37v-110l62 -66l18 25l182 -35l17 -20v-48l-58 -51l-125 -18l-55 22l-92 -24q-4 0 -139 22l-52 -37l-184 35q-33 49 -33 101z" />
<glyph unicode="s" d="M209 2l14 311l19 17h32q23 -35 158 -137l10 8l13 -58l34 -16l68 18l16 -20v-59l82 36l19 -16h61q20 31 94 61v52l62 55q-86 164 -217 164q-23 0 -69 -9.5t-68 -9.5q-55 0 -254 103l-35 76q0 276 180 276h246l131 -80q63 41 100 78q55 -55 64 -107l-39 -75l20 -101h-24 q-145 221 -303 222q-147 0 -273 -97l-24 -80l41 -79q184 -31 366 -60q219 -51 291 -194q-16 -84 -16 -129v-25q-59 -76 -168 -134.5t-201 -58.5q-33 0 -96.5 27t-98.5 27q-53 0 -202 -15z" />
<glyph unicode="t" d="M170 731v72l72 53l209 -20l38 331h107l47 -88l-33 -35l19 -145l-37 -27l94 -55q170 20 178 21q14 0 105 -19l18 -53l-33 -47h-88l-22 18l-199 -39v-39l-53 -55l39 -203l14 -16l-49 -53q47 -78 49 -158l82 -39l43 96h14l15 -28l159 155h31l35 -65q-20 -39 -20 -84v-8v-23 l-76 -88v-33h-13l-43 -69l-90 -35v-19l-18 -12q-111 17 -161 17h-5h-18q-102 86 -127 184l20 55q-27 109 -27 150q0 66 17 182q23 141 26 188q-96 20 -114 21q-23 0 -152 -17z" />
<glyph unicode="u" horiz-adv-x="1232" d="M31 819l45 43q115 8 119 8q12 0 159 -41l8 -24q8 -18 9 -25q0 -43 -39 -225l20 -18q-18 -102 -18 -109q0 -51 39 -268q104 -37 110 -37q123 0 265 88q35 92 51 225q12 115 22 232l25 18v39l-64 43h-164l-12 53l107 47l106 -39l58 23l49 -21q20 -45 20 -51q0 -29 -11 -83 t-11 -83q0 2 20 -131l-22 -16l45 -315l37 24q70 -37 182 -106l-21 -82q-123 -39 -164 -39q-49 0 -147 30.5t-139 59.5l-244 -86q-76 20 -98 31q-55 27 -74 69l-33 -28l-26 49l14 274q2 20 -6 59t-8 58q0 25 8 76t8 75q0 90 -51 129q-53 -14 -99 -14l-26 35l-21 6 q-16 20 -28 47z" />
<glyph unicode="v" d="M76 782v70l33 37q59 14 67 14l387 -29l21 -22v-49l-72 -72h-39l-24 -24q16 -94 73 -232q31 -72 90 -233l164 358l-16 47l35 37q-31 35 -131 94v56l53 51q129 -14 205 -15q78 0 149 15q66 -25 100 -68v-33l-100 -53l-57 17q-70 -37 -158 -287q-82 -225 -92 -342h-21 q-10 -123 -102 -187h-74q-59 80 -131 293q-66 193 -84 314l-37 36q-10 121 -65 173h-139z" />
<glyph unicode="w" d="M63 784l21 52l125 -23l22 23h48l32 -35l-37 -94l37 -54l-35 -78l37 -53v-69l-22 -17l39 -88q51 -27 100 -41l47 47l-22 152l26 53q20 43 25 53q0 27 -7 78t-7 76v33q15 -1 30 -1q81 0 150 36q29 -8 88 -37v-45h-35l-43 -41v-68h-14v-68l30 -10l23 -26v-56l51 -53v-7 q0 -44 41 -134l23 -15h43l41 39v56l38 39q-19 205 -20 205v-1q0 6 16 54l27 14l-63 72h-19v47q131 57 205 57h8l16 -18v-54l-55 -55q-10 -74 -74 -250q-55 -156 -55 -252v-6l-20 -16q22 -116 22 -130q0 -64 -67 -136q-68 20 -129 77q1 18 1 34q0 172 -57 251l25 92 q-49 94 -78 187l-90 -101l-57 -354l24 -14l-53 -154l-57 -37h-33l-86 133l18 78q-61 139 -61 184l2 56l24 28q-53 53 -59 179l-41 38l-12 93z" />
<glyph unicode="x" d="M86 16l47 -63l70 -2q31 0 96 12q33 4 56.5 7t39.5 3q8 0 27 -8l22 -8l97 18l18 -18l33 31v82h-41l-98 57l190 205l51 -53q4 -84 78 -168q-16 -16 -37.5 -32t-44.5 -30q-1 -14 -1 -26q0 -48 13 -70q23 0 52.5 8t74.5 12q30 3 56 3q13 0 25 -1q36 -2 59 -2q10 0 48.5 -4 t110.5 -12l37 31v61l-22 21l-164 16q-37 41 -94 72l-15 82l-176 151q14 39 43 80q59 94 92 150.5t39 74.5h37l56 56h43l16 -19l106 17v67h-12l-22 17l-240 -19h-2q-12 0 -111 37l-34 -16l-3 -29q-2 -27 23 -74h35l49 37l35 -16l-25 -43q-76 -47 -108.5 -97.5t-48.5 -95.5 h-62q-14 35 -32.5 70t-28.5 76l-84 77l125 31l-11 35l-84 27l-22 -21l-279 21q-20 -10 -35.5 -22.5t-29.5 -27.5l53 -51h186l56 -61v-33q129 -143 170 -227l-121 -138l-27 -14q-37 -84 -122 -128t-214 -64v-33z" />
<glyph unicode="y" d="M145 -166q0 68 25 117q33 59 92 59q6 0 51 -18l64 -84v-33l-66 -57l78 -76q61 18 151.5 110.5t90.5 147.5v127l-60 43q-25 76 -47 152q-37 109 -65 137v123q-33 37 -74 110q-45 82 -70 113l-36 6l-11 -16q-11 3 -23 3q-22 0 -48 -10l-21 19v27q78 -10 139 -13l2 -4 q72 20 105 21h24q6 -90 52 -244q51 -166 61 -240l21 4q6 -123 82 -180l73 74q8 88 78 256t74 264l-150 37l19 41q74 -18 223 -37l12 57l62 -63l32 10l19 -16v-15l-17 -12h-12l-24 21l-76 -37q6 -29 -62 -84q-4 -92 -45 -228q-47 -158 -104 -184q-35 -399 -166 -512v-43 q-88 -86 -283 -86q-72 0 -122 72q-47 66 -48 141zM508 823q33 14 37 15h16v-33l-49 -2z" />
<glyph unicode="z" d="M145 4l19 -27q51 -8 108.5 -11t120.5 -3v-4h62l2 -6l61 6l-2 4q47 8 77 12.5t42 4.5q51 0 131 -37q57 16 106.5 28.5t92.5 22.5l36 117l-22 14l39 190l-49 74h-35l-55 -74v-75l-95 -123l-79 28l-93 -39q-56 11 -97 11h-7q-41 31 -55 92q82 74 86 74q109 96 170 160.5 t61 117.5l66 57v35l129 113v49l-39 39l-482 16l-22 -18l-74 18l-88 -53v-57l-16 -17l16 -16v-22l-18 -19l-19 -219l33 -29h16l52 51q18 156 36 222l58 41l403 -21q-74 -84 -178 -172q-59 -51 -104 -89t-76 -62l-14 -54q-49 -41 -120 -100t-163 -141z" />
<glyph unicode="|" horiz-adv-x="1220" d="M520 932l68 47l-15 12q29 39 29 76q0 25 -10 61q-12 49 -12 62l36 61l-10 6l2 66h-57l65 49l2 -8l19 14l-16 31l73 -37h-39l29 -49l-16 -43l10 -4q-12 -37 -12 -62q0 -86 51 -149l-31 -57l10 -9l-16 -36l12 -19l4 12l13 -2q2 -12 2 -55q0 -6 -17 -63h11 q-14 -152 -15 -166q0 -35 29 -72q-2 -53 2 -117h55l-65 -51l-11 -43l37 -47l-8 -10l31 -56l-35 17l43 -150h41l-45 -18l65 -19l-38 -30l-23 37l-20 4q4 -39 10 -105q0 -41 -19 -86l-39 -14h66l-66 -43v33l-41 -6l-28 22l-23 98l-22 -24l-15 33l-47 -21q4 66 41 66 q14 0 58 -45l-15 43q14 35 15 61q0 61 -27 96l20 35l-14 76l-10 2l24 90l-16 14l-31 -20l13 63l28 -34l-18 65h-57l63 41l10 43l-20 14l12 17l4 88l-10 6l20 55l-43 80l45 39v29q-18 12 -30 12q-23 0 -66 -6zM594 946h35l-35 29v-29z" />
<glyph unicode="~" d="M135 391q31 72 111 199l41 12l14 -18q80 82 166 82q35 0 78 -37l4 8l72 -43l8 -68l35 -18l18 20l63 -12l70 70q10 -4 76 -4l6 34l43 35q139 -10 135 -78l-8 -96l-27 -24v-25h-12q-55 -63 -110 -66l-17 -53l-6 6l-39 -26h-43l-12 -13l-37 19l-37 -19q-94 35 -145 66 q-43 27 -125 100h-51l-62 -98q-47 -66 -76 -78l-14 21l-33 -13l-61 43z" />
<glyph unicode="&#xa0;" />
<glyph unicode="&#xa7;" d="M236 575v195l114 127v35l56 37l-37 221l55 123l129 69l223 -16l88 -125q-25 -47 -22 -98v-8l-97 -33l-53 53l15 72h-56v96h-80q-80 -129 -79 -145q0 -100 116 -230q74 -16 393 -411v-39l19 -15l-6 -8l-17 -131h-16q-57 -156 -135 -201q12 -45 24 -92q14 -55 15 -92 q0 -20 -39 -160l-146 -121l-262 15l-104 69l-21 158l123 105h58l92 -82q12 -72 16 -123l127 121l-18 118q-55 23 -236 271h-39l-123 135v39zM391 770l23 -127q256 -240 282 -385l84 -12l80 162q-78 204 -209 335q-31 31 -110 107q-96 -12 -150 -80z" />
<glyph unicode="&#xa8;" d="M221 997l12 127l97 60h49l53 -60v-125l-74 -127q-31 14 -84 48q-25 18 -53 77zM731 954l19 123l90 88h51l74 -84l-17 -145l-57 -66l-107 25z" />
<glyph unicode="&#xad;" d="M98 569l47 105q162 43 183 43q74 0 237 -17q154 -16 238 -14h26l19 -16q100 18 108 18q4 0 113 -12l55 -68v-141l-73 -82q-68 -18 -76 -18q-27 0 -79 21.5t-79 21.5q4 0 -129 -23l-22 25q-160 -25 -168 -25q2 0 -154 23l-16 -25l-185 43l-30 39v88z" />
<glyph unicode="&#xb4;" d="M383 989l6 33l29 20l-6 31l51 39l-12 12q25 59 88 82l6 66q61 45 63 100q100 49 105 49q70 0 94 -10q35 -14 65 -63l-47 -105q-76 -25 -163 -110q-100 -96 -97 -164v-8l-73 -58l-35 41l-25 -29v15z" />
<glyph unicode="&#xc4;" d="M74 -18l16 81l176 54q47 14 105 196q53 164 53 236v6l35 37q-4 45 53 237q59 203 59 283q0 8 -4 18l-4 13l51 28q92 -74 152 -229q53 -141 53 -280q0 -39 -6 -72l55 -53q23 -143 29 -175q27 -109 68 -159v-74l55 -51l129 -17l35 -32v-49l-35 -35h-70l-20 -11l-326 31 l-37 35q27 45 70 80h41l41 55l-19 43l7 17l-64 79q-154 -10 -348 -30l22 -123q72 -43 119 -141l-39 -35h-24l-13 -11q-217 4 -219 5q-166 10 -196 43zM272 1358l15 102l92 51h49l51 -51l10 -127l-79 -84q-39 23 -77 45.5t-61 63.5zM481 514l19 -14q-10 -45 -17 -72l41 -45 l181 16l30 -14l56 78l-19 133l-57 47q23 47 22 55q0 76 -28 152q-10 27 -64 139l-67 -67l-19 -197q-20 -10 -35 -25q2 -14 -43 -186zM768 1319l18 104l86 74h52l71 -72l-16 -122l-55 -52l-103 17z" />
<glyph unicode="&#xc5;" d="M82 -20l18 83l172 52q51 14 107 194q51 162 51 244l39 37v51l29 23l2 22l22 21q6 150 53 241h39l-26 -28l-19 -197l-34 -23v-28l-25 -17l-18 -141l18 -14l-18 -72l43 -45l180 16l30 -14l56 78l-19 131l-57 49q23 45 23 53q0 78 -29 211l31 2q20 -154 75 -213v-106l54 -53 q20 -143 26 -175q25 -102 70 -159v-74l55 -51l129 -17l35 -32v-49l-35 -35h-69l-21 -11l-324 31l-38 35q16 45 71 80h41l39 47q-10 92 -80 147l-344 -30l23 -129l73 -35l54 -84l-49 -51h-23l-12 -11q-262 39 -340 37l-62 -2zM461 1327l18 29h15l14 65l65 62q61 0 111 41 q82 -43 113 -49q33 -80 63 -187l-8 -10l14 -29q-36 -121 -145 -164l2 -4q-14 -6 -109 -34v14q-82 57 -94 84q-12 49 -22 100q-8 39 -37 82zM584 1253q0 -43 16 -59l109 4v19q25 35 24 116l2 56l-28 28l-70 13l-29 -31q2 -20 -8 -23l-4 -4q0 -20 -6 -60t-6 -59z" />
<glyph unicode="&#xc6;" horiz-adv-x="1232" d="M-229 -20l18 83l170 56q51 16 104 198q49 162 50 240v4l34 37q-6 94 107 363h35l-23 -29l-18 -199q-51 -45 -78 -211l18 -18q-10 -37 -16 -72l41 -45l178 19l31 -17l53 80l-18 133l-58 49l23 56q0 14 -23 217h27l37 -170l69 43l-12 227l-39 39q-80 -18 -102 -19l-115 19 l-12 14l33 78l321 -10l17 -27l73 39q70 -27 185 -2l12 -6v-33l-268 -37l-41 -41l18 -217l-12 -18q-12 -152 143 -176q45 70 137 202l80 -12q16 -104 17 -127q0 -16 -33 -112q-4 -16 -4 -21l18 -143l-53 -49h-10l-35 67l24 51q-37 66 -81 103h-168l-37 -39q-10 -135 -10 -119 q0 -125 69 -221v-76l43 -41l119 -16l35 20l125 -18q74 47 129 157q4 10 76 193h30l33 -33l-37 -145l21 -39l-33 -215l-19 -12q-68 20 -145 14l-35 -31q-100 16 -133 6l-29 -28h-67l-21 -11q-297 41 -356 41t-98 -10l-27 23l-45 -43h-23l-12 -11q-45 8 -102 7l-15 -9l-8 9 q-158 0 -225 14q-45 10 -57 27zM113 246l22 -129l68 -31l-29 45q51 -37 96 -37q76 0 174 19l66 65v33l-53 68zM983 1112l82 45q55 -27 100 -35l58 -245l-23 -17l23 -96l-15 -10l-45 65q-23 35 -29 79t-12 87l-104 121q-14 0 -35 6z" />
<glyph unicode="&#xd6;" d="M121 389q41 184 41 229l-8 41l-21 19q57 188 141 311q98 133 195 266q-123 49 -123 93q0 4 14 116q74 49 127 49q29 -16 68 -51v-106l-70 -94q94 -49 324 -68q170 -143 174 -227l53 -39q76 -281 76 -396q0 -72 -51 -188q-54 -127 -60 -186l-161 -201q-70 -8 -207 -29 q-57 43 -254 68v31q-68 78 -131 108v37l-64 64v-60h-28q-27 135 -21 195zM330 829l39 -409l55 -53v-113h41l76 -88h57l37 47l33 -35h41l98 78v39l-16 18l34 37l19 178l57 60v129l-39 35q2 47 -16 120l16 -24v49l-76 113h-57l-55 71h-74q-55 0 -119.5 -34.5t-95.5 -79.5 l16 -88l-30 -50h-41zM848 1319l18 104l86 74h52l71 -72l-16 -122l-55 -52q-94 6 -156 68z" />
<glyph unicode="&#xd8;" d="M109 397q39 174 36 226l-4 45l-20 18q66 221 135 328q96 147 270 221l256 -35l107 -104l33 32v52l67 55l15 63l118 119l64 -16v-148q-119 -141 -172 -221l-4 -92l10 -6q74 -285 74 -395q0 -70 -35 -174.5t-76 -165.5v-33q-121 -96 -129 -168l-33 -31l-200 -28l-35 28 l-129 21l-158 -293q-94 -59 -166 -66q-14 76 -14 82q0 121 100 213v53l88 123l-71 41v39l-64 64v-60h-31q-25 133 -18 193zM315 836l39 -408l39 -39q78 6 144 98q6 6 92 160q37 61 67 90v54q96 94 103 182l-29 41h-55l-56 73h-75q-109 0 -213 -114l18 -88l-33 -49h-41z M590 252l63 -66h41l97 78v39l-17 19l35 36l18 179l58 57v106l-31 -28l-12 30q-51 -106 -252 -450z" />
<glyph unicode="&#xdc;" d="M86 1169q41 33 80 50q102 -20 94 -21q31 0 135 16l31 39q-100 33 -133 90l14 111q70 51 131 51h6l56 -53v-106q-59 -78 -70 -129l100 -17l23 -37v-59l-147 -21l-41 -41l20 -90l-37 -71l39 -74l-37 -51v-25l10 -12q-10 -66 -10 -223q0 -45 19 -123l55 -54v-73l145 -74h158 l55 51v58l76 38l-12 140h2q-4 39 14.5 109.5t18.5 103.5q0 20 -17 88h-45v16h45l-22 156l39 37l-41 100l-185 47v49l123 66l35 -35l53 49l-75 64l18 106l86 72h51l72 -72l-17 -121l-94 -90l92 -24l58 37l90 -17l31 -35v-61q-53 -4 -105 -10q-57 -8 -100 -27q23 -221 22 -242 q0 -63 -10 -190t-10 -191q0 -100 16 -180l-108 -192l-191 -92v24q-63 -6 -155 12q-47 10 -146 21q-70 113 -86 141q-49 90 -57 154l18 26l-16 54l37 145l-19 35l19 104l-19 35l17 115l-35 53l18 90l-51 137l-29 -36l-34 30h-58zM768 459h59l-32 -41h-15z" />
<glyph unicode="&#xdf;" horiz-adv-x="1220" d="M172 33v14l49 53h41l41 43l-20 205l-19 14l55 185q-55 143 -55 151q0 522 367 523q47 0 207 -39l129 -160q-6 -233 -111 -346v-51q184 -39 184 -314l-32 -39q-6 -43 -21 -127q-12 -53 -114.5 -117.5t-163.5 -64.5q-86 0 -170 90q-47 -68 -86 -67h-244zM362 600 q43 -240 44 -274q0 -4 -25 -148l104 -80l21 19h26v112l64 72q35 -2 129 -37l12 -67l-78 -76l107 -41l98 59l58 119l-15 12q16 33 17 43q0 9 -41 103l24 20l-121 133l-100 -18q-70 23 -160 37l-34 35v32l34 35q141 6 205 33q90 37 154 139l-19 12v134l-174 75l-24 -14 l-115 16l-133 -96l-39 -170l22 -18l-24 -107l24 -57z" />
<glyph unicode="&#xe4;" d="M160 229l2 52l217 153l31 -2q49 -4 132 30t115 73q47 0 115 18l10 55l33 -24v61q-31 29 -127 67t-137 38q-18 0 -82 -21q-33 -12 -92 -33q47 -45 86 -106l-14 -21v-10l-134 -90h-28l-51 125q-12 33 14 162q150 96 221 96l186 -23l15 21q92 -25 192 -55l70 -86l14 -238 q-2 23 -6 -121l-10 -2l14 -110l-16 -29l65 -70l127 15l11 -144l-66 -73l-117 -13q-39 20 -133 82l-117 -37q-100 -33 -108 -32l-125 2q-61 0 -184 14l-99 96q-25 137 -24 180zM223 1038l13 95l86 51h40l48 -45v-103l-70 -98q-25 10 -70 35q-20 16 -47 65zM309 254l23 -25 l-17 -79l50 -64h210q8 0 138 41l86 104l-39 58l16 71h-57q-4 0 -68 -18l-71 -20q-16 -4 -74 -5q-16 2 -84 5zM721 999l18 101l82 69h43l66 -65l-17 -119l-49 -49q-29 4 -80 16q-25 10 -63 47z" />
<glyph unicode="&#xe5;" horiz-adv-x="1232" d="M154 207l2 67q41 47 125 125q-49 131 -50 179q0 104 13 139q23 49 104 86q92 41 125 41q16 0 180 -25l13 21q168 -33 262 -140q14 -158 14 -231q0 -20 -7 -62t-7 -63q0 -10 2 -74q2 -43 -2 -73l61 -62l127 17l10 -142l-65 -73l-113 -13l-139 82q-219 -70 -223 -69l-137 2 q-10 0 -170 14l-101 94q-25 117 -24 160zM268 453q68 -47 115 -47q41 0 138 44t132 76q51 0 115 21l8 53l33 -22v61q-43 35 -135 67.5t-148 32.5q-8 0 -69 -20q-31 -12 -74 -27q37 -47 74 -108l-15 -21v-6zM303 246l23 -23l-17 -78l49 -59h213q6 0 136 39l86 102l-39 58 l18 80q-168 -47 -356 -46zM371 1223l14 16h18q-2 78 72 131q63 4 111 39q37 -23 102 -51l2 2l60 -176l-9 -10l17 -31q-60 -172 -236 -176l-8 -6q-66 45 -82 77q-6 10 -29 99q-10 43 -32 86zM446 1149l84 -115l84 43q31 76 31 162l-2 49l-33 37l-82 23l-53 -29q10 -37 10 -64 q0 -47 -39 -106z" />
<glyph unicode="&#xe6;" horiz-adv-x="1232" d="M-80 293l209 184q106 -2 244 39l37 39q72 0 147 33v63q-55 55 -264 101l-135 -50q41 -47 75 -102l-14 -22v-15l-137 -94h-35l-29 68q-20 57 -24 65q0 20 14 164q123 109 221 108q-4 0 179 -24l16 22l199 -59l45 -53q35 49 88 74l297 -21q207 -193 207 -311 q0 -39 -6.5 -41t-6.5 -8q0 -35 -12 -74l-84 22l-98 -41l-47 39q-82 -6 -123 -49v8q-109 20 -119 21q-37 0 -86 -12q35 -59 35 -80q0 -31 -19 -72l56 -55l131 16l8 -127q137 41 278 166h52l16 -53q-27 -94 -141 -160q-102 -57 -213 -68l-39 23l-23 -23l-121 -14 q-72 39 -133 86q-170 -80 -276 -80q-14 0 -64 6l-18 17q-31 -6 -162 2l-104 106q-20 141 -21 236zM88 162l43 -53h203q8 0 127 38l80 95l-37 55l14 65q-47 0 -101.5 -19t-78.5 -19h-154l-96 -62l16 -22zM700 756l74 -66q-16 -35 -14 -78l24 -18h19l74 51l45 -49 q4 -10 -19 -53q-14 -25 -39 -68l146 21v157l-60 62q-104 -6 -250 41z" />
<glyph unicode="&#xf6;" d="M166 217q10 279 86 428q106 211 354 211h115q106 0 213 -199q98 -178 102 -305q-35 -47 -82 -194q-37 -113 -139 -189h-57l-74 -53q-305 6 -518 301zM246 1028l14 102l94 54h49l54 -49v-107l-72 -74q18 -12 31 -32l-70 6l19 22q-57 8 -75 20.5t-44 57.5zM305 492l37 -105 q-16 -23 -16 -27q0 -104 131 -256l178 -24l51 37l16 -13q61 0 115 140q45 117 45 194q0 205 -276 299q-20 -18 -119.5 -49t-106.5 -49zM752 989l18 107l88 73h51l72 -71l-16 -125l-56 -53l-104 18z" />
<glyph unicode="&#xfc;" d="M53 805l49 41q121 8 123 8q29 0 156 -39l8 -24q8 -18 8 -25q0 -43 -39 -223l23 -17q-20 -106 -21 -106q0 -39 11 -98q8 -47 18 -97q4 -35 6 -67q106 -37 119 -37q12 0 115 16l116 131v54q94 86 107 333l20 19v37l-63 43h-164l-12 51l106 47l107 -39l57 23l49 -19 q20 -45 21 -51q0 -27 -11.5 -81t-11.5 -81q0 2 21 -131l-23 -14l45 -314l37 29q70 -37 182 -106l-20 -84q-111 -35 -143 -35q-33 0 -99.5 19.5t-101.5 17.5h-17l-94 51l-239 -86q-84 23 -99 31q-53 23 -75 67l-31 -26l-27 49l15 270q2 20 -6.5 57t-8.5 56q0 25 8.5 75 t8.5 74q0 84 -50 127q-59 -14 -100 -14l-31 35q-29 6 -49 53zM274 1028l13 102l92 54h49l51 -49v-109l-73 -108l-44 24q-53 29 -88 86zM768 989l18 107l86 73h50l71 -71l-14 -125l-55 -53l-103 18z" />
<glyph unicode="&#xff;" horiz-adv-x="1220" d="M139 -172q0 178 117 178q6 0 53 -20l62 -84v-35l-66 -55l78 -76q55 16 148.5 111.5t93.5 144.5v129l-60 43q-25 74 -47 149q-37 106 -65 136q4 96 -41 202q-53 127 -140 146l-10 -17q-31 8 -72 -6l-20 19v26q57 -10 135 -12l4 -6q70 18 129 18q0 -131 15 -209l45 -35 l-35 -26q33 -131 108 -182q2 -129 82 -197l76 74q8 86 78 256q70 164 74 258l-150 37l19 41q143 -35 231 -35l-16 -82l-58 -60q-6 -90 -47 -221q-49 -154 -102 -184q-35 -408 -166 -508v-45q-90 -84 -283 -84q-74 0 -125 70q-45 63 -45 141zM266 1081l13 103q90 51 94 51h49 l51 -49v-107l-74 -104q-92 41 -133 106zM528 807l25 18v-28h-10zM764 1042l20 105l88 74h50l73 -72l-16 -123l-55 -51q-31 4 -88 18q-25 10 -72 49zM1038 786l19 11l14 6h10l17 -17v-14l-17 -12h-12z" />
<glyph unicode="&#x152;" horiz-adv-x="1230" d="M-113 530l41 80q-12 12 23 158h-37q84 111 131 250q78 49 291 137q119 -18 123 -18q61 0 108 41q37 -18 86 -60l68 39q70 -29 184 -4l13 -6v-31l-269 -37l-41 -43q10 -59 4 -139q-6 -117 -6 -129q0 -49 49.5 -90t102.5 -51q35 37 73 98q57 92 64 102l82 -12q0 -14 8 -61 q8 -39 8 -62q0 -27 -19.5 -76t-19.5 -59q0 -6 19 -145l-51 -50h-13l-35 68l25 53q-37 66 -82 103h-168l-37 -39l-26 -268l43 -52v-90l39 -39l168 -24l34 20l125 -18q70 43 127 157q14 31 78 193h31l31 -37l-35 -143l20 -37l-33 -215l-18 -12q-68 20 -147 14l-33 -31 q-51 8 -129 6q-39 0 -148 -4q-188 -10 -256 13l-67 -43q-74 51 -170 47h-29q-272 174 -303 546h-27zM-63 606l14 -55l-6 -10l49 -70l-14 -20v-41l51 -52q-2 -94 98 -194.5t195 -100.5q88 0 155.5 59.5t83.5 145.5q-14 23 -14 37q0 23 8 70t6 71l-18 578l-39 39 q-109 -8 -113 -6q-35 0 -98 26l-152 -39q-80 -94 -86 -102q-37 -57 -37 -127q0 -23 3 -47h-39q-4 -43 -10.5 -84t-36.5 -78zM1006 1112l86 43q55 -27 100 -35l57 -246l-22 -14l22 -98l-16 -8q-20 37 -72 104l-12 127l-107 121q-14 0 -26 4z" />
<glyph unicode="&#x153;" d="M-14 223q0 655 463 656q80 0 178 -84q84 51 118 51q47 0 125 -15q96 -16 125 -18q203 -186 205 -317q-101 -113 -205 -136l-49 39l-108 -26v-15q-55 -63 -74 -227l-39 -39l106 -45q145 47 279 168h51l17 -53q-27 -92 -146 -160q-104 -59 -213 -68l-61 37h-195l-74 -55 q-311 8 -503 307zM119 500l37 -107l-17 -18q6 -109 129 -266l174 -27l76 59l-63 64l-37 207l-25 20q49 154 113 266l-107 56q-23 -20 -122 -54t-105 -55zM530 338l50 -162q12 18 32.5 54t34.5 141l-94 -11zM655 743l72 -63l-53 -90q16 -51 47 -115l229 21v157l-61 64 q-12 -2 -29 -2q-59 0 -205 28z" />
<glyph unicode="&#x178;" d="M96 1075v43h15l14 21l22 -23q180 39 244 39q4 0 119 -12l39 -72q-37 -55 -96 -125q16 -84 75 -178q14 -23 119 -164q31 94 84 209q61 133 109 188l-39 54q-41 8 -94 37v51l124 8l21 -12l53 14l21 -12l55 12l18 -12q47 14 56 14q4 0 69 -12l15 -23v-45l-88 -20l-152 -146 q-20 -82 -18 -114v-13l-74 -28q-41 -197 -131 -355l43 -258q51 -49 143 -43l62 2l51 -49v-61q-242 -53 -381 -53q-55 0 -301 53l-10 12v49l69 49l25 -8q23 -8 29 -8q27 0 67 6q51 10 66 12q27 137 61 203l-22 35l36 170q-39 39 -176 272q-127 215 -155 222l-154 34z M285 1378l14 103l49 26l45 25h47l52 -49v-105l-74 -75l-101 26zM782 1339l19 105l88 74h49l72 -72l-15 -123l-57 -51l-100 16z" />
<glyph unicode="&#x2c6;" d="M225 1235q0 4 6 88q123 88 205 297q152 51 213 109q127 -31 175 -69t102 -159l45 -24v-29l98 -90l-8 -64l22 -18l-26 -82h-127l-66 59h-18q-14 61 -96 123q-45 29 -127 103l-119 -54l-58 -88q10 -55 -44 -114.5t-109 -59.5q-8 0 -26.5 3t-28.5 3q-12 55 -13 66z" />
<glyph unicode="&#x2dc;" d="M135 391q33 98 74 129q6 20 37 70l39 12l14 -14q78 78 164 78q39 0 80 -37l8 10l70 -45l8 -68l35 -18l18 20l63 -12l72 72l8 -6h66l6 34l43 37q45 -4 84 -24q51 -25 51 -58q0 -4 -8 -94l-27 -24v-25h-8q-57 -70 -117 -74l-14 -43l-6 4l-39 -26h-43l-12 -13l-37 19 l-37 -19q-98 37 -145 66t-125 100h-51l-62 -98q-47 -66 -76 -78l-14 21l-33 -13l-61 43z" />
<glyph unicode="&#x2000;" horiz-adv-x="864" />
<glyph unicode="&#x2001;" horiz-adv-x="1729" />
<glyph unicode="&#x2002;" horiz-adv-x="864" />
<glyph unicode="&#x2003;" horiz-adv-x="1729" />
<glyph unicode="&#x2004;" horiz-adv-x="576" />
<glyph unicode="&#x2005;" horiz-adv-x="432" />
<glyph unicode="&#x2006;" horiz-adv-x="288" />
<glyph unicode="&#x2007;" horiz-adv-x="288" />
<glyph unicode="&#x2008;" horiz-adv-x="216" />
<glyph unicode="&#x2009;" horiz-adv-x="345" />
<glyph unicode="&#x200a;" horiz-adv-x="96" />
<glyph unicode="&#x2010;" d="M98 569l47 105q162 43 183 43q74 0 237 -17q154 -16 238 -14h26l19 -16q100 18 108 18q4 0 113 -12l55 -68v-141l-73 -82q-68 -18 -76 -18q-27 0 -79 21.5t-79 21.5q4 0 -129 -23l-22 25q-160 -25 -168 -25q2 0 -154 23l-16 -25l-185 43l-30 39v88z" />
<glyph unicode="&#x2011;" d="M98 569l47 105q162 43 183 43q74 0 237 -17q154 -16 238 -14h26l19 -16q100 18 108 18q4 0 113 -12l55 -68v-141l-73 -82q-68 -18 -76 -18q-27 0 -79 21.5t-79 21.5q4 0 -129 -23l-22 25q-160 -25 -168 -25q2 0 -154 23l-16 -25l-185 43l-30 39v88z" />
<glyph unicode="&#x2012;" d="M98 569l47 105q162 43 183 43q74 0 237 -17q154 -16 238 -14h26l19 -16q100 18 108 18q4 0 113 -12l55 -68v-141l-73 -82q-68 -18 -76 -18q-27 0 -79 21.5t-79 21.5q4 0 -129 -23l-22 25q-160 -25 -168 -25q2 0 -154 23l-16 -25l-185 43l-30 39v88z" />
<glyph unicode="&#x2013;" horiz-adv-x="1220" d="M98 569l47 105q152 43 185 43l497 -27l21 -20q96 18 108 18q4 0 113 -12l55 -68v-141l-73 -82l-37 -10q-29 -8 -33 -8q-29 0 -83 21.5t-83 21.5q6 0 -127 -23l-22 25q-160 -25 -168 -25q2 0 -154 23l-16 -25l-185 43l-30 39v88z" />
<glyph unicode="&#x2014;" d="M-113 567l45 107q125 43 127 43l895 -27l21 -20q96 18 108 18q4 0 111 -12l53 -68v-141l-71 -82q-66 -18 -72 -18q-25 0 -81 22.5t-83 18.5l-252 -21l-20 25q-41 -8 -84 -17q-51 -10 -84 -10l-428 25l-17 -23q-135 27 -157 78v90z" />
<glyph unicode="&#x2018;" horiz-adv-x="1220" d="M487 1077q0 41 9.5 127t9.5 131v15l82 94v29l131 106h49l16 12l62 -73l-19 -52h-14q-47 -70 -102 -112v-51l82 -54l51 -131q-14 -37 -63.5 -83t-84.5 -46q-31 0 -106.5 33t-102.5 55z" />
<glyph unicode="&#x2019;" d="M444 1040l19 54h14q47 68 105 110v51l-84 54l-52 131q16 41 63.5 86t84.5 45q31 0 106.5 -34t102.5 -56q0 -41 -9.5 -127t-9.5 -129v-17l-79 -94v-29l-134 -104h-49l-16 -14z" />
<glyph unicode="&#x201a;" d="M430 -176l19 51h14q47 70 104 113v49l-84 53l-51 131q16 41 63.5 86t84.5 45q27 0 119 -39t92 -49q0 -41 -10.5 -127t-10.5 -131v-14l-80 -94v-29l-133 -107h-49l-16 -12z" />
<glyph unicode="&#x201c;" d="M215 1075l2 58l14 219q-4 0 -4 -4l-6 4l2 -15l82 107v29l119 106h45l12 12l58 -73l-17 -52h-12q-41 -70 -92 -110v-53l74 -54l45 -131q-41 -106 -131 -129q-190 59 -191 86zM692 1075l2 58l15 219q-4 0 -4 -4l-7 4l2 -15l82 107v29l119 106h45l12 12l58 -73l-17 -52h-12 q-41 -70 -92 -110v-53l74 -54l45 -131q-41 -106 -131 -129q-190 59 -191 86z" />
<glyph unicode="&#x201d;" d="M229 1040l17 54h12q41 68 94 108v53l-76 54l-45 131q41 106 131 129q190 -59 191 -86l-2 -56l-14 -219l-72 -94v-29l-121 -104h-45l-12 -14zM707 1040l16 54h12q41 68 94 108v53l-75 54l-45 131q41 106 131 129q190 -59 190 -86l-2 -56l-14 -219l-72 -94v-29l-121 -104 h-45l-12 -14z" />
<glyph unicode="&#x2022;" horiz-adv-x="1236" d="M379 463q10 43 39 119q25 45 98.5 81.5t122.5 36.5q6 0 33 -2l157 -155l-10 -201l-143 -94l-84 18l-19 -18l-133 55z" />
<glyph unicode="&#x202f;" horiz-adv-x="345" />
<glyph unicode="&#x205f;" horiz-adv-x="432" />
<glyph unicode="&#x25fc;" horiz-adv-x="849" d="M0 0v850h850v-850h-850z" />
</font>
</defs>
</svg>
